<svg width="28" height="28" viewBox="0 0 28 28" fill="none" xmlns="http://www.w3.org/2000/svg">
<path d="M21.1076 17.8411L19.7794 17.0873C19.564 16.9676 19.4443 16.7762 19.4204 16.5129C19.3965 16.2497 19.4922 16.0343 19.7076 15.8668L23.0819 13.354C23.3212 13.1625 23.5785 13.0608 23.8537 13.0488C24.1289 13.0369 24.3982 13.1027 24.6614 13.2463L25.9896 14.0001C26.205 14.1198 26.3187 14.3112 26.3306 14.5745C26.3426 14.8377 26.2529 15.0531 26.0614 15.2206L22.6871 17.7335C22.4477 17.9249 22.1905 18.0266 21.9153 18.0386C21.64 18.0506 21.3708 17.9847 21.1076 17.8411ZM15.1486 13.9283L18.8819 11.0924L8.97423 5.38474L6.82039 9.11807L15.1486 13.9283ZM3.94859 25.4873C3.54176 25.4873 3.20073 25.3497 2.92552 25.0745C2.6503 24.7993 2.5127 24.4582 2.5127 24.0514C2.5127 23.6446 2.6503 23.3035 2.92552 23.0283C3.20073 22.7531 3.54176 22.6155 3.94859 22.6155H9.69218V14.0719L5.38449 11.595C4.69047 11.1882 4.24176 10.6078 4.03834 9.85397C3.83492 9.10012 3.93663 8.37619 4.34346 7.68217L6.49731 3.94884C6.90415 3.25482 7.48449 2.8061 8.23834 2.60269C8.99218 2.39927 9.71611 2.50098 10.4101 2.90781L22.2204 9.69243C22.6751 9.95568 22.9144 10.3446 22.9383 10.8591C22.9623 11.3736 22.7708 11.7864 22.364 12.0976L16.8358 16.2258C16.3571 16.5608 15.8426 16.7463 15.2922 16.7822C14.7418 16.8181 14.2153 16.6924 13.7127 16.4053L12.564 15.7591V22.6155C12.564 23.4053 12.2828 24.0813 11.7204 24.6437C11.158 25.2061 10.4819 25.4873 9.69218 25.4873H3.94859Z" fill="#525B75"/>
</svg>
