<svg width="26" height="26" viewBox="0 0 26 26" fill="none" xmlns="http://www.w3.org/2000/svg">
<path d="M4.33333 22.7501C4.02639 22.7501 3.7691 22.6463 3.56146 22.4387C3.35382 22.231 3.25 21.9737 3.25 21.6668V20.5835C3.25 20.2765 3.35382 20.0192 3.56146 19.8116C3.7691 19.6039 4.02639 19.5001 4.33333 19.5001C4.64028 19.5001 4.89757 19.6039 5.10521 19.8116C5.31285 20.0192 5.41667 20.2765 5.41667 20.5835V21.6668C5.41667 21.9737 5.31285 22.231 5.10521 22.4387C4.89757 22.6463 4.64028 22.7501 4.33333 22.7501ZM8.66667 22.7501C8.35972 22.7501 8.10243 22.6463 7.89479 22.4387C7.68715 22.231 7.58333 21.9737 7.58333 21.6668V15.7085C7.58333 15.4015 7.68715 15.1442 7.89479 14.9366C8.10243 14.7289 8.35972 14.6251 8.66667 14.6251C8.97361 14.6251 9.2309 14.7289 9.43854 14.9366C9.64618 15.1442 9.75 15.4015 9.75 15.7085V21.6668C9.75 21.9737 9.64618 22.231 9.43854 22.4387C9.2309 22.6463 8.97361 22.7501 8.66667 22.7501ZM13 22.7501C12.6931 22.7501 12.4358 22.6463 12.2281 22.4387C12.0205 22.231 11.9167 21.9737 11.9167 21.6668V17.8751C11.9167 17.5682 12.0205 17.3109 12.2281 17.1032C12.4358 16.8956 12.6931 16.7918 13 16.7918C13.3069 16.7918 13.5642 16.8956 13.7719 17.1032C13.9795 17.3109 14.0833 17.5682 14.0833 17.8751V21.6668C14.0833 21.9737 13.9795 22.231 13.7719 22.4387C13.5642 22.6463 13.3069 22.7501 13 22.7501ZM17.3333 22.7501C17.0264 22.7501 16.7691 22.6463 16.5615 22.4387C16.3538 22.231 16.25 21.9737 16.25 21.6668V16.2501C16.25 15.9432 16.3538 15.6859 16.5615 15.4782C16.7691 15.2706 17.0264 15.1668 17.3333 15.1668C17.6403 15.1668 17.8976 15.2706 18.1052 15.4782C18.3128 15.6859 18.4167 15.9432 18.4167 16.2501V21.6668C18.4167 21.9737 18.3128 22.231 18.1052 22.4387C17.8976 22.6463 17.6403 22.7501 17.3333 22.7501ZM21.6667 22.7501C21.3597 22.7501 21.1024 22.6463 20.8948 22.4387C20.6872 22.231 20.5833 21.9737 20.5833 21.6668V11.9168C20.5833 11.6098 20.6872 11.3525 20.8948 11.1449C21.1024 10.9373 21.3597 10.8335 21.6667 10.8335C21.9736 10.8335 22.2309 10.9373 22.4385 11.1449C22.6462 11.3525 22.75 11.6098 22.75 11.9168V21.6668C22.75 21.9737 22.6462 22.231 22.4385 22.4387C22.2309 22.6463 21.9736 22.7501 21.6667 22.7501ZM15.1667 12.973C14.8778 12.973 14.6024 12.9189 14.3406 12.8105C14.0788 12.7022 13.8396 12.5487 13.6229 12.3501L10.8333 9.56054L5.09167 15.3022C4.875 15.5189 4.61771 15.6227 4.31979 15.6137C4.02188 15.6046 3.76458 15.4918 3.54792 15.2751C3.34931 15.0585 3.25451 14.8012 3.26354 14.5032C3.27257 14.2053 3.37639 13.9571 3.575 13.7585L9.28958 8.04387C9.50625 7.8272 9.74549 7.66922 10.0073 7.56991C10.2691 7.4706 10.5444 7.42095 10.8333 7.42095C11.1222 7.42095 11.4021 7.4706 11.6729 7.56991C11.9438 7.66922 12.1785 7.8272 12.3771 8.04387L15.1667 10.8335L20.9083 5.09179C21.125 4.87512 21.3823 4.7713 21.6802 4.78033C21.9781 4.78935 22.2354 4.9022 22.4521 5.11887C22.6507 5.33554 22.7455 5.59283 22.7365 5.89074C22.7274 6.18866 22.6236 6.43692 22.425 6.63554L16.7104 12.3501C16.5118 12.5487 16.2771 12.7022 16.0063 12.8105C15.7354 12.9189 15.4556 12.973 15.1667 12.973Z" fill="#525B75"/>
</svg>
