<svg width="26" height="26" viewBox="0 0 26 26" fill="none" xmlns="http://www.w3.org/2000/svg">
<path d="M11.8625 16.7376L15.6271 12.973C15.8438 12.7563 16.1056 12.648 16.4125 12.648C16.7194 12.648 16.9812 12.7563 17.1979 12.973C17.4146 13.1897 17.5229 13.4515 17.5229 13.7584C17.5229 14.0654 17.4146 14.3272 17.1979 14.5438L12.6208 19.1209C12.4042 19.3376 12.1514 19.4459 11.8625 19.4459C11.5736 19.4459 11.3208 19.3376 11.1042 19.1209L8.80208 16.8188C8.58542 16.6022 8.47708 16.3404 8.47708 16.0334C8.47708 15.7265 8.58542 15.4647 8.80208 15.248C9.01875 15.0313 9.28056 14.923 9.5875 14.923C9.89444 14.923 10.1562 15.0313 10.3729 15.248L11.8625 16.7376ZM5.41667 23.8334C4.82083 23.8334 4.31076 23.6213 3.88646 23.197C3.46215 22.7726 3.25 22.2626 3.25 21.6667V6.50008C3.25 5.90425 3.46215 5.39418 3.88646 4.96987C4.31076 4.54557 4.82083 4.33341 5.41667 4.33341H6.5V3.25008C6.5 2.94314 6.60382 2.68585 6.81146 2.47821C7.0191 2.27057 7.27639 2.16675 7.58333 2.16675C7.89028 2.16675 8.14757 2.27057 8.35521 2.47821C8.56285 2.68585 8.66667 2.94314 8.66667 3.25008V4.33341H17.3333V3.25008C17.3333 2.94314 17.4372 2.68585 17.6448 2.47821C17.8524 2.27057 18.1097 2.16675 18.4167 2.16675C18.7236 2.16675 18.9809 2.27057 19.1885 2.47821C19.3962 2.68585 19.5 2.94314 19.5 3.25008V4.33341H20.5833C21.1792 4.33341 21.6892 4.54557 22.1135 4.96987C22.5378 5.39418 22.75 5.90425 22.75 6.50008V21.6667C22.75 22.2626 22.5378 22.7726 22.1135 23.197C21.6892 23.6213 21.1792 23.8334 20.5833 23.8334H5.41667ZM5.41667 21.6667H20.5833V10.8334H5.41667V21.6667ZM5.41667 8.66675H20.5833V6.50008H5.41667V8.66675Z" fill="#525B75"/>
</svg>
