<svg width="26" height="26" viewBox="0 0 26 26" fill="none" xmlns="http://www.w3.org/2000/svg">
<path d="M9.74967 14.0834H16.2497C16.5566 14.0834 16.8139 13.9796 17.0215 13.772C17.2292 13.5643 17.333 13.307 17.333 13.0001C17.333 12.6931 17.2292 12.4358 17.0215 12.2282C16.8139 12.0206 16.5566 11.9167 16.2497 11.9167H9.74967C9.44273 11.9167 9.18544 12.0206 8.9778 12.2282C8.77016 12.4358 8.66634 12.6931 8.66634 13.0001C8.66634 13.307 8.77016 13.5643 8.9778 13.772C9.18544 13.9796 9.44273 14.0834 9.74967 14.0834ZM9.74967 17.3334H16.2497C16.5566 17.3334 16.8139 17.2296 17.0215 17.022C17.2292 16.8143 17.333 16.557 17.333 16.2501C17.333 15.9431 17.2292 15.6858 17.0215 15.4782C16.8139 15.2706 16.5566 15.1667 16.2497 15.1667H9.74967C9.44273 15.1667 9.18544 15.2706 8.9778 15.4782C8.77016 15.6858 8.66634 15.9431 8.66634 16.2501C8.66634 16.557 8.77016 16.8143 8.9778 17.022C9.18544 17.2296 9.44273 17.3334 9.74967 17.3334ZM9.74967 20.5834H12.9997C13.3066 20.5834 13.5639 20.4796 13.7715 20.272C13.9792 20.0643 14.083 19.807 14.083 19.5001C14.083 19.1931 13.9792 18.9358 13.7715 18.7282C13.5639 18.5206 13.3066 18.4167 12.9997 18.4167H9.74967C9.44273 18.4167 9.18544 18.5206 8.9778 18.7282C8.77016 18.9358 8.66634 19.1931 8.66634 19.5001C8.66634 19.807 8.77016 20.0643 8.9778 20.272C9.18544 20.4796 9.44273 20.5834 9.74967 20.5834ZM6.49967 23.8334C5.90384 23.8334 5.39377 23.6213 4.96947 23.197C4.54516 22.7726 4.33301 22.2626 4.33301 21.6667V4.33341C4.33301 3.73758 4.54516 3.22751 4.96947 2.80321C5.39377 2.3789 5.90384 2.16675 6.49967 2.16675H14.2726C14.5615 2.16675 14.8368 2.22091 15.0986 2.32925C15.3604 2.43758 15.5906 2.59105 15.7893 2.78966L21.0434 8.04383C21.242 8.24244 21.3955 8.47265 21.5038 8.73446C21.6122 8.99626 21.6663 9.27161 21.6663 9.5605V21.6667C21.6663 22.2626 21.4542 22.7726 21.0299 23.197C20.6056 23.6213 20.0955 23.8334 19.4997 23.8334H6.49967ZM19.4997 9.75008H15.708C15.2566 9.75008 14.8729 9.59209 14.557 9.27612C14.241 8.96015 14.083 8.57647 14.083 8.12508V4.33341H6.49967V21.6667H19.4997V9.75008Z" fill="#525B75"/>
</svg>
