<svg width="26" height="26" viewBox="0 0 26 26" fill="none" xmlns="http://www.w3.org/2000/svg">
<path d="M11.7269 23.8334C11.2394 23.8334 10.8196 23.6709 10.4676 23.3459C10.1155 23.0209 9.90333 22.6237 9.83111 22.1542L9.58736 20.3667C9.35263 20.2765 9.13145 20.1681 8.92381 20.0417C8.71618 19.9154 8.51305 19.7799 8.31444 19.6355L6.63527 20.3397C6.18388 20.5383 5.7325 20.5563 5.28111 20.3938C4.82972 20.2313 4.47763 19.9424 4.22486 19.5272L2.95194 17.3063C2.69916 16.8911 2.62694 16.4487 2.73527 15.9792C2.84361 15.5098 3.08736 15.1216 3.46652 14.8147L4.90194 13.7313C4.88388 13.6049 4.87486 13.4831 4.87486 13.3657V12.6345C4.87486 12.5171 4.88388 12.3952 4.90194 12.2688L3.46652 11.1855C3.08736 10.8786 2.84361 10.4904 2.73527 10.0209C2.62694 9.55147 2.69916 9.10911 2.95194 8.69383L4.22486 6.473C4.47763 6.05772 4.82972 5.76883 5.28111 5.60633C5.7325 5.44383 6.18388 5.46189 6.63527 5.6605L8.31444 6.36467C8.51305 6.22022 8.72069 6.0848 8.93736 5.95842C9.15402 5.83203 9.37069 5.72369 9.58736 5.63341L9.83111 3.84591C9.90333 3.37647 10.1155 2.97925 10.4676 2.65425C10.8196 2.32925 11.2394 2.16675 11.7269 2.16675H14.2728C14.7603 2.16675 15.1801 2.32925 15.5321 2.65425C15.8842 2.97925 16.0964 3.37647 16.1686 3.84591L16.4124 5.63341C16.6471 5.72369 16.8683 5.83203 17.0759 5.95842C17.2835 6.0848 17.4867 6.22022 17.6853 6.36467L19.3644 5.6605C19.8158 5.46189 20.2672 5.44383 20.7186 5.60633C21.17 5.76883 21.5221 6.05772 21.7749 6.473L23.0478 8.69383C23.3006 9.10911 23.3728 9.55147 23.2644 10.0209C23.1561 10.4904 22.9124 10.8786 22.5332 11.1855L21.0978 12.2688C21.1158 12.3952 21.1249 12.5171 21.1249 12.6345V13.3657C21.1249 13.4831 21.1068 13.6049 21.0707 13.7313L22.5061 14.8147C22.8853 15.1216 23.129 15.5098 23.2374 15.9792C23.3457 16.4487 23.2735 16.8911 23.0207 17.3063L21.7207 19.5272C21.4679 19.9424 21.1158 20.2313 20.6644 20.3938C20.213 20.5563 19.7617 20.5383 19.3103 20.3397L17.6853 19.6355C17.4867 19.7799 17.279 19.9154 17.0624 20.0417C16.8457 20.1681 16.629 20.2765 16.4124 20.3667L16.1686 22.1542C16.0964 22.6237 15.8842 23.0209 15.5321 23.3459C15.1801 23.6709 14.7603 23.8334 14.2728 23.8334H11.7269ZM11.9165 21.6667H14.0561L14.4353 18.7959C14.995 18.6515 15.5141 18.4393 15.9926 18.1595C16.471 17.8796 16.9089 17.5411 17.3061 17.1438L19.9874 18.2542L21.0436 16.4126L18.7144 14.6522C18.8047 14.3994 18.8679 14.1331 18.904 13.8532C18.9401 13.5733 18.9582 13.289 18.9582 13.0001C18.9582 12.7112 18.9401 12.4268 18.904 12.147C18.8679 11.8671 18.8047 11.6008 18.7144 11.348L21.0436 9.58758L19.9874 7.74591L17.3061 8.88342C16.9089 8.46814 16.471 8.12057 15.9926 7.84071C15.5141 7.56085 14.995 7.34869 14.4353 7.20425L14.0832 4.33341H11.9436L11.5644 7.20425C11.0047 7.34869 10.4856 7.56085 10.0071 7.84071C9.52868 8.12057 9.09083 8.45911 8.69361 8.85633L6.01236 7.74591L4.95611 9.58758L7.28527 11.3209C7.195 11.5917 7.1318 11.8626 7.09569 12.1334C7.05958 12.4042 7.04152 12.6931 7.04152 13.0001C7.04152 13.289 7.05958 13.5688 7.09569 13.8397C7.1318 14.1105 7.195 14.3813 7.28527 14.6522L4.95611 16.4126L6.01236 18.2542L8.69361 17.1167C9.09083 17.532 9.52868 17.8796 10.0071 18.1595C10.4856 18.4393 11.0047 18.6515 11.5644 18.7959L11.9165 21.6667ZM13.054 16.7917C14.1012 16.7917 14.995 16.4216 15.7353 15.6813C16.4755 14.9411 16.8457 14.0473 16.8457 13.0001C16.8457 11.9529 16.4755 11.0591 15.7353 10.3188C14.995 9.57855 14.1012 9.20842 13.054 9.20842C11.9887 9.20842 11.0905 9.57855 10.3592 10.3188C9.62798 11.0591 9.26236 11.9529 9.26236 13.0001C9.26236 14.0473 9.62798 14.9411 10.3592 15.6813C11.0905 16.4216 11.9887 16.7917 13.054 16.7917Z" fill="#525B75"/>
</svg>
