<svg width="26" height="26" viewBox="0 0 26 26" fill="none" xmlns="http://www.w3.org/2000/svg">
<path d="M14.083 19.5001C13.7761 19.5001 13.5188 19.3963 13.3111 19.1886C13.1035 18.981 12.9997 18.7237 12.9997 18.4167V14.0834C12.9997 13.7765 13.1035 13.5192 13.3111 13.3115C13.5188 13.1039 13.7761 13.0001 14.083 13.0001H18.4163C18.7233 13.0001 18.9806 13.1039 19.1882 13.3115C19.3959 13.5192 19.4997 13.7765 19.4997 14.0834V15.1667L20.8809 14.4355C21.0615 14.3452 21.2375 14.3542 21.4091 14.4626C21.5806 14.5709 21.6663 14.7244 21.6663 14.923V17.5772C21.6663 17.7758 21.5806 17.9292 21.4091 18.0376C21.2375 18.1459 21.0615 18.1549 20.8809 18.0647L19.4997 17.3334V18.4167C19.4997 18.7237 19.3959 18.981 19.1882 19.1886C18.9806 19.3963 18.7233 19.5001 18.4163 19.5001H14.083ZM4.33301 20.5834V10.8334C4.33301 10.4904 4.40974 10.1654 4.56322 9.85841C4.71669 9.55147 4.92884 9.29869 5.19967 9.10008L11.6997 4.22508C12.0788 3.93619 12.5122 3.79175 12.9997 3.79175C13.4872 3.79175 13.9205 3.93619 14.2997 4.22508L21.233 9.42508C21.5219 9.64175 21.6709 9.89453 21.6799 10.1834C21.6889 10.4723 21.6122 10.7251 21.4497 10.9417C21.2872 11.1584 21.066 11.3029 20.7861 11.3751C20.5063 11.4473 20.2219 11.3751 19.933 11.1584L12.9997 5.95841L6.49967 10.8334V20.5834H20.583C20.89 20.5834 21.1472 20.6872 21.3549 20.8949C21.5625 21.1025 21.6663 21.3598 21.6663 21.6667C21.6663 21.9737 21.5625 22.231 21.3549 22.4386C21.1472 22.6463 20.89 22.7501 20.583 22.7501H6.49967C5.90384 22.7501 5.39377 22.5379 4.96947 22.1136C4.54516 21.6893 4.33301 21.1792 4.33301 20.5834Z" fill="#525B75"/>
</svg>
