<svg width="26" height="26" viewBox="0 0 26 26" fill="none" xmlns="http://www.w3.org/2000/svg">
<path d="M12.9462 19.5001C13.3253 19.5001 13.6458 19.3692 13.9076 19.1074C14.1694 18.8456 14.3003 18.5251 14.3003 18.1459C14.3003 17.7667 14.1694 17.4463 13.9076 17.1845C13.6458 16.9227 13.3253 16.7917 12.9462 16.7917C12.567 16.7917 12.2465 16.9227 11.9847 17.1845C11.7229 17.4463 11.592 17.7667 11.592 18.1459C11.592 18.5251 11.7229 18.8456 11.9847 19.1074C12.2465 19.3692 12.567 19.5001 12.9462 19.5001ZM13.0003 23.8334C11.5017 23.8334 10.0934 23.549 8.77533 22.9803C7.45727 22.4115 6.31074 21.6397 5.33574 20.6647C4.36074 19.6897 3.58887 18.5431 3.02012 17.2251C2.45137 15.907 2.16699 14.4987 2.16699 13.0001C2.16699 11.5015 2.45137 10.0931 3.02012 8.77508C3.58887 7.45703 4.36074 6.3105 5.33574 5.3355C6.31074 4.3605 7.45727 3.58862 8.77533 3.01987C10.0934 2.45112 11.5017 2.16675 13.0003 2.16675C14.4989 2.16675 15.9073 2.45112 17.2253 3.01987C18.5434 3.58862 19.6899 4.3605 20.6649 5.3355C21.6399 6.3105 22.4118 7.45703 22.9805 8.77508C23.5493 10.0931 23.8337 11.5015 23.8337 13.0001C23.8337 14.4987 23.5493 15.907 22.9805 17.2251C22.4118 18.5431 21.6399 19.6897 20.6649 20.6647C19.6899 21.6397 18.5434 22.4115 17.2253 22.9803C15.9073 23.549 14.4989 23.8334 13.0003 23.8334ZM13.0003 21.6667C15.4198 21.6667 17.4691 20.8272 19.1482 19.148C20.8274 17.4688 21.667 15.4195 21.667 13.0001C21.667 10.5806 20.8274 8.53133 19.1482 6.85216C17.4691 5.173 15.4198 4.33341 13.0003 4.33341C10.5809 4.33341 8.53158 5.173 6.85241 6.85216C5.17324 8.53133 4.33366 10.5806 4.33366 13.0001C4.33366 15.4195 5.17324 17.4688 6.85241 19.148C8.53158 20.8272 10.5809 21.6667 13.0003 21.6667ZM13.1087 8.34175C13.56 8.34175 13.9528 8.48619 14.2868 8.77508C14.6208 9.06397 14.7878 9.42508 14.7878 9.85841C14.7878 10.2556 14.6659 10.6077 14.4222 10.9147C14.1784 11.2216 13.9031 11.5105 13.5962 11.7813C13.1809 12.1424 12.8153 12.5397 12.4993 12.973C12.1833 13.4063 12.0253 13.8938 12.0253 14.4355C12.0253 14.6883 12.1201 14.9004 12.3097 15.072C12.4993 15.2435 12.7205 15.3292 12.9732 15.3292C13.2441 15.3292 13.4743 15.239 13.6639 15.0584C13.8534 14.8779 13.9753 14.6522 14.0295 14.3813C14.1017 14.0022 14.2642 13.6636 14.517 13.3657C14.7698 13.0678 15.0406 12.7834 15.3295 12.5126C15.7448 12.1154 16.1014 11.682 16.3993 11.2126C16.6972 10.7431 16.8462 10.2195 16.8462 9.64175C16.8462 8.72091 16.4715 7.96709 15.7222 7.38029C14.9729 6.79348 14.1017 6.50008 13.1087 6.50008C12.4225 6.50008 11.768 6.64453 11.1451 6.93341C10.5222 7.2223 10.0482 7.66466 9.72324 8.2605C9.59685 8.47716 9.55623 8.70737 9.60137 8.95112C9.64651 9.19487 9.76838 9.37994 9.96699 9.50633C10.2198 9.65078 10.4816 9.69591 10.7524 9.64175C11.0232 9.58758 11.2489 9.43411 11.4295 9.18133C11.6281 8.9105 11.8764 8.70286 12.1743 8.55841C12.4722 8.41397 12.7837 8.34175 13.1087 8.34175Z" fill="#525B75"/>
</svg>
