<svg width="26" height="26" viewBox="0 0 26 26" fill="none" xmlns="http://www.w3.org/2000/svg">
<path d="M12.9997 18.9584C13.3066 18.9584 13.5639 18.8546 13.7715 18.647C13.9792 18.4393 14.083 18.182 14.083 17.8751H11.9163C11.9163 18.182 12.0202 18.4393 12.2278 18.647C12.4354 18.8546 12.6927 18.9584 12.9997 18.9584ZM9.20801 17.3334H16.7913C16.9358 17.3334 17.0622 17.2792 17.1705 17.1709C17.2788 17.0626 17.333 16.9362 17.333 16.7917C17.333 16.6473 17.2788 16.5209 17.1705 16.4126C17.0622 16.3042 16.9358 16.2501 16.7913 16.2501H16.2497V13.7042C16.2497 12.9098 16.033 12.1876 15.5997 11.5376C15.1663 10.8876 14.5705 10.4723 13.8122 10.2917V10.0209C13.8122 9.78619 13.7354 9.5921 13.582 9.43862C13.4285 9.28515 13.2344 9.20841 12.9997 9.20841C12.765 9.20841 12.5709 9.28515 12.4174 9.43862C12.2639 9.5921 12.1872 9.78619 12.1872 10.0209V10.2917C11.4288 10.4723 10.833 10.8876 10.3997 11.5376C9.96634 12.1876 9.74967 12.9098 9.74967 13.7042V16.2501H9.20801C9.06356 16.2501 8.93717 16.3042 8.82884 16.4126C8.72051 16.5209 8.66634 16.6473 8.66634 16.7917C8.66634 16.9362 8.72051 17.0626 8.82884 17.1709C8.93717 17.2792 9.06356 17.3334 9.20801 17.3334ZM4.33301 20.5834V10.8334C4.33301 10.4904 4.40974 10.1654 4.56322 9.85841C4.71669 9.55147 4.92884 9.29869 5.19967 9.10008L11.6997 4.22508C11.8983 4.08064 12.1059 3.9723 12.3226 3.90008C12.5393 3.82786 12.765 3.79175 12.9997 3.79175C13.2344 3.79175 13.4601 3.82786 13.6768 3.90008C13.8934 3.9723 14.1011 4.08064 14.2997 4.22508L20.7997 9.10008C21.0705 9.29869 21.2827 9.55147 21.4361 9.85841C21.5896 10.1654 21.6663 10.4904 21.6663 10.8334V20.5834C21.6663 21.1792 21.4542 21.6893 21.0299 22.1136C20.6056 22.5379 20.0955 22.7501 19.4997 22.7501H6.49967C5.90384 22.7501 5.39377 22.5379 4.96947 22.1136C4.54516 21.6893 4.33301 21.1792 4.33301 20.5834ZM6.49967 20.5834H19.4997V10.8334L12.9997 5.95841L6.49967 10.8334V20.5834Z" fill="#525B75"/>
</svg>
