<svg width="1024" height="1024" viewBox="0 0 1024 1024" fill="none" xmlns="http://www.w3.org/2000/svg">
<path d="M516.762 101.277C545.038 85.8438 572.972 78.6365 600.585 79.582C628.201 80.5277 655.593 89.6322 682.777 106.97C727.066 142.218 746.749 188.208 741.883 245.111C734.295 294.581 708.926 331.876 665.699 357.105C648.806 365.831 630.977 371.71 612.202 374.743L610.16 375.073L611.107 376.911C623.585 401.109 636.614 424.868 650.194 448.188L650.595 448.874L651.387 448.929C684.286 451.216 717.588 451.985 751.294 451.232C768.337 454.202 781.322 460.739 790.399 470.742C799.479 480.748 804.78 494.367 806.184 511.737C804.513 529 799.079 542.777 789.975 553.183C780.876 563.581 768.003 570.734 751.235 574.567C701.577 574.758 651.921 574.566 602.267 573.994C596.494 572.823 590.908 571.146 585.509 568.962C577.852 564.861 570.936 559.627 564.758 553.254C555.526 541.543 546.96 529.357 539.06 516.698L537.724 514.558L536.481 516.754C529.056 529.88 521.776 543.098 514.643 556.408L514.064 557.487L515.006 558.271C544.537 582.826 574.399 606.945 604.594 630.63C612.91 637.614 619.674 645.693 624.896 654.869C628.931 663.051 631.745 671.673 633.34 680.736C634.713 740.025 635.67 799.318 636.209 858.618V858.694L636.218 858.769C638.402 878.596 633.904 896.598 622.718 912.843C611.284 927.437 598.377 936.763 584.012 940.961C569.657 945.155 553.696 944.273 536.064 938.187C531.11 935.709 526.211 933.259 521.374 930.841C504.846 917.574 494.939 900.367 491.621 879.146C491.425 865.191 490.851 851.434 489.899 837.875C489.242 805.326 488.285 772.784 487.028 740.249L487.027 740.238L486.984 739.394C486.746 735.186 486.173 731.163 485.266 727.327L485.14 726.795L484.7 726.469L468.09 714.136C451.465 701.798 434.797 689.445 418.084 677.08L416.217 675.699L415.726 677.969C410.458 702.292 406.051 726.812 402.506 751.526C399.053 767.799 392.488 781.094 382.852 791.479C373.206 801.873 360.417 809.424 344.414 814.095L344.396 814.101C290.222 830.63 235.924 846.69 181.504 862.281C152.985 863.61 130.779 852.589 114.705 829.132C105.708 810.92 102.93 794.17 106.187 778.816C109.449 763.437 118.81 749.257 134.463 736.294L136.841 734.324L133.822 733.672C97.4187 725.812 67.6805 707.447 44.5557 678.545C19.0683 640.387 15.6726 600.387 34.3564 558.354C48.4593 532.972 67.2563 511.801 90.7568 494.827L91.8809 494.021C112.243 480.685 132.704 467.492 153.261 454.441L154.091 453.915L153.938 452.943C152.081 441.064 150.746 429.066 149.937 416.948C149.992 406.451 152.631 398.411 157.677 392.645C162.731 386.868 170.37 383.179 180.802 381.729L181.549 381.626L181.911 380.965C187.393 370.959 194.546 362.301 203.375 354.982L203.374 354.981C233.131 330.933 263.709 308.001 295.105 286.183C303.894 281.069 312.942 276.731 322.25 273.166C364.584 266.777 407.011 261.046 449.528 255.97L451.048 255.788L450.836 254.273C446.318 221.891 449.583 192.999 460.559 167.546C471.525 142.115 490.232 120.021 516.762 101.277Z" stroke="#A1A1A1" stroke-width="3"/>
<path fill-rule="evenodd" clip-rule="evenodd" d="M579.134 102.875C626.829 99.0772 665.687 115.539 695.71 152.262C728.644 202.667 728.261 252.82 694.561 302.719C659.153 344.003 614.551 359.508 560.758 349.234C569.027 354.097 575.344 360.796 579.709 369.333C598.605 404.64 617.938 439.67 637.709 474.423C676.759 474.806 715.809 475.189 754.859 475.572C777.73 483.679 786.344 499.568 780.701 523.236C775.223 537.519 765.078 546.516 750.265 550.226C701.644 550.992 653.022 550.992 604.402 550.226C594.421 547.821 586.19 542.653 579.709 534.721C564.97 512.133 550.229 489.546 535.49 466.958C518.18 498.128 501.144 529.521 484.381 561.137C483.564 563.281 484.139 565.004 486.104 566.305C524.864 596.638 562.957 627.84 600.382 659.91C605.043 667.321 608.105 675.36 609.57 684.029C611.367 749.486 612.133 814.952 611.867 880.427C605.546 905.425 589.466 918.824 563.629 920.626C536.659 918.16 520.58 903.611 515.391 876.982C513.572 822.221 511.467 767.475 509.074 712.742C472.997 686.569 436.818 660.535 400.539 634.643C392.565 675.516 384.908 716.48 377.568 757.535C371.071 775.258 358.629 786.551 340.241 791.417C287.403 807.115 234.571 822.81 181.744 838.506C164.227 840.175 149.488 834.623 137.526 821.852C120.769 794.594 125.171 771.433 150.734 752.367C155.906 749.622 161.265 747.325 166.814 745.475C203.236 734.934 239.606 724.215 275.923 713.317C279.44 712.098 282.312 709.993 284.537 707C293.104 657.652 301.528 608.266 309.805 558.84C310.999 551 312.913 543.344 315.548 535.87C342.017 482.545 369.964 430.096 399.39 378.522C401.39 375.295 402.73 371.85 403.41 368.185C381.535 369.684 359.713 371.789 337.944 374.502C312.099 390.678 286.449 407.139 260.993 423.888C248.23 429.861 234.832 431.775 220.794 429.631C201.293 420.925 195.743 406.569 204.141 386.561C214.416 376.148 225.327 366.385 236.874 357.274C263.1 336.792 290.282 317.65 318.419 299.848C328.828 296.096 339.547 293.799 350.578 292.956C381.209 289.511 411.837 286.065 442.46 282.62C451.265 281.854 460.07 281.854 468.876 282.62C476.063 284.506 482.954 286.803 489.549 289.511C462.906 241.467 465.393 194.952 497.015 149.965C518.54 123.986 545.914 108.29 579.134 102.875Z" fill="#FCC511"/>
<path d="M855.745 120.689C866.623 113.47 878.374 111.651 891.119 115.227C897.03 117.063 902.649 119.499 907.979 122.532C922.964 131.814 936.634 142.823 948.989 155.56C976.725 189.018 994.019 227.416 1000.88 270.782C1002.69 285.042 1000.5 295.953 994.607 303.756C988.728 311.535 978.951 316.499 964.97 318.44C961.773 318.293 958.751 317.574 955.894 316.283L954.106 315.474L953.795 317.412C953.126 321.574 953.537 325.664 955.019 329.657L955.194 330.132L955.623 330.402C964.08 335.752 969.904 342.202 973.208 349.727C976.511 357.25 977.347 365.97 975.622 375.954C974.411 382.053 972.018 387.575 968.443 392.536C960.911 401.85 951.312 407.77 939.598 410.329C881.538 410.694 823.511 410.312 765.519 409.185C750.827 402.898 741.406 394.51 736.945 384.133C732.479 373.742 732.86 361.067 738.383 345.957C743.531 339.465 749.166 333.464 755.288 327.953L755.752 327.535L755.782 326.911C756.662 308.928 757.807 290.967 759.221 273.023C760.414 263.329 762.499 253.856 765.475 244.603L765.478 244.595L765.479 244.588C778.189 203.512 805.337 178.25 847.076 168.654L848.875 168.241L848.103 166.565C844.12 157.917 842.827 149.82 844.106 142.231C845.379 134.687 849.218 127.507 855.745 120.689Z" fill="#F5F2E6" stroke="#A1A1A1" stroke-width="3"/>
<path fill-rule="evenodd" clip-rule="evenodd" d="M873.157 136.182C884.018 136.549 893.972 139.802 903.019 145.945C938.073 172.549 961.618 207.197 973.653 249.886C976.041 259.337 977.764 268.908 978.822 278.599C978.237 293.182 971.346 297.586 958.148 291.807C957.332 290.366 956.375 289.027 955.277 287.788C951.707 242.562 933.523 204.469 900.722 173.509C891.793 166.363 881.84 161.003 870.86 157.43C864.299 149.527 865.064 142.444 873.157 136.182Z" fill="#FCC413"/>
<path fill-rule="evenodd" clip-rule="evenodd" d="M846.74 192.46C875.867 191.996 897.881 204.246 912.781 229.213C918.949 240.785 923.16 253.037 925.415 265.965C928.39 292.316 930.496 318.732 931.731 345.214C948.5 347.638 955.199 357.209 951.831 373.927C949.152 380.432 944.366 384.452 937.474 385.986C909.909 386.178 882.345 386.369 854.78 386.561C825.997 386.736 797.284 386.162 768.641 384.838C758.9 379.33 755.264 371.098 757.73 360.145C760.975 350.589 767.675 345.612 777.829 345.214C778.88 320.282 780.603 295.396 782.997 270.56C786.485 244.73 797.779 223.099 816.879 205.668C826.008 199.126 835.963 194.724 846.74 192.46Z" fill="#F77A18"/>
<path fill-rule="evenodd" clip-rule="evenodd" d="M178.3 407.235C180.775 407.087 183.072 407.662 185.191 408.957C210.801 437.469 241.811 445.317 278.221 432.502C285.187 431.998 287.676 435.061 285.687 441.69C281.667 445.71 277.647 449.73 273.627 453.75C262.839 462.259 252.12 470.681 241.469 479.017C262.804 518.522 275.82 560.634 280.518 605.355C275.026 681.671 234.062 717.659 157.626 713.317C122.074 710.182 92.0202 695.826 67.467 670.247C39.608 633.07 38.0767 594.786 62.8729 555.394C78.1988 533.94 97.1495 516.52 119.725 503.136C140.293 490.619 161.158 478.559 182.32 466.958C179.895 449.537 177.024 432.117 173.706 414.7C173.961 411.298 175.493 408.809 178.3 407.235Z" fill="#F77A18"/>
</svg>
