<svg width="900" height="919" viewBox="0 0 900 919" fill="none" xmlns="http://www.w3.org/2000/svg">
<path fill-rule="evenodd" clip-rule="evenodd" d="M301.368 652.548C303.855 656.995 307.291 660.701 311.674 663.666C324.458 678.606 337.985 693.018 352.255 706.902C356.438 712.04 360.303 717.393 363.849 722.961C374.416 776.963 384.078 831.111 392.835 885.408C386.837 908.876 371.378 919.17 346.458 916.291C330.005 910.512 320.772 899.188 318.76 882.319C311.119 849.356 302.746 815.59 293.639 781.022C291.86 769.671 289.069 758.553 285.265 747.668C257.736 723.327 229.823 699.443 201.528 676.019C194.889 697.774 188.448 719.598 182.204 741.491C179.98 746.992 177.404 752.345 174.474 757.551C137.191 805.574 98.9717 852.93 59.8187 899.614C51.2943 907.117 41.6323 911.235 30.8328 911.967C19.5965 910.078 10.5787 904.726 3.77919 895.908C-2.88372 879.493 -0.736176 864.257 10.2205 850.201C28.3065 825.172 45.9132 800.465 63.0394 776.081C74.952 759.079 87.1905 742.196 99.7549 725.432C105.449 703.478 109.529 681.242 111.993 658.724C121.755 606.265 130.557 553.558 138.403 500.602C120.678 509.102 103.501 518.572 86.8723 529.014C74.5912 554.219 62.9969 579.748 52.0891 605.605C42.4503 618.498 30.2118 621.586 15.3736 614.87C2.12764 604.365 -1.09303 591.394 5.71159 575.957C10.598 563.709 15.1069 551.355 19.2384 538.897C25.0175 525.387 31.674 512.211 39.2065 499.366C45.3901 492.199 52.0466 485.405 59.1746 478.983C90.3274 457.912 122.534 439.589 155.794 424.011C164.606 421.46 173.624 419.814 182.848 419.07C215.49 424.388 247.911 430.565 280.112 437.6C344.746 419.9 408.73 401.781 472.064 383.245C497.65 390.725 504.521 405.962 492.676 428.953C490.743 430.806 488.811 432.659 486.879 434.512C428.118 457.029 369.073 478.647 309.742 499.366C298.595 541.714 287.644 584.126 276.891 626.606C283.647 636.383 291.807 645.031 301.368 652.548Z" fill="#F5B623"/>
<path d="M331.676 349.5C331.676 389.541 299.248 422 259.247 422C219.245 422 186.818 389.541 186.818 349.5C186.818 309.459 219.245 277 259.247 277C299.248 277 331.676 309.459 331.676 349.5Z" fill="#F5B623"/>
<path fill-rule="evenodd" clip-rule="evenodd" d="M848.88 504.308C871.154 531.164 887.902 561.019 899.123 593.87C898.387 601.655 895.382 608.449 890.105 614.253C884.291 617.155 878.923 619.625 874.002 621.665C863.713 619.828 855.555 614.886 849.525 606.841C838.054 587 825.815 567.646 812.809 548.78C809.173 545.182 804.88 542.505 799.926 540.75C791.442 537.285 782.853 534.197 774.161 531.485C767.85 528.434 761.195 525.964 754.193 524.073C753.978 524.691 753.764 525.309 753.549 525.926C766.474 557.756 779.141 589.67 791.553 621.665C792.412 631.136 792.412 640.606 791.553 650.077C787.857 683.378 785.28 716.732 783.823 750.139C795.415 763.518 807.653 776.283 820.539 788.435C843.258 813.517 866.447 838.223 890.105 862.554C890.534 863.79 891.393 864.614 892.681 865.025C903.456 892.126 894.008 908.596 864.34 914.438C855.328 913.412 847.17 910.323 839.863 905.173C800.096 866.835 760.16 828.746 720.054 790.905C713.312 784.651 707.3 777.856 702.018 770.522C702.607 770.011 703.037 769.393 703.306 768.669C701.405 763.072 700.547 757.307 700.73 751.375C702.305 732.628 704.023 713.893 705.883 695.167C705.454 692.49 705.024 689.814 704.595 687.137C696.982 691.802 689.683 696.743 682.694 701.961C659.276 715.755 636.516 730.579 614.416 746.433C609.418 757.108 605.982 768.226 604.11 779.787C600.989 786.384 598.842 793.384 597.669 800.788C587.377 834.89 576.855 869.067 566.106 903.32C555.599 917.591 541.643 922.121 524.238 916.909C510.729 911.13 503.428 901.041 502.337 886.643C513.608 836.201 524.989 785.759 536.476 735.315C538.316 725.366 541.536 715.896 546.138 706.903C549.574 703.608 553.008 700.315 556.444 697.02C584.322 677.691 611.805 657.925 638.893 637.724C641.122 637.074 642.84 635.839 644.046 634.018C649.604 632.806 653.04 629.512 654.352 624.135C644.927 599.221 635.265 574.927 625.366 551.251C608.333 567.998 590.941 584.264 573.192 600.046C559.575 611.547 544.115 614.842 526.814 609.929C517.11 604.253 507.661 598.281 498.472 592.017C476.282 575.902 454.597 559.019 433.415 541.368C426.639 532.269 425.994 522.797 431.482 512.955C440.9 501.849 452.923 498.143 467.554 501.838C473.177 506.395 479.188 510.512 485.59 514.191C489.836 517.058 494.13 519.94 498.472 522.838C511.082 532.391 524.393 541.038 538.408 548.78C541.122 547.631 543.698 546.191 546.138 544.456C554.2 536.935 561.93 529.317 569.327 521.603C586.748 505.925 604.353 490.484 622.146 475.278C650.182 465.905 678.738 458.287 707.815 452.424C746.952 458.46 784.526 469.372 820.539 485.161C830.544 490.853 839.991 497.236 848.88 504.308Z" fill="#FDC812"/>
<path d="M708.308 384.5C708.308 424.541 675.88 457 635.879 457C595.877 457 563.45 424.541 563.45 384.5C563.45 344.46 595.877 312 635.879 312C675.88 312 708.308 344.46 708.308 384.5Z" fill="#FDC812"/>
<path d="M400.115 13.3982C413.311 -4.46605 440.981 -4.46609 454.177 13.3982L582.41 186.988C597.93 207.998 582.247 237.037 555.379 237.037H298.913C272.045 237.037 256.362 207.998 271.882 186.988L400.115 13.3982Z" fill="#E96D32"/>
<path d="M425.632 150.493C423.283 150.493 421.276 149.739 419.612 148.231C417.948 146.629 417.068 144.697 416.97 142.435L414.767 86.4517C414.67 84.284 415.404 82.399 416.97 80.7968C418.536 79.1946 420.444 78.3935 422.695 78.3935H430.624C432.875 78.3935 434.783 79.1946 436.349 80.7968C437.915 82.399 438.649 84.284 438.552 86.4517L436.349 142.435C436.251 144.697 435.371 146.629 433.707 148.231C432.043 149.739 430.036 150.493 427.687 150.493H425.632ZM429.155 161.803C431.407 161.803 433.315 162.604 434.881 164.206C436.545 165.809 437.377 167.693 437.377 169.861V173.537C437.377 175.705 436.545 177.59 434.881 179.192C433.315 180.794 431.407 181.595 429.155 181.595H424.164C421.912 181.595 419.955 180.794 418.291 179.192C416.725 177.59 415.942 175.705 415.942 173.537V169.861C415.942 167.693 416.725 165.809 418.291 164.206C419.955 162.604 421.912 161.803 424.164 161.803H429.155Z" fill="#FEFCFB"/>
<path d="M400.115 13.4111C413.311 -4.47035 440.981 -4.47039 454.177 13.4111L582.41 187.17C597.809 208.037 582.49 236.815 556.006 237.263L555.379 237.268V213.452C562.096 213.452 566.017 206.186 562.137 200.928L433.904 27.1689C430.605 22.6986 423.687 22.6985 420.388 27.1689L292.156 200.928C288.276 206.186 292.196 213.452 298.913 213.452V237.268C272.045 237.268 256.362 208.201 271.882 187.17L400.115 13.4111ZM555.379 213.452V237.268H298.913V213.452H555.379Z" fill="#FED6D6"/>
</svg>
