<svg width="1024" height="1024" viewBox="0 0 1024 1024" fill="none" xmlns="http://www.w3.org/2000/svg">
<path fill-rule="evenodd" clip-rule="evenodd" d="M500.224 26.3064C525.582 24.2949 547.194 32.1877 565.058 49.985C616.454 126.841 667.569 203.89 718.405 281.133C737.16 314.75 733.214 345.382 706.565 373.028C693.533 383.891 678.498 389.904 661.463 391.069C559.232 391.821 457.001 391.821 354.77 391.069C326.434 385.279 307.078 368.929 296.701 342.02C290.32 322.041 292.199 302.873 302.339 284.515C352.326 208.594 402.315 132.672 452.303 56.7503C464.986 41.2172 480.958 31.0693 500.224 26.3064Z" fill="#FCFBFB"/>
<path fill-rule="evenodd" clip-rule="evenodd" d="M602.831 157.102C625.94 195.232 650.369 232.442 676.122 268.729C683.703 278.981 691.032 289.506 698.109 300.301C707.024 324.232 701.198 343.589 680.632 358.37C676.584 360.095 672.449 361.599 668.229 362.88C564.534 364.745 460.799 365.121 357.025 364.007C329.26 356.156 317.421 337.927 321.507 309.321C323.078 305.052 324.956 300.919 327.145 296.918C376.376 224.022 424.485 150.356 471.471 75.9184C489.845 51.9993 512.208 47.3012 538.56 61.824C542.131 65.395 545.701 68.9648 549.272 72.5358C567.713 100.407 585.566 128.595 602.831 157.102Z" fill="#E96D32"/>
<path fill-rule="evenodd" clip-rule="evenodd" d="M483.311 304.811C470.729 303.874 457.949 303.31 444.975 303.12C441.426 302.126 438.043 300.812 434.827 299.173C421.357 284.432 423.235 271.652 440.464 260.837C445.503 238.58 449.074 216.029 451.176 193.184C456.753 168.813 471.599 153.215 495.714 146.39C492.968 135.833 496.35 127.94 505.862 122.712C516.669 120.315 523.998 124.261 527.849 134.551C528.412 139.046 528.6 143.556 528.413 148.082C553.52 154.592 568.367 170.753 572.951 196.566C574.77 217.381 577.589 238.052 581.408 258.582C586.55 262.021 591.248 266.155 595.502 270.985C600.698 283.587 597.504 293.548 585.918 300.865C570.592 302.495 555.181 303.059 539.689 302.556C535.9 317.64 526.129 325.909 510.372 327.362C496.783 325.108 487.763 317.592 483.311 304.811Z" fill="#FDFCFB"/>
<path fill-rule="evenodd" clip-rule="evenodd" d="M502.48 171.76C524.5 168.946 538.97 177.966 545.891 198.821C548.731 224.128 552.302 249.311 556.602 274.367C526.544 275.495 496.476 275.87 466.398 275.495C470.922 249.276 474.869 222.966 478.238 196.566C482.769 184.707 490.85 176.437 502.48 171.76Z" fill="#E96D31"/>
<path fill-rule="evenodd" clip-rule="evenodd" d="M602.832 157.102C627.697 194 652.127 231.209 676.123 268.73C650.371 232.442 625.941 195.233 602.832 157.102Z" fill="#E15621"/>
<path fill-rule="evenodd" clip-rule="evenodd" d="M434.826 299.173C438.043 300.812 441.426 302.126 444.974 303.12C457.949 303.31 470.729 303.874 483.311 304.811C483.384 305.305 483.197 305.682 482.747 305.939C469.866 305.012 456.899 304.448 443.847 304.247C440.604 303.753 437.597 302.626 434.826 300.865C433.43 300.087 433.43 299.523 434.826 299.173Z" fill="#DE430A"/>
<path fill-rule="evenodd" clip-rule="evenodd" d="M497.969 419.821C534.777 416.52 562.778 430.427 581.972 461.541C592.915 482.767 594.418 504.566 586.482 526.938C610.322 532.356 628.926 545.323 642.296 565.839C667.099 566.403 691.905 566.591 716.714 566.403C712.726 532.83 725.881 508.964 756.178 494.803C786.744 485.701 812.114 493.405 832.288 517.918C836.982 525.23 840.365 533.123 842.436 541.597C843.188 677.655 843.188 813.712 842.436 949.77C838.783 968.832 827.319 979.919 808.046 983.033C788.877 983.785 769.709 983.785 750.541 983.033C729.423 978.543 718.147 965.576 716.714 944.132C682.512 944.132 648.309 944.132 614.107 944.132C612.002 968.436 599.599 985.161 576.898 994.308C550.17 1002.06 528.183 995.107 510.936 973.448C492.937 995.981 470.198 1002.56 442.719 993.18C422.066 983.259 410.414 966.91 407.765 944.132C373.939 944.132 340.112 944.132 306.286 944.132C305.747 963.282 296.351 975.873 278.097 981.905C256.717 983.694 235.293 984.071 213.827 983.033C196.232 979.722 185.145 969.386 180.564 952.025C179.812 814.839 179.812 677.655 180.564 540.469C191.55 505.443 215.417 489.093 252.163 491.421C291.596 500.933 309.637 525.926 306.286 566.403C331.479 566.778 356.661 566.403 381.832 565.275C395.113 545.849 413.154 533.07 435.954 526.938C425.722 490.25 435.118 459.619 464.143 435.043C474.59 427.875 485.865 422.801 497.969 419.821Z" fill="#FCFCFB"/>
<path fill-rule="evenodd" clip-rule="evenodd" d="M791.131 519.046C797.167 521.706 802.992 525.839 808.608 531.449C811.458 535.644 813.713 540.155 815.374 544.979C815.562 678.971 816.126 812.774 817.065 946.387C817.259 947.506 816.882 948.257 815.938 948.642C816.011 948.148 815.824 947.772 815.374 947.515C813.682 950.709 811.239 953.153 808.045 954.844C789.252 955.596 770.46 955.596 751.667 954.844C747.996 953.054 745.552 950.236 744.338 946.387C743.963 936.991 743.586 927.594 743.211 918.198C742.647 927.211 742.46 936.231 742.647 945.26C741.528 936.447 741.152 927.426 741.519 918.198C699.616 917.073 657.521 916.697 615.234 917.071H612.979L613.001 904.5L612.979 876.479C616.673 876.799 620.243 876.424 623.69 875.352C624.254 841.151 624.442 806.949 624.254 772.744C633.113 771.506 641.006 768.124 647.933 762.597C649.796 800.499 650.924 838.46 651.315 876.479C651.691 876.479 652.067 876.479 652.443 876.479C662.215 876.479 671.987 876.479 681.759 876.479C681.947 795.671 681.759 714.863 681.195 634.056C674.344 632.955 667.392 632.579 660.336 632.928C661.041 619.839 659.538 607.059 655.825 594.592C684.5 593.85 713.064 593.099 741.519 592.336C741.331 577.674 741.519 563.016 742.083 548.362C746.585 528.269 759.176 517.746 779.856 516.791C783.934 516.676 787.692 517.428 791.131 519.046Z" fill="#1A2130"/>
<path fill-rule="evenodd" clip-rule="evenodd" d="M370.557 876.479C370.624 877.092 371 877.467 371.684 877.607C372.623 839.651 373.187 801.691 373.375 763.724C380.481 769.414 388.562 772.797 397.618 773.872C397.429 808.076 397.618 842.278 398.181 876.479C400.979 878.525 404.174 879.276 407.766 878.734C407.399 887.588 407.775 896.232 408.893 904.668C408.893 908.803 408.893 912.936 408.893 917.071C407.989 915.434 407.425 913.555 407.202 911.433C406.645 913.276 406.458 915.155 406.638 917.071C364.541 916.883 322.446 917.071 280.353 917.635C279.429 927.507 278.865 937.467 278.661 947.515C277.198 949.145 277.009 950.648 278.097 952.025C276.24 954.084 273.985 955.588 271.332 956.535C252.733 955.597 233.94 955.033 214.955 954.844C213.175 953.61 211.296 952.67 209.317 952.025C208.392 949.418 207.453 946.787 206.498 944.132C206.31 814.276 205.746 684.607 204.807 555.127C206.537 531.784 219.129 519.005 242.58 516.791C260.148 517.465 272.551 525.734 279.789 541.597C281.406 558.445 281.969 575.358 281.48 592.337C310.044 592.337 338.61 592.337 367.174 592.337C364.037 605.659 362.534 619.189 362.664 632.928C356.264 632.741 349.874 632.93 343.495 633.492C342.932 634.056 342.368 634.62 341.804 635.184C341.052 715.24 341.052 795.296 341.804 875.352C351.292 876.46 360.876 876.837 370.557 876.479Z" fill="#1A2130"/>
<path fill-rule="evenodd" clip-rule="evenodd" d="M434.826 902.413C434.641 905.443 434.83 908.45 435.39 911.433C435.751 900.334 436.315 889.246 437.081 878.17C437.194 875.575 437.946 873.32 439.337 871.405C438.442 868.663 438.067 866.031 438.209 863.512C439.103 862.289 439.855 860.973 440.464 859.566C439.017 853.751 438.265 847.738 438.209 841.525C440.309 779.504 442.564 717.489 444.974 655.479C444.786 648.339 444.599 641.197 444.411 634.056C444.035 633.304 443.658 632.553 443.283 631.801C442.833 632.058 442.646 632.434 442.719 632.928C437.721 629.63 433.022 630.007 428.625 634.056C427.014 666.009 425.134 697.958 422.987 729.898C419.301 743.496 410.469 748.57 396.49 745.12C391.011 742.648 387.064 738.702 384.65 733.28C384.856 693.8 385.983 654.336 388.033 614.887C392.435 582.919 409.912 562.06 440.464 552.308C445.35 551.556 450.237 551.556 455.122 552.308C466.45 562.673 479.604 569.814 494.587 573.732C510.087 576.888 525.121 575.385 539.689 569.222C549.088 564.149 558.108 558.511 566.75 552.308C588.03 549.888 605.13 557.217 618.053 574.296C627.4 586.23 633.037 599.76 634.967 614.887C636.132 651.372 637.824 687.829 640.04 724.26C638.522 741.577 629.125 748.53 611.852 745.12C604.376 741.273 600.43 735.072 600.012 726.515C598.293 696.06 596.414 665.616 594.375 635.183C592.179 630.609 588.608 628.918 583.663 630.109C582.309 631.128 581.368 632.442 580.844 634.056C582.273 732.935 585.092 831.784 589.301 930.602C591.612 961.181 577.706 974.524 547.581 970.63C536.15 966.344 529.198 958.264 526.722 946.387C524.005 890.35 520.998 834.348 517.701 778.382C513.016 773.642 508.882 774.017 505.298 779.51C501.887 832.102 498.881 884.721 496.278 937.367C493.909 964.16 479.439 975.247 452.867 970.63C442.484 966.234 435.907 958.53 433.135 947.515C432.446 932.266 433.01 917.232 434.826 902.413Z" fill="#F5B623"/>
<path d="M563 505C563 533.995 539.495 557.5 510.5 557.5C481.505 557.5 458 533.995 458 505C458 476.005 481.505 452.5 510.5 452.5C539.495 452.5 563 476.005 563 505Z" fill="#F5B623"/>
<path fill-rule="evenodd" clip-rule="evenodd" d="M741.521 592.337C713.066 593.099 684.501 593.85 655.827 594.592C655.702 593.896 655.326 593.332 654.699 592.901C683.638 592.337 712.577 592.148 741.521 592.337Z" fill="#02040D"/>
<path fill-rule="evenodd" clip-rule="evenodd" d="M281.48 632.928C292.38 632.928 303.279 632.928 314.179 632.928C314.179 714.112 314.179 795.296 314.179 876.479C303.279 876.479 292.38 876.479 281.48 876.479C281.48 795.296 281.48 714.112 281.48 632.928Z" fill="white"/>
<path fill-rule="evenodd" clip-rule="evenodd" d="M709.949 632.928C720.473 632.928 730.997 632.928 741.521 632.928C741.521 714.112 741.521 795.296 741.521 876.479C730.997 876.479 720.473 876.479 709.949 876.479C709.949 795.296 709.949 714.112 709.949 632.928Z" fill="white"/>
<path fill-rule="evenodd" clip-rule="evenodd" d="M434.827 902.413C437.639 812.589 440.269 722.76 442.719 632.928C442.646 632.434 442.833 632.058 443.283 631.801C443.659 632.553 444.035 633.304 444.411 634.056C444.599 641.197 444.786 648.339 444.974 655.479C442.564 717.489 440.309 779.504 438.209 841.525C438.266 847.738 439.018 853.751 440.464 859.566C439.855 860.973 439.103 862.289 438.209 863.512C438.067 866.031 438.443 868.663 439.337 871.405C437.946 873.32 437.194 875.575 437.082 878.17C436.315 889.246 435.751 900.334 435.39 911.433C434.83 908.45 434.642 905.443 434.827 902.413Z" fill="#F4B026"/>
<path fill-rule="evenodd" clip-rule="evenodd" d="M791.133 519.046C805.518 523.099 814.351 532.495 817.63 547.235C818.565 680.331 818.378 813.381 817.066 946.387C816.127 812.774 815.563 678.971 815.375 544.979C813.714 540.155 811.459 535.644 808.61 531.449C802.994 525.839 797.169 521.706 791.133 519.046Z" fill="#101521"/>
<path fill-rule="evenodd" clip-rule="evenodd" d="M204.807 555.127C205.746 684.607 206.31 814.276 206.498 944.132C207.453 946.786 208.393 949.418 209.317 952.025C206.692 950.631 205.377 948.376 205.371 945.26C204.807 815.216 204.619 685.172 204.807 555.127Z" fill="#070B15"/>
<path fill-rule="evenodd" clip-rule="evenodd" d="M372.81 760.341C372.058 799.054 371.307 837.767 370.555 876.479C370.179 837.384 370.555 798.295 371.682 759.214C372.367 759.354 372.742 759.729 372.81 760.341Z" fill="#D3D4D6"/>
<path fill-rule="evenodd" clip-rule="evenodd" d="M650.189 760.341C651.314 798.862 651.691 837.574 651.316 876.479C650.925 838.46 649.797 800.499 647.934 762.597C649.061 762.221 649.813 761.469 650.189 760.341Z" fill="#02050D"/>
<path fill-rule="evenodd" clip-rule="evenodd" d="M372.812 760.341C380.406 767.052 389.238 771.563 399.309 773.872C399.873 808.073 400.061 842.275 399.873 876.479C403.256 876.479 406.638 876.479 410.021 876.479C409.083 885.843 408.707 895.239 408.893 904.668C407.775 896.231 407.399 887.588 407.766 878.734C404.175 879.275 400.979 878.524 398.182 876.479C397.618 842.278 397.43 808.076 397.618 773.872C388.562 772.796 380.481 769.414 373.376 763.724C373.187 801.691 372.623 839.651 371.684 877.607C371 877.467 370.624 877.091 370.557 876.479C371.309 837.767 372.06 799.053 372.812 760.341Z" fill="#15171E"/>
<path fill-rule="evenodd" clip-rule="evenodd" d="M650.188 760.341C650.255 759.729 650.631 759.354 651.315 759.214C652.443 798.295 652.818 837.384 652.443 876.479C652.067 876.479 651.691 876.479 651.315 876.479C651.689 837.574 651.313 798.862 650.188 760.341Z" fill="#D7D8DA"/>
<path fill-rule="evenodd" clip-rule="evenodd" d="M408.892 917.071C366.613 918.196 324.142 918.573 281.479 918.198C281.666 927.602 281.479 936.998 280.915 946.387C279.96 948.296 279.021 950.176 278.096 952.025C277.008 950.648 277.196 949.145 278.66 947.515C278.864 937.467 279.428 927.506 280.351 917.635C322.445 917.071 364.54 916.882 406.637 917.071C406.456 915.155 406.644 913.275 407.201 911.433C407.424 913.555 407.988 915.434 408.892 917.071Z" fill="#050913"/>
<path fill-rule="evenodd" clip-rule="evenodd" d="M209.316 952.025C211.295 952.67 213.175 953.61 214.954 954.844C233.94 955.033 252.733 955.597 271.332 956.535C252.16 956.723 232.992 956.535 213.827 955.971C211.77 955.227 210.267 953.911 209.316 952.025Z" fill="#000109"/>
<path fill-rule="evenodd" clip-rule="evenodd" d="M815.937 948.642C814.707 951.944 812.452 954.386 809.172 955.971C789.251 956.723 769.332 956.723 749.412 955.971C745.488 953.381 743.233 949.81 742.646 945.26C742.459 936.231 742.646 927.211 743.21 918.198C743.586 927.594 743.962 936.991 744.338 946.387C745.552 950.236 747.995 953.054 751.667 954.844C770.46 955.596 789.251 955.596 808.044 954.844C811.239 953.153 813.682 950.709 815.373 947.515C815.823 947.772 816.01 948.148 815.937 948.642Z" fill="#060710"/>
</svg>
