<svg width="1024" height="1024" viewBox="0 0 1024 1024" fill="none" xmlns="http://www.w3.org/2000/svg">
<path fill-rule="evenodd" clip-rule="evenodd" d="M422.5 199.5C422.5 198.167 422.5 196.833 422.5 195.5C371.045 198.134 320.045 194.468 269.5 184.5C261.244 182.92 253.077 180.587 245 177.5C243.877 174.044 244.71 171.21 247.5 169C251.756 167.193 256.089 165.693 260.5 164.5C264.57 122.85 286.904 97.0168 327.5 87C374.948 81.3069 407.115 100.807 424 145.5C426.939 153.257 428.939 161.257 430 169.5C436.806 171.992 443.639 174.492 450.5 177C455.416 178.848 456.583 182.014 454 186.5C451.592 188.956 448.759 190.789 445.5 192C438.32 194.141 430.986 195.308 423.5 195.5C423.768 197.099 423.434 198.432 422.5 199.5Z" fill="#0285D0"/>
<path fill-rule="evenodd" clip-rule="evenodd" d="M269.5 184.5C320.045 194.468 371.045 198.134 422.5 195.5C422.5 196.833 422.5 198.167 422.5 199.5C419.479 227.721 406.146 249.555 382.5 265C341.488 282.955 306.988 274.455 279 239.5C268.256 224.121 264.256 207.121 267 188.5C267.122 186.563 267.955 185.23 269.5 184.5Z" fill="#FECE01"/>
<path fill-rule="evenodd" clip-rule="evenodd" d="M249.5 274.5C260.102 278.003 266.269 285.337 268 296.5C271.413 321.932 263.913 343.432 245.5 361C236.839 367.749 227.173 369.916 216.5 367.5C217.787 363.519 218.12 359.519 217.5 355.5C204.536 359.766 191.536 363.932 178.5 368C162.874 394.084 147.374 420.251 132 446.5C118.615 462.205 103.115 464.705 85.4995 454C73.8777 444.677 70.0444 432.843 73.9995 418.5C91.7465 386.671 109.747 355.004 128 323.5C132.714 317.44 138.548 312.94 145.5 310C180.09 297.859 214.757 286.026 249.5 274.5Z" fill="#FECF01"/>
<path fill-rule="evenodd" clip-rule="evenodd" d="M300.5 273.5C321.7 283.382 344.034 288.382 367.5 288.5C359.711 311.547 350.378 333.881 339.5 355.5C338.21 356.058 337.377 357.058 337 358.5C323.54 330.297 311.373 301.964 300.5 273.5Z" fill="#FECF01"/>
<path fill-rule="evenodd" clip-rule="evenodd" d="M384.5 296.5C389.77 299.935 394.27 304.269 398 309.5C412.627 335.92 427.127 362.42 441.5 389C468.874 393.482 496.208 398.148 523.5 403C538.364 410.227 544.698 422.06 542.5 438.5C517.134 438.195 491.801 438.528 466.5 439.5C459.178 441.799 456.178 446.799 457.5 454.5C457.5 454.833 457.5 455.167 457.5 455.5C441.033 453.04 424.7 449.873 408.5 446C398.494 441.661 390.661 434.828 385 425.5C383.359 431.859 381.859 438.192 380.5 444.5C368.421 442.931 356.421 440.931 344.5 438.5C343.158 437.207 341.491 436.374 339.5 436C299.559 428.682 259.559 421.682 219.5 415C216.633 414.199 213.966 414.366 211.5 415.5C211.167 415.5 210.833 415.5 210.5 415.5C211.181 405.399 212.515 395.399 214.5 385.5C223.689 388.199 233.022 390.366 242.5 392C269.715 396.413 296.715 401.246 323.5 406.5C342.619 410.8 361.952 414.466 381.5 417.5C383.115 416.846 384.782 416.346 386.5 416C390.124 397.646 393.291 379.146 396 360.5C397.356 353.355 397.522 346.355 396.5 339.5C396.533 323.946 392.533 309.613 384.5 296.5Z" fill="#FECF01"/>
<path fill-rule="evenodd" clip-rule="evenodd" d="M298.5 273.5C299.167 273.5 299.833 273.5 300.5 273.5C311.373 301.964 323.54 330.297 337 358.5C337.377 357.058 338.21 356.058 339.5 355.5C338.97 357.924 338.136 360.257 337 362.5C323.488 333.132 310.655 303.465 298.5 273.5Z" fill="#F0D70A"/>
<path fill-rule="evenodd" clip-rule="evenodd" d="M298.5 273.5C310.655 303.465 323.488 333.132 337 362.5C338.136 360.257 338.97 357.924 339.5 355.5C350.378 333.881 359.711 311.547 367.5 288.5C373.81 289.822 379.476 292.488 384.5 296.5C392.533 309.613 396.533 323.946 396.5 339.5C393.57 364.608 389.903 389.608 385.5 414.5C382.216 415.657 378.882 415.824 375.5 415C358.192 411.932 340.859 409.099 323.5 406.5C296.715 401.246 269.715 396.413 242.5 392C233.022 390.366 223.689 388.199 214.5 385.5C215.385 379.526 216.051 373.526 216.5 367.5C227.173 369.916 236.839 367.749 245.5 361C263.913 343.432 271.413 321.932 268 296.5C266.269 285.337 260.102 278.003 249.5 274.5C263.334 268.317 277.668 267.151 292.5 271C294.811 271.236 296.811 272.069 298.5 273.5Z" fill="#41C150"/>
<path fill-rule="evenodd" clip-rule="evenodd" d="M912.5 438.5C900.5 438.5 888.5 438.5 876.5 438.5C876.334 429.827 876.5 421.16 877 412.5C878.5 411 880 409.5 881.5 408C890.167 407.333 898.833 407.333 907.5 408C908.931 408.465 910.097 409.299 911 410.5C912.445 419.726 912.945 429.06 912.5 438.5Z" fill="#FED005"/>
<path fill-rule="evenodd" clip-rule="evenodd" d="M396.5 339.5C397.522 346.355 397.356 353.355 396 360.5C393.291 379.146 390.124 397.646 386.5 416C384.782 416.346 383.115 416.846 381.5 417.5C361.952 414.466 342.619 410.8 323.5 406.5C340.859 409.099 358.192 411.932 375.5 415C378.882 415.824 382.216 415.657 385.5 414.5C389.903 389.608 393.57 364.608 396.5 339.5Z" fill="#F4D806"/>
<path fill-rule="evenodd" clip-rule="evenodd" d="M211.5 415.5C213.966 414.366 216.633 414.199 219.5 415C259.559 421.682 299.559 428.682 339.5 436C341.491 436.374 343.158 437.207 344.5 438.5C300.238 430.448 255.905 422.781 211.5 415.5Z" fill="#EFD709"/>
<path fill-rule="evenodd" clip-rule="evenodd" d="M457.5 455.5C457.333 509.834 457.5 564.168 458 618.5C458.377 619.942 459.21 620.942 460.5 621.5C462.12 623.984 464.453 625.484 467.5 626C477.244 626.806 486.911 626.639 496.5 625.5C496.5 625.833 496.5 626.167 496.5 626.5C496.5 633.5 496.5 640.5 496.5 647.5C486.828 647.334 477.161 647.5 467.5 648C462.772 649.396 460.272 652.562 460 657.5C459.333 666.167 459.333 674.833 460 683.5C460.889 687.112 463.055 689.612 466.5 691C476.494 691.5 486.494 691.666 496.5 691.5C496.5 699.167 496.5 706.833 496.5 714.5C475.546 704.357 454.88 693.69 434.5 682.5C434.667 662.497 434.5 642.497 434 622.5C431.393 610.953 426.393 600.62 419 591.5C400.86 567.209 383.36 542.542 366.5 517.5C367.965 513.976 368.965 510.309 369.5 506.5C371.677 497.281 373.343 487.948 374.5 478.5C377.118 467.396 379.118 456.062 380.5 444.5C381.859 438.192 383.359 431.859 385 425.5C390.661 434.828 398.494 441.661 408.5 446C424.7 449.873 441.033 453.04 457.5 455.5Z" fill="#FEFDFC"/>
<path fill-rule="evenodd" clip-rule="evenodd" d="M542.5 438.5C653.833 438.5 765.167 438.5 876.5 438.5C888.5 438.5 900.5 438.5 912.5 438.5C922.539 438.242 932.539 438.576 942.5 439.5C942.631 440.239 942.464 440.906 942 441.5C783.402 440.834 624.902 440.167 466.5 439.5C491.801 438.528 517.134 438.195 542.5 438.5Z" fill="#F73E1A"/>
<path fill-rule="evenodd" clip-rule="evenodd" d="M466.5 439.5C624.902 440.167 783.402 440.834 942 441.5C942.464 440.906 942.631 440.239 942.5 439.5C947.037 441.367 949.704 444.701 950.5 449.5C949.667 504.665 949.167 559.998 949 615.5C947.807 617.886 946.64 620.22 945.5 622.5C945.167 623.5 944.5 624.167 943.5 624.5C942.903 623.861 942.07 623.528 941 623.5C804.683 624.163 668.516 624.829 532.5 625.5C520.5 625.5 508.5 625.5 496.5 625.5C486.911 626.639 477.244 626.806 467.5 626C464.453 625.484 462.12 623.984 460.5 621.5C460.291 620.078 459.791 618.745 459 617.5C458.833 562.998 458.333 508.665 457.5 454.5C456.178 446.799 459.178 441.799 466.5 439.5Z" fill="#F6461D"/>
<path d="M773.643 569.451H795.969V577.798H773.643V569.451ZM774.438 588.531H799.679V597.143H763.771V550.768H798.818V559.381H774.438V588.531Z" fill="white"/>
<path d="M710.267 597.143V550.768H719.144L746.506 584.158H742.199V550.768H752.799V597.143H743.988L716.56 563.753H720.867V597.143H710.267Z" fill="white"/>
<path d="M676.892 597.938C673.227 597.938 669.826 597.342 666.69 596.15C663.598 594.957 660.904 593.279 658.607 591.115C656.355 588.95 654.588 586.411 653.307 583.496C652.07 580.581 651.452 577.401 651.452 573.956C651.452 570.511 652.07 567.331 653.307 564.416C654.588 561.501 656.377 558.961 658.673 556.797C660.97 554.633 663.664 552.954 666.756 551.762C669.848 550.569 673.204 549.973 676.826 549.973C680.492 549.973 683.849 550.569 686.896 551.762C689.988 552.954 692.66 554.633 694.913 556.797C697.209 558.961 698.998 561.501 700.279 564.416C701.56 567.286 702.2 570.466 702.2 573.956C702.2 577.401 701.56 580.603 700.279 583.562C698.998 586.477 697.209 589.017 694.913 591.181C692.66 593.301 689.988 594.957 686.896 596.15C683.849 597.342 680.514 597.938 676.892 597.938ZM676.826 588.796C678.902 588.796 680.801 588.442 682.524 587.736C684.29 587.029 685.836 586.013 687.161 584.688C688.486 583.363 689.502 581.795 690.209 579.984C690.96 578.174 691.335 576.164 691.335 573.956C691.335 571.747 690.96 569.738 690.209 567.927C689.502 566.116 688.486 564.548 687.161 563.223C685.88 561.898 684.357 560.882 682.59 560.175C680.823 559.469 678.902 559.115 676.826 559.115C674.75 559.115 672.829 559.469 671.062 560.175C669.34 560.882 667.816 561.898 666.491 563.223C665.166 564.548 664.128 566.116 663.377 567.927C662.671 569.738 662.317 571.747 662.317 573.956C662.317 576.12 662.671 578.129 663.377 579.984C664.128 581.795 665.144 583.363 666.425 584.688C667.75 586.013 669.296 587.029 671.062 587.736C672.829 588.442 674.75 588.796 676.826 588.796Z" fill="white"/>
<path d="M607.392 597.143V590.187L636.078 555.604L637.403 559.513H607.922V550.768H646.943V557.724L618.323 592.307L616.998 588.398H647.937V597.143H607.392Z" fill="white"/>
<path d="M811.874 516.17V469.795H831.948C836.1 469.795 839.677 470.48 842.681 471.849C845.684 473.174 848.003 475.095 849.637 477.612C851.271 480.13 852.088 483.133 852.088 486.623C852.088 490.068 851.271 493.049 849.637 495.566C848.003 498.04 845.684 499.939 842.681 501.264C839.677 502.589 836.1 503.251 831.948 503.251H817.837L822.607 498.548V516.17H811.874ZM841.356 516.17L829.762 499.343H841.223L852.949 516.17H841.356ZM822.607 499.74L817.837 494.705H831.352C834.664 494.705 837.138 493.998 838.772 492.585C840.406 491.128 841.223 489.14 841.223 486.623C841.223 484.061 840.406 482.073 838.772 480.66C837.138 479.247 834.664 478.54 831.352 478.54H817.837L822.607 473.439V499.74Z" fill="white"/>
<path d="M777.298 488.478H799.625V496.825H777.298V488.478ZM778.093 507.558H803.335V516.17H767.427V469.795H802.473V478.407H778.093V507.558Z" fill="white"/>
<path d="M738.708 516.965C735.042 516.965 731.663 516.391 728.572 515.243C725.524 514.05 722.852 512.372 720.555 510.208C718.303 508.044 716.536 505.504 715.255 502.589C714.019 499.674 713.4 496.472 713.4 492.983C713.4 489.493 714.019 486.291 715.255 483.376C716.536 480.461 718.325 477.922 720.622 475.757C722.918 473.593 725.613 471.937 728.704 470.789C731.796 469.596 735.197 469 738.907 469C743.014 469 746.702 469.684 749.971 471.054C753.283 472.423 756.066 474.41 758.318 477.016L751.428 483.376C749.75 481.61 747.917 480.307 745.929 479.467C743.942 478.584 741.778 478.142 739.437 478.142C737.184 478.142 735.131 478.496 733.276 479.202C731.421 479.909 729.808 480.925 728.439 482.25C727.114 483.575 726.076 485.143 725.326 486.954C724.619 488.765 724.265 490.774 724.265 492.983C724.265 495.147 724.619 497.134 725.326 498.945C726.076 500.756 727.114 502.346 728.439 503.715C729.808 505.04 731.398 506.056 733.209 506.763C735.064 507.469 737.096 507.823 739.304 507.823C741.424 507.823 743.478 507.491 745.466 506.829C747.497 506.122 749.463 504.952 751.362 503.318L757.457 511.069C754.94 512.968 752.002 514.426 748.646 515.442C745.333 516.457 742.021 516.965 738.708 516.965ZM747.652 509.678V492.254H757.457V511.069L747.652 509.678Z" fill="white"/>
<path d="M662.811 516.17V469.795H671.688L699.05 503.185H694.743V469.795H705.343V516.17H696.532L669.104 482.78H673.411V516.17H662.811Z" fill="white"/>
<path d="M605.992 516.17L626.662 469.795H637.262L657.999 516.17H646.736L629.776 475.227H634.016L616.99 516.17H605.992ZM616.327 506.233L619.176 498.084H643.026L645.941 506.233H616.327Z" fill="white"/>
<path d="M558 516.17V469.795H579.068C584.103 469.795 588.542 470.767 592.384 472.71C596.227 474.609 599.23 477.281 601.394 480.726C603.558 484.171 604.64 488.257 604.64 492.983C604.64 497.664 603.558 501.75 601.394 505.239C599.23 508.684 596.227 511.378 592.384 513.322C588.542 515.221 584.103 516.17 579.068 516.17H558ZM568.733 507.359H578.538C581.629 507.359 584.301 506.785 586.554 505.636C588.851 504.444 590.617 502.766 591.854 500.601C593.135 498.437 593.775 495.898 593.775 492.983C593.775 490.023 593.135 487.484 591.854 485.364C590.617 483.2 588.851 481.543 586.554 480.395C584.301 479.203 581.629 478.606 578.538 478.606H568.733V507.359Z" fill="white"/>
<path fill-rule="evenodd" clip-rule="evenodd" d="M210.5 415.5C210.833 415.5 211.167 415.5 211.5 415.5C255.905 422.781 300.238 430.448 344.5 438.5C356.421 440.931 368.421 442.931 380.5 444.5C379.118 456.062 377.118 467.396 374.5 478.5C317.842 469.263 261.175 459.929 204.5 450.5C206.101 438.645 208.101 426.978 210.5 415.5Z" fill="#41C150"/>
<path fill-rule="evenodd" clip-rule="evenodd" d="M204.5 450.5C261.175 459.929 317.842 469.263 374.5 478.5C373.343 487.948 371.677 497.281 369.5 506.5C313.153 496.942 256.82 487.275 200.5 477.5C201.725 468.481 203.059 459.481 204.5 450.5Z" fill="#FDD001"/>
<path fill-rule="evenodd" clip-rule="evenodd" d="M201.5 497.5C202.167 497.5 202.5 497.833 202.5 498.5C203.626 500.453 205.292 501.953 207.5 503C250.51 510.557 293.51 518.224 336.5 526C343.459 527.331 350.459 527.664 357.5 527C359.996 525.669 361.996 523.836 363.5 521.5C363.738 519.596 364.738 518.262 366.5 517.5C383.36 542.542 400.86 567.209 419 591.5C426.393 600.62 431.393 610.953 434 622.5C434.5 642.497 434.667 662.497 434.5 682.5C433.753 720.159 433.253 757.826 433 795.5C432.59 796.901 432.09 798.234 431.5 799.5C424.441 805.858 416.108 809.191 406.5 809.5C393.988 808.777 381.322 808.11 368.5 807.5C367.274 807.52 366.274 807.853 365.5 808.5C363.597 808.204 361.93 807.537 360.5 806.5C356.47 803.823 351.97 800.823 347 797.5C346.667 745.5 346.333 693.5 346 641.5C345.75 638.246 344.75 635.246 343 632.5C342.31 631.262 341.81 631.262 341.5 632.5C340.833 632.167 340.167 631.833 339.5 631.5C322.35 609.894 305.184 588.227 288 566.5C277.35 596.757 266.85 627.09 256.5 657.5C254.945 660.94 253.112 664.273 251 667.5C220.857 700.132 191.69 733.466 163.5 767.5C158.806 771.527 154.473 775.86 150.5 780.5C142.16 778.998 134.493 775.831 127.5 771C117.029 764.008 107.195 756.175 97.9998 747.5C90.3317 738.161 87.3317 727.494 88.9998 715.5C90.1762 713.804 91.3428 712.138 92.4998 710.5C116.949 680.639 142.115 651.306 168 622.5C179.04 580.663 190.207 538.996 201.5 497.5Z" fill="#FECF00"/>
<path fill-rule="evenodd" clip-rule="evenodd" d="M200.5 477.5C256.82 487.275 313.153 496.942 369.5 506.5C368.965 510.309 367.965 513.976 366.5 517.5C364.738 518.262 363.738 519.596 363.5 521.5C360.832 523.501 357.832 525.001 354.5 526C352.167 526.667 349.833 526.667 347.5 526C303.146 518.441 258.813 510.774 214.5 503C210.17 502.333 206.17 500.833 202.5 498.5C202.5 497.833 202.167 497.5 201.5 497.5C198.024 491.016 197.691 484.349 200.5 477.5Z" fill="#41C150"/>
<path fill-rule="evenodd" clip-rule="evenodd" d="M202.5 498.5C206.17 500.833 210.17 502.333 214.5 503C258.813 510.774 303.146 518.441 347.5 526C349.833 526.667 352.167 526.667 354.5 526C357.832 525.001 360.832 523.501 363.5 521.5C361.996 523.836 359.996 525.669 357.5 527C350.459 527.664 343.459 527.331 336.5 526C293.51 518.224 250.51 510.557 207.5 503C205.292 501.953 203.626 500.453 202.5 498.5Z" fill="#F4D905"/>
<path fill-rule="evenodd" clip-rule="evenodd" d="M457.5 454.5C458.333 508.665 458.833 562.998 459 617.5C459.791 618.745 460.291 620.078 460.5 621.5C459.21 620.942 458.377 619.942 458 618.5C457.5 564.168 457.333 509.834 457.5 455.5C457.5 455.167 457.5 454.833 457.5 454.5Z" fill="#F50D00"/>
<path fill-rule="evenodd" clip-rule="evenodd" d="M950.5 449.5C950.667 505.168 950.5 560.834 950 616.5C949.434 619.229 947.934 621.229 945.5 622.5C946.64 620.22 947.807 617.886 949 615.5C949.167 559.998 949.667 504.665 950.5 449.5Z" fill="#F61701"/>
<path fill-rule="evenodd" clip-rule="evenodd" d="M339.5 631.5C311.913 640.138 284.246 648.805 256.5 657.5C266.85 627.09 277.35 596.757 288 566.5C305.184 588.227 322.35 609.894 339.5 631.5Z" fill="#FEFEFD"/>
<path fill-rule="evenodd" clip-rule="evenodd" d="M943.5 624.5C933.218 625.452 922.885 625.786 912.5 625.5C900.5 625.5 888.5 625.5 876.5 625.5C761.833 625.5 647.167 625.5 532.5 625.5C668.516 624.829 804.683 624.163 941 623.5C942.07 623.528 942.903 623.861 943.5 624.5Z" fill="#F51002"/>
<path fill-rule="evenodd" clip-rule="evenodd" d="M496.5 626.5C496.5 626.167 496.5 625.833 496.5 625.5C508.5 625.5 520.5 625.5 532.5 625.5C532.5 632.833 532.5 640.167 532.5 647.5C531.509 640.687 531.175 633.687 531.5 626.5C519.833 626.5 508.167 626.5 496.5 626.5Z" fill="#F8DB42"/>
<path fill-rule="evenodd" clip-rule="evenodd" d="M532.5 625.5C647.167 625.5 761.833 625.5 876.5 625.5C876.5 632.833 876.5 640.167 876.5 647.5C761.833 647.5 647.167 647.5 532.5 647.5C532.5 640.167 532.5 632.833 532.5 625.5Z" fill="#FFFCFB"/>
<path fill-rule="evenodd" clip-rule="evenodd" d="M876.5 625.5C888.5 625.5 900.5 625.5 912.5 625.5C912.5 632.833 912.5 640.167 912.5 647.5C923.603 647.046 934.603 647.546 945.5 649C947.726 650.227 949.226 652.061 950 654.5C950.667 664.5 950.667 674.5 950 684.5C949.167 688 947 690.167 943.5 691C933.172 691.5 922.839 691.666 912.5 691.5C912.5 721.5 912.5 751.5 912.5 781.5C912.5 792.167 912.5 802.833 912.5 813.5C912.666 823.172 912.5 832.839 912 842.5C911.727 844.329 910.893 845.829 909.5 847C900.602 848.609 891.602 848.942 882.5 848C881.058 847.623 880.058 846.79 879.5 845.5C879.192 824.185 878.192 803.185 876.5 782.5C876.5 781.833 876.5 781.167 876.5 780.5C876.5 750.833 876.5 721.167 876.5 691.5C761.833 691.5 647.167 691.5 532.5 691.5C532.5 705.167 532.5 718.833 532.5 732.5C532.667 768.502 532.5 804.502 532 840.5C531.394 843.548 529.894 846.048 527.5 848C519.167 848.667 510.833 848.667 502.5 848C499.619 846.749 497.786 844.583 497 841.5C496.5 799.168 496.333 756.835 496.5 714.5C496.5 706.833 496.5 699.167 496.5 691.5C486.494 691.666 476.494 691.5 466.5 691C463.055 689.612 460.889 687.112 460 683.5C459.333 674.833 459.333 666.167 460 657.5C460.272 652.562 462.772 649.396 467.5 648C477.161 647.5 486.828 647.334 496.5 647.5C496.5 640.5 496.5 633.5 496.5 626.5C508.167 626.5 519.833 626.5 531.5 626.5C531.175 633.687 531.509 640.687 532.5 647.5C647.167 647.5 761.833 647.5 876.5 647.5C876.5 640.167 876.5 632.833 876.5 625.5Z" fill="#FECF04"/>
<path fill-rule="evenodd" clip-rule="evenodd" d="M339.5 631.5C340.167 631.833 340.833 632.167 341.5 632.5C342.594 634.359 343.427 636.359 344 638.5C344.171 691.904 344.671 745.237 345.5 798.5C344.67 808.325 344.17 818.325 344 828.5C342.708 827.209 341.542 827.209 340.5 828.5C281.595 807.881 222.595 787.547 163.5 767.5C191.69 733.466 220.857 700.132 251 667.5C253.112 664.273 254.945 660.94 256.5 657.5C284.246 648.805 311.913 640.138 339.5 631.5Z" fill="#E06E24"/>
<path fill-rule="evenodd" clip-rule="evenodd" d="M360.5 806.5C355.051 804.61 350.051 801.943 345.5 798.5C344.671 745.237 344.171 691.904 344 638.5C343.427 636.359 342.594 634.359 341.5 632.5C341.81 631.262 342.31 631.262 343 632.5C344.75 635.246 345.75 638.246 346 641.5C346.333 693.5 346.667 745.5 347 797.5C351.97 800.823 356.47 803.823 360.5 806.5Z" fill="#FDDE01"/>
<path fill-rule="evenodd" clip-rule="evenodd" d="M876.5 780.5C789.493 779.077 702.493 777.244 615.5 775C587.567 761.367 559.9 747.2 532.5 732.5C532.5 718.833 532.5 705.167 532.5 691.5C647.167 691.5 761.833 691.5 876.5 691.5C876.5 721.167 876.5 750.833 876.5 780.5Z" fill="#FEFEFE"/>
<path fill-rule="evenodd" clip-rule="evenodd" d="M92.5 710.5C91.343 712.138 90.1764 713.804 89 715.5C87.3319 727.494 90.3319 738.161 98 747.5C107.195 756.175 117.029 764.008 127.5 771C134.493 775.831 142.16 778.998 150.5 780.5C149.697 781.423 149.53 782.423 150 783.5C165.59 796.384 167.423 810.884 155.5 827C146.11 835.427 136.11 836.427 125.5 830C106 811.167 86.5 792.333 67 773.5C60.1893 764.956 58.5226 755.622 62 745.5C64.9798 741.686 68.1465 738.019 71.5 734.5C61.828 731.443 52.1613 728.276 42.5 725C59.1617 720.056 75.8284 715.223 92.5 710.5Z" fill="#057BD1"/>
<path d="M92.5 710.5L42.4209 725L71.4209 734.5L89 715.5L92.5 710.5Z" fill="#E06E24"/>
<path fill-rule="evenodd" clip-rule="evenodd" d="M912.5 781.5C923.518 781.557 934.518 782.057 945.5 783C934.63 793.372 923.63 803.539 912.5 813.5C912.5 802.833 912.5 792.167 912.5 781.5Z" fill="#FD741B"/>
<path fill-rule="evenodd" clip-rule="evenodd" d="M876.5 782.5C878.192 803.185 879.192 824.185 879.5 845.5C879.167 845.5 878.833 845.5 878.5 845.5C878.013 844.527 877.513 843.527 877 842.5C876.5 822.503 876.333 802.503 876.5 782.5Z" fill="#FEE203"/>
<path fill-rule="evenodd" clip-rule="evenodd" d="M345.5 798.5C350.051 801.943 355.051 804.61 360.5 806.5C361.93 807.537 363.597 808.204 365.5 808.5C379.13 809.446 392.797 809.78 406.5 809.5C416.108 809.191 424.441 805.858 431.5 799.5C441.586 801.043 450.586 805.043 458.5 811.5C465.803 820.912 467.303 831.246 463 842.5C460.894 846.604 458.061 850.104 454.5 853C443.931 854.287 433.265 854.954 422.5 855C427.359 856.489 431.359 858.322 434.5 860.5C429.09 858.974 423.756 857.141 418.5 855C397.782 854.954 377.116 854.287 356.5 853C353.098 851.6 350.264 849.433 348 846.5C346.001 841.02 344.834 835.354 344.5 829.5C343.041 829.567 341.708 829.234 340.5 828.5C341.542 827.209 342.708 827.209 344 828.5C344.17 818.325 344.67 808.325 345.5 798.5Z" fill="#057BD1"/>
<path fill-rule="evenodd" clip-rule="evenodd" d="M365.5 808.5C366.274 807.853 367.274 807.52 368.5 807.5C381.322 808.11 393.988 808.777 406.5 809.5C392.797 809.78 379.13 809.446 365.5 808.5Z" fill="#FEF601"/>
<path fill-rule="evenodd" clip-rule="evenodd" d="M434.5 682.5C454.88 693.69 475.546 704.357 496.5 714.5C496.333 756.835 496.5 799.168 497 841.5C497.786 844.583 499.619 846.749 502.5 848C510.833 848.667 519.167 848.667 527.5 848C529.894 846.048 531.394 843.548 532 840.5C532.5 804.502 532.667 768.502 532.5 732.5C559.9 747.2 587.567 761.367 615.5 775C702.493 777.244 789.493 779.077 876.5 780.5C876.5 781.167 876.5 781.833 876.5 782.5C876.333 802.503 876.5 822.503 877 842.5C877.513 843.527 878.013 844.527 878.5 845.5C832.963 886.127 787.963 927.461 743.5 969.5C640.335 933.407 537.335 897.074 434.5 860.5C431.359 858.322 427.359 856.489 422.5 855C433.265 854.954 443.931 854.287 454.5 853C458.061 850.104 460.894 846.604 463 842.5C467.303 831.246 465.803 820.912 458.5 811.5C450.586 805.043 441.586 801.043 431.5 799.5C432.09 798.234 432.59 796.901 433 795.5C433.253 757.826 433.753 720.159 434.5 682.5Z" fill="#FD741B"/>
<path fill-rule="evenodd" clip-rule="evenodd" d="M702.95 118.188C718.486 116.955 731.726 121.791 742.67 132.694C774.157 179.779 805.472 226.982 836.616 274.304C848.106 294.898 845.689 313.665 829.363 330.602C821.379 337.257 812.168 340.941 801.732 341.654C739.101 342.115 676.471 342.115 613.84 341.654C596.481 338.107 584.622 328.091 578.265 311.606C574.356 299.366 575.507 287.622 581.719 276.376C612.343 229.864 642.968 183.351 673.592 136.839C681.362 127.323 691.148 121.106 702.95 118.188Z" fill="#FCFBFB"/>
<path fill-rule="evenodd" clip-rule="evenodd" d="M765.811 198.318C779.969 221.678 794.935 244.474 810.712 266.705C815.357 272.985 819.847 279.433 824.182 286.047C829.644 300.708 826.075 312.566 813.475 321.622C810.995 322.679 808.462 323.6 805.876 324.385C742.349 325.527 678.797 325.758 615.222 325.076C598.212 320.266 590.959 309.098 593.462 291.573C594.424 288.958 595.575 286.425 596.916 283.974C627.077 239.316 656.55 194.185 685.336 148.582C696.592 133.928 710.293 131.05 726.437 139.947C728.625 142.135 730.812 144.322 732.999 146.509C744.297 163.584 755.234 180.854 765.811 198.318Z" fill="#E96D32"/>
<path fill-rule="evenodd" clip-rule="evenodd" d="M692.589 288.81C684.881 288.236 677.051 287.89 669.103 287.774C666.929 287.165 664.856 286.36 662.886 285.356C654.633 276.325 655.784 268.495 666.339 261.869C669.427 248.234 671.614 234.419 672.902 220.423C676.318 205.492 685.414 195.937 700.188 191.756C698.505 185.288 700.577 180.452 706.405 177.249C713.025 175.781 717.515 178.198 719.875 184.502C720.219 187.256 720.335 190.019 720.22 192.792C735.602 196.78 744.697 206.681 747.506 222.495C748.62 235.247 750.347 247.911 752.687 260.488C755.837 262.595 758.715 265.128 761.321 268.086C764.505 275.807 762.548 281.91 755.45 286.392C746.06 287.391 736.619 287.736 727.128 287.428C724.807 296.67 718.821 301.735 709.168 302.625C700.842 301.245 695.316 296.64 692.589 288.81Z" fill="#FDFCFB"/>
<path fill-rule="evenodd" clip-rule="evenodd" d="M704.332 207.298C717.823 205.574 726.687 211.1 730.927 223.876C732.667 239.38 734.855 254.808 737.49 270.159C719.075 270.849 700.654 271.079 682.228 270.849C684.999 254.787 687.417 238.668 689.481 222.495C692.257 215.229 697.208 210.163 704.332 207.298Z" fill="#E96D31"/>
<path fill-rule="evenodd" clip-rule="evenodd" d="M765.812 198.318C781.046 220.923 796.013 243.719 810.713 266.705C794.936 244.474 779.97 221.678 765.812 198.318Z" fill="#E15621"/>
</svg>
