<svg width="1024" height="1024" viewBox="0 0 1024 1024" fill="none" xmlns="http://www.w3.org/2000/svg">
<g clip-path="url(#clip0_339_4400)">
<path fill-rule="evenodd" clip-rule="evenodd" d="M319.499 148.5C370.959 147.631 404.459 171.631 419.999 220.5C425.294 221.45 430.461 222.95 435.499 225C438.79 227.332 439.29 230.165 436.999 233.5C433.957 236.933 430.457 239.766 426.499 242C366.493 273.003 302.993 292.503 235.999 300.5C231.593 300.764 227.426 299.931 223.499 298C222.202 295.455 222.368 292.955 223.999 290.5C227.533 286.631 231.366 283.131 235.499 280C223.653 243.565 230.153 210.732 254.999 181.5C272.797 163.185 294.297 152.185 319.499 148.5Z" fill="#0185D1"/>
<path fill-rule="evenodd" clip-rule="evenodd" d="M325.5 182.5C328.238 181.965 330.072 182.965 331 185.5C333.667 194.167 336.333 202.833 339 211.5C340.512 216.656 338.846 218.323 334 216.5C330.728 206.186 327.562 195.853 324.5 185.5C324.685 184.416 325.018 183.416 325.5 182.5Z" fill="#F6FBFC"/>
<path fill-rule="evenodd" clip-rule="evenodd" d="M278.5 196.5C280.582 196.624 282.082 197.624 283 199.5C286 209.167 289 218.833 292 228.5C292.667 230.5 292.667 232.5 292 234.5C289.006 235.89 287.006 234.89 286 231.5C283.036 220.94 279.869 210.44 276.5 200C276.978 198.697 277.645 197.531 278.5 196.5Z" fill="#F4FAFC"/>
<path fill-rule="evenodd" clip-rule="evenodd" d="M382.5 356.5C361.152 369.836 338.152 373.669 313.5 368C305.733 365.694 298.399 362.527 291.5 358.5C273.526 347.085 262.193 331.252 257.5 311C313.655 302.392 367.155 285.558 418 260.5C426.385 300.197 414.552 332.197 382.5 356.5Z" fill="#FED10E"/>
<path fill-rule="evenodd" clip-rule="evenodd" d="M261.499 361.5C259.664 386.196 257.497 410.862 254.999 435.5C252.817 447.156 246.651 455.822 236.499 461.5C236.3 449.477 236.633 437.477 237.499 425.5C216.444 424.813 195.444 423.313 174.499 421C166.733 419.523 159.4 416.856 152.499 413C123.441 393.275 94.9408 372.775 66.9989 351.5C56.0555 335.01 57.2222 319.51 70.4989 305C84.9031 296.047 98.9031 296.714 112.499 307C133.989 322.912 155.656 338.578 177.499 354C182.982 355.954 188.648 356.954 194.499 357C216.998 358.359 239.331 359.859 261.499 361.5Z" fill="#52BE51"/>
<path fill-rule="evenodd" clip-rule="evenodd" d="M570.5 323.5C571.268 324.263 571.768 325.263 572 326.5C572.5 337.495 572.667 348.495 572.5 359.5C672.833 359.5 773.167 359.5 873.5 359.5C873.172 347.655 873.505 335.988 874.5 324.5C874.435 324.938 874.601 325.272 875 325.5C875.833 324 877 322.833 878.5 322C886.5 321.333 894.5 321.333 902.5 322C904.259 323.008 905.426 324.508 906 326.5C906.167 414.668 906.667 502.668 907.5 590.5C911.597 590.575 914.763 592.242 917 595.5C917.879 600.287 917.545 604.953 916 609.5C914.581 610.46 913.081 611.293 911.5 612C897.167 612.667 882.833 612.667 868.5 612C865.667 611.167 863.833 609.333 863 606.5C862.004 601.771 862.504 597.271 864.5 593C866.909 591.293 869.575 590.46 872.5 590.5C872.5 572.833 872.5 555.167 872.5 537.5C772.5 537.5 672.5 537.5 572.5 537.5C572.5 555.167 572.5 572.833 572.5 590.5C577.021 590.392 580.188 592.392 582 596.5C583.024 601.098 582.524 605.432 580.5 609.5C579.335 610.584 578.002 611.417 576.5 612C561.833 612.667 547.167 612.667 532.5 612C531.069 611.535 529.903 610.701 529 609.5C526.871 603.896 527.038 598.396 529.5 593C532.022 591.659 534.689 590.826 537.5 590.5C538.334 503.57 538.834 415.903 539 327.5C539.398 324.768 540.898 322.935 543.5 322C551.5 321.333 559.5 321.333 567.5 322C568.333 322.833 569.167 323.667 570 324.5C570.399 324.272 570.565 323.938 570.5 323.5Z" fill="#FE761E"/>
<path fill-rule="evenodd" clip-rule="evenodd" d="M261.501 361.5C265.847 361.334 270.18 361.501 274.501 362C292.447 396.724 310.28 431.557 328.001 466.5C327.983 476.824 327.817 487.157 327.501 497.5C296.807 496.929 266.14 495.929 235.501 494.5C235.173 483.321 235.506 472.321 236.501 461.5C246.653 455.822 252.819 447.156 255.001 435.5C257.499 410.862 259.666 386.196 261.501 361.5Z" fill="#FED10E"/>
<path fill-rule="evenodd" clip-rule="evenodd" d="M382.5 356.5C382.699 359.941 382.199 363.274 381 366.5C366.411 395.346 352.077 424.346 338 453.5C322.489 421.811 306.989 390.145 291.5 358.5C298.399 362.527 305.733 365.694 313.5 368C338.152 373.669 361.152 369.836 382.5 356.5Z" fill="#51BD51"/>
<path fill-rule="evenodd" clip-rule="evenodd" d="M412.499 365.5C413.499 401.5 414.499 437.5 415.499 473.5C416.414 482.46 416.747 491.46 416.499 500.5C392.817 500.341 369.15 499.674 345.499 498.5C345.408 488.804 345.908 479.137 346.999 469.5C364.909 434.762 382.242 399.762 398.999 364.5C399.892 363.919 400.892 363.585 401.999 363.5C405.5 364.234 409 364.9 412.499 365.5Z" fill="#FED10E"/>
<path fill-rule="evenodd" clip-rule="evenodd" d="M412.5 365.5C430.994 370.823 444.494 382.156 453 399.5C474.394 444.622 496.061 489.622 518 534.5C526.334 552.848 522.501 568.015 506.5 580C488.343 587.393 473.843 582.893 463 566.5C447.268 535.318 431.434 504.318 415.5 473.5C414.5 437.5 413.5 401.5 412.5 365.5Z" fill="#52BE51"/>
<path fill-rule="evenodd" clip-rule="evenodd" d="M768.5 390.5C802.996 391.498 837.663 391.832 872.5 391.5C872.5 408.5 872.5 425.5 872.5 442.5C772.5 442.5 672.5 442.5 572.5 442.5C572.5 425.167 572.5 407.833 572.5 390.5C637.833 390.5 703.167 390.5 768.5 390.5Z" fill="#FCFCFD"/>
<path fill-rule="evenodd" clip-rule="evenodd" d="M570.5 323.5C570.565 323.938 570.399 324.272 570 324.5C569.167 323.667 568.333 322.833 567.5 322C559.5 321.333 551.5 321.333 543.5 322C540.898 322.935 539.398 324.768 539 327.5C538.834 415.903 538.334 503.57 537.5 590.5C537.333 502.166 537.5 413.833 538 325.5C538.785 323.714 539.951 322.214 541.5 321C550.5 320.333 559.5 320.333 568.5 321C569.381 321.708 570.047 322.542 570.5 323.5Z" fill="#FE761E"/>
<path fill-rule="evenodd" clip-rule="evenodd" d="M872.5 390.5C837.833 390.5 803.167 390.5 768.5 390.5C703.167 390.5 637.833 390.5 572.5 390.5C572.5 407.833 572.5 425.167 572.5 442.5C672.5 442.5 772.5 442.5 872.5 442.5C873.497 425.675 873.83 408.675 873.5 391.5C874.831 408.902 874.831 426.402 873.5 444C772.832 444.833 672.165 444.667 571.5 443.5C570.172 425.637 570.172 407.804 571.5 390C672.001 389.167 772.334 389.334 872.5 390.5Z" fill="#FE761E"/>
<path fill-rule="evenodd" clip-rule="evenodd" d="M907.498 590.5C906.665 502.668 906.165 414.668 905.998 326.5C905.424 324.508 904.257 323.008 902.498 322C894.498 321.333 886.498 321.333 878.498 322C876.998 322.833 875.831 324 874.998 325.5C874.599 325.272 874.433 324.938 874.498 324.5C874.572 322.589 875.572 321.422 877.498 321C886.165 320.333 894.831 320.333 903.498 321C905.721 321.652 906.888 323.152 906.998 325.5C907.498 413.833 907.665 502.166 907.498 590.5Z" fill="#FE761E"/>
<path fill-rule="evenodd" clip-rule="evenodd" d="M871.5 516.5C836.5 516.5 801.5 516.5 766.5 516.5C701.833 516.5 637.167 516.5 572.5 516.5C572.5 502.167 572.5 487.833 572.5 473.5C672.5 473.5 772.5 473.5 872.5 473.5C872.829 488.01 872.496 502.343 871.5 516.5Z" fill="#FBFCFD"/>
<path fill-rule="evenodd" clip-rule="evenodd" d="M233.5 510.5C264.524 511.031 295.524 512.198 326.5 514C325.387 525.418 324.72 536.918 324.5 548.5C293.514 546.97 262.514 545.636 231.5 544.5C232.709 533.202 233.376 521.868 233.5 510.5Z" fill="#FED10E"/>
<path fill-rule="evenodd" clip-rule="evenodd" d="M344.501 514.5C368.501 515.167 392.501 515.833 416.501 516.5C416.501 528.167 416.501 539.833 416.501 551.5C391.831 550.954 367.164 550.288 342.501 549.5C342.467 537.779 343.134 526.112 344.501 514.5Z" fill="#FED10E"/>
<path fill-rule="evenodd" clip-rule="evenodd" d="M766.5 516.5C801.5 516.5 836.5 516.5 871.5 516.5C809.84 517.956 748.006 518.622 686 518.5C648.167 518.333 610.333 518.167 572.5 518C637.335 517.833 702.001 517.333 766.5 516.5Z" fill="#FE761E"/>
<path fill-rule="evenodd" clip-rule="evenodd" d="M351.5 778.5C332.5 765.167 313.5 751.833 294.5 738.5C294.196 737.85 293.863 737.183 293.5 736.5C311.893 713.381 329.06 689.381 345 664.5C345.667 661.5 345.667 658.5 345 655.5C341.134 639.701 336.8 624.034 332 608.5C326.366 606.373 321.699 607.707 318 612.5C307.608 636.285 296.941 659.952 286 683.5C280.871 697.948 272.038 709.448 259.5 718C234.969 730.182 210.802 743.015 187 756.5C186.617 755.944 186.117 755.611 185.5 755.5C179.862 743.541 173.862 731.874 167.5 720.5C163.262 710.355 158.262 700.688 152.5 691.5C152.443 690.391 152.11 689.391 151.5 688.5C168.782 678.187 186.449 668.354 204.5 659C208.241 657.262 211.408 654.762 214 651.5C220.976 621.117 226.476 590.45 230.5 559.5C292.816 562.527 355.149 565.194 417.5 567.5C417.891 601.034 419.224 634.534 421.5 668C422.543 683.4 418.043 696.9 408 708.5C389.951 730.88 372.285 753.547 355 776.5C354.184 777.823 353.017 778.489 351.5 778.5Z" fill="#FED20E"/>
<path fill-rule="evenodd" clip-rule="evenodd" d="M517.5 662.5C632.668 662.167 747.668 662.5 862.5 663.5C747.5 663.5 632.5 663.5 517.5 663.5C517.5 665.167 517.5 666.833 517.5 668.5C515.188 670.146 513.188 672.146 511.5 674.5C512.992 670.182 514.992 666.182 517.5 662.5Z" fill="#0074CE"/>
<path fill-rule="evenodd" clip-rule="evenodd" d="M862.5 663.5C861.527 686.501 860.527 709.501 859.5 732.5C746.167 732.5 632.833 732.5 519.5 732.5C518.833 711.167 518.167 689.833 517.5 668.5C517.5 666.833 517.5 665.167 517.5 663.5C632.5 663.5 747.5 663.5 862.5 663.5Z" fill="#008FD9"/>
<path fill-rule="evenodd" clip-rule="evenodd" d="M517.5 662.5C632.665 661.5 747.999 661.167 863.5 661.5C884.145 703.79 905.145 746.124 926.5 788.5C930.067 796.802 934.067 804.969 938.5 813C929.84 813.5 921.173 813.666 912.5 813.5C895.809 786.63 878.476 760.13 860.5 734C746.5 733.333 632.5 733.333 518.5 734C501.021 760.471 483.688 786.971 466.5 813.5C457.808 813.831 449.141 813.498 440.5 812.5C441.456 810.925 442.123 809.258 442.5 807.5C465.243 763.013 488.243 718.68 511.5 674.5C513.188 672.146 515.188 670.146 517.5 668.5C518.167 689.833 518.833 711.167 519.5 732.5C632.833 732.5 746.167 732.5 859.5 732.5C860.527 709.501 861.527 686.501 862.5 663.5C747.668 662.5 632.668 662.167 517.5 662.5Z" fill="#0277BB"/>
<path fill-rule="evenodd" clip-rule="evenodd" d="M151.499 688.5C152.109 689.391 152.442 690.391 152.499 691.5C153.688 695.217 155.188 698.884 156.999 702.5C160.273 708.727 163.773 714.727 167.499 720.5C173.861 731.874 179.861 743.541 185.499 755.5C183.686 757.814 181.686 759.981 179.499 762C182.379 773.007 183.545 784.174 182.999 795.5C179.16 809.507 169.993 815.674 155.499 814C148.456 811.621 143.289 807.121 139.999 800.5C128.621 776.076 116.954 751.742 104.999 727.5C101.665 718.011 104.165 710.511 112.499 705C125.52 699.488 138.52 693.988 151.499 688.5Z" fill="#0265A3"/>
<path fill-rule="evenodd" clip-rule="evenodd" d="M152.5 691.5C158.262 700.688 163.262 710.355 167.5 720.5C163.774 714.727 160.274 708.727 157 702.5C155.189 698.884 153.689 695.217 152.5 691.5Z" fill="#1550BF"/>
<path fill-rule="evenodd" clip-rule="evenodd" d="M912.5 813.5C763.833 813.5 615.167 813.5 466.5 813.5C483.688 786.971 501.021 760.471 518.5 734C632.5 733.333 746.5 733.333 860.5 734C878.476 760.13 895.809 786.63 912.5 813.5Z" fill="#0065A2"/>
<path fill-rule="evenodd" clip-rule="evenodd" d="M294.499 738.5C313.499 751.833 332.499 765.167 351.499 778.5C351.61 779.117 351.943 779.617 352.499 780C350.469 781.896 348.802 784.063 347.499 786.5C354.116 794.619 361.282 802.285 368.999 809.5C375.666 825.167 371.166 836.334 355.499 843C347.364 844.715 340.03 843.048 333.499 838C314.11 823.612 294.444 809.612 274.499 796C266.485 789.473 264.318 781.306 267.999 771.5C275.909 761.345 283.576 751.012 290.999 740.5C291.815 739.177 292.982 738.511 294.499 738.5Z" fill="#0264A3"/>
<path fill-rule="evenodd" clip-rule="evenodd" d="M926.5 788.5C931.647 796.786 936.313 805.453 940.5 814.5C772.834 815.667 605.168 815.833 437.5 815C438.818 812.176 440.485 809.676 442.5 807.5C442.123 809.258 441.456 810.925 440.5 812.5C449.141 813.498 457.808 813.831 466.5 813.5C615.167 813.5 763.833 813.5 912.5 813.5C921.173 813.666 929.84 813.5 938.5 813C934.067 804.969 930.067 796.802 926.5 788.5Z" fill="#0C5A9F"/>
<path fill-rule="evenodd" clip-rule="evenodd" d="M556.5 853.5C557.117 853.611 557.617 853.944 558 854.5C558.667 877.167 558.667 899.833 558 922.5C557.617 923.056 557.117 923.389 556.5 923.5C395.499 923.833 234.499 923.5 73.5 922.5C72.8435 911.044 72.5101 899.544 72.5 888C72.5051 876.593 72.8385 865.259 73.5 854C234.5 853.5 395.5 853.333 556.5 853.5Z" fill="#C8C8C8"/>
<path fill-rule="evenodd" clip-rule="evenodd" d="M557 853.02C396 852.853 235 853.02 74 853.52C73.3385 864.779 73.0051 876.113 73 887.52C73.0101 899.064 73.3435 910.564 74 922.02C234.999 923.02 395.999 923.353 557 923.02C395.833 924.353 234.499 924.353 73 923.02C72.3432 911.231 72.0098 899.397 72 887.52C72.005 875.78 72.3383 864.113 73 852.52C234.501 851.687 395.834 851.854 557 853.02Z" fill="#C8C8C8"/>
<path d="M686.177 251.706V234.059C686.177 230.81 688.81 228.177 692.059 228.177H797.941C801.19 228.177 803.824 230.81 803.824 234.059V251.706H842.059C843.684 251.706 845 253.023 845 254.647V260.529C845 262.154 843.683 263.471 842.059 263.471H647.941C646.316 263.471 645 262.154 645 260.529V254.647C645 253.023 646.317 251.706 647.941 251.706H686.177ZM697.941 187C697.941 161.009 719.007 139.941 745 139.941C770.991 139.941 792.059 161.007 792.059 187V219.353H697.941V187ZM774.412 184.059C774.412 169.44 762.561 157.588 747.941 157.588H745C743.375 157.588 742.059 158.905 742.059 160.529V166.412C742.059 168.036 743.376 169.353 745 169.353H747.941C756.063 169.353 762.647 175.937 762.647 184.058V186.999C762.647 188.624 763.964 189.94 765.588 189.94H771.47C773.095 189.94 774.411 188.624 774.411 186.999V184.059H774.412ZM674.412 181.118C677.661 181.118 680.294 183.751 680.294 187C680.294 190.249 677.661 192.883 674.412 192.883H650.882C647.634 192.882 645 190.249 645 187C645 183.752 647.634 181.118 650.882 181.118H674.412ZM839.118 181.118C842.366 181.118 845 183.751 845 187C845 190.249 842.366 192.883 839.118 192.883H815.588C812.339 192.883 809.706 190.249 809.706 187C809.706 183.751 812.339 181.118 815.588 181.118H839.118ZM690.927 141.246L674.289 124.608C668.743 119.062 677.062 110.744 682.608 116.29L699.246 132.928C704.792 138.473 696.473 146.792 690.927 141.246ZM790.754 132.927L807.392 116.289C812.938 110.743 821.257 119.062 815.711 124.608L799.073 141.246C793.527 146.792 785.208 138.473 790.754 132.927ZM739.118 116.412V92.8822C739.118 85.0393 750.882 85.0393 750.882 92.8822V116.412C750.882 124.255 739.118 124.255 739.118 116.412Z" fill="#FD4A2F"/>
</g>
<defs>
<clipPath id="clip0_339_4400">
<rect width="1024" height="1024" fill="white"/>
</clipPath>
</defs>
</svg>
