<svg width="1024" height="1024" viewBox="0 0 1024 1024" fill="none" xmlns="http://www.w3.org/2000/svg">
<g clip-path="url(#clip0_339_4403)">
<path fill-rule="evenodd" clip-rule="evenodd" d="M260.5 189.5C317.503 186.35 354.336 212.017 371 266.5C375.932 267.14 380.765 268.307 385.5 270C390.146 275.79 389.146 280.457 382.5 284C320.382 307.691 256.215 322.858 190 329.5C185.311 330.152 181.311 328.819 178 325.5C177.333 322.833 177.333 320.167 178 317.5C181.122 314.89 183.622 311.89 185.5 308.5C176.777 267.5 188.443 233.666 220.5 207C232.754 198.533 246.087 192.699 260.5 189.5Z" fill="#057BD1"/>
<path fill-rule="evenodd" clip-rule="evenodd" d="M238.5 228.5C240.39 228.297 241.89 228.963 243 230.5C246.333 241.167 249.667 251.833 253 262.5C254.167 266.667 252.667 268.167 248.5 267C243.623 255.871 239.623 244.371 236.5 232.5C236.752 230.927 237.418 229.594 238.5 228.5Z" fill="#F7FBFC"/>
<path fill-rule="evenodd" clip-rule="evenodd" d="M284.5 215.5C286.39 215.297 287.89 215.963 289 217.5C292.5 228.667 296 239.833 299.5 251C299.355 251.772 299.022 252.439 298.5 253C296.741 253.798 295.074 253.631 293.5 252.5C289.638 241.579 285.971 230.579 282.5 219.5C282.752 217.927 283.418 216.594 284.5 215.5Z" fill="#F6FAFC"/>
<path fill-rule="evenodd" clip-rule="evenodd" d="M341.5 385.5C315.514 403.735 287.514 407.402 257.5 396.5C231.465 385.801 215.132 366.801 208.5 339.5C253.803 333.006 298.47 323.506 342.5 311C352.008 308.331 361.342 305.164 370.5 301.5C376.362 334.915 366.695 362.915 341.5 385.5Z" fill="#FECD14"/>
<path fill-rule="evenodd" clip-rule="evenodd" d="M473.5 474.5C465.931 456.787 457.597 439.454 448.5 422.5C465.598 407.573 482.265 392.073 498.5 376C508.323 368.142 518.657 367.476 529.5 374C540.486 383.71 542.319 394.876 535 407.5C513.897 429.429 493.397 451.763 473.5 474.5Z" fill="#52BE51"/>
<path fill-rule="evenodd" clip-rule="evenodd" d="M448.5 422.5C457.597 439.454 465.931 456.787 473.5 474.5C466.476 481.075 458.143 483.242 448.5 481C433.064 476.644 417.731 472.311 402.5 468C405.833 477.333 409.167 486.667 412.5 496C391.743 501.897 370.91 507.397 350 512.5C347.036 503.644 344.536 494.644 342.5 485.5C350.296 451.853 357.963 418.186 365.5 384.5C373.737 384.047 381.737 385.214 389.5 388C409.194 399.512 428.861 411.012 448.5 422.5Z" fill="#FED20E"/>
<path fill-rule="evenodd" clip-rule="evenodd" d="M341.5 385.5C343.199 385.34 344.866 385.506 346.5 386C340.803 414.816 334.97 443.649 329 472.5C304.962 447.297 281.129 421.964 257.5 396.5C287.514 407.402 315.514 403.735 341.5 385.5Z" fill="#52BE51"/>
<path fill-rule="evenodd" clip-rule="evenodd" d="M235.499 406.5C238.22 411.495 240.053 416.829 240.999 422.5C243.052 438.641 244.885 454.808 246.499 471C247.012 479.322 244.678 486.655 239.499 493C238.551 493.483 237.551 493.649 236.499 493.5C236.648 492.448 236.482 491.448 235.999 490.5C233.919 488.877 231.753 487.377 229.499 486C198.34 469.588 167.34 452.921 136.499 436C113.36 413.862 90.5269 391.362 67.9988 368.5C59.8179 354.838 60.9846 342.005 71.4988 330C83.0423 320.89 95.0423 320.223 107.499 328C128.022 346.434 148.355 365.1 168.499 384C190.427 391.198 212.427 398.198 234.499 405C235.055 405.383 235.388 405.883 235.499 406.5Z" fill="#52BE51"/>
<path fill-rule="evenodd" clip-rule="evenodd" d="M236.5 493.5C237.552 493.649 238.552 493.483 239.5 493C244.679 486.655 247.013 479.322 246.5 471C244.886 454.808 243.053 438.641 241 422.5C240.054 416.829 238.221 411.495 235.5 406.5C238.221 405.859 240.888 405.359 243.5 405C270.333 433.167 297.167 461.333 324 489.5C326.914 498.327 329.747 507.16 332.5 516C303.902 523.483 275.236 530.649 246.5 537.5C243.289 522.774 239.956 508.107 236.5 493.5Z" fill="#FED20E"/>
<path fill-rule="evenodd" clip-rule="evenodd" d="M413.5 513.5C415.467 513.261 417.301 513.594 419 514.5C421.401 522.536 423.901 530.536 426.5 538.5C426.291 539.086 425.957 539.586 425.5 540C404.283 545.762 383.116 551.595 362 557.5C358.064 548.189 355.231 538.522 353.5 528.5C373.724 523.993 393.724 518.993 413.5 513.5Z" fill="#FED20E"/>
<path fill-rule="evenodd" clip-rule="evenodd" d="M331.5 533.5C333.766 533.141 335.599 533.808 337 535.5C339.323 543.79 341.489 552.124 343.5 560.5C343.392 561.442 343.059 562.275 342.5 563C315.518 570.272 288.518 577.439 261.5 584.5C258.432 574.959 255.765 565.293 253.5 555.5C253.833 554.833 254.167 554.167 254.5 553.5C280.316 546.964 305.983 540.297 331.5 533.5Z" fill="#FED20E"/>
<path fill-rule="evenodd" clip-rule="evenodd" d="M627.5 613.5C629.819 604.04 632.653 594.706 636 585.5C636.833 584 638 582.833 639.5 582C638.692 581.692 638.025 581.192 637.5 580.5C638.886 577.734 639.22 575.067 638.5 572.5C641.632 562.437 644.965 552.437 648.5 542.5C653.463 543.828 658.463 544.661 663.5 545C668.794 535.58 673.96 526.08 679 516.5C687.659 500.419 700.826 494.586 718.5 499C724.629 502.423 727.129 507.59 726 514.5C717.025 544.399 708.358 574.399 700 604.5C694.865 621.147 683.698 628.314 666.5 626C653.221 622.295 640.221 618.128 627.5 613.5Z" fill="#067BD1"/>
<path fill-rule="evenodd" clip-rule="evenodd" d="M648.5 542.5C644.965 552.437 641.632 562.437 638.5 572.5C634.363 586.244 630.03 599.91 625.5 613.5C594.617 604.403 563.784 595.07 533 585.5C505.823 599.755 478.49 613.755 451 627.5C437.71 622.125 424.543 616.459 411.5 610.5C410.692 610.808 410.025 611.308 409.5 612C425.225 623.39 441.225 634.39 457.5 645C467.163 651.996 474.663 660.829 480 671.5C494.512 703.188 509.012 734.855 523.5 766.5C501.116 780.197 478.449 793.53 455.5 806.5C439.353 771.207 421.853 736.54 403 702.5C399.358 697.854 394.858 694.354 389.5 692C362.614 680.724 335.614 669.724 308.5 659C282.713 646.304 268.713 625.47 266.5 596.5C320.154 583.253 373.487 568.753 426.5 553C449.346 541.411 472.346 530.077 495.5 519C510.936 510.549 527.269 508.215 544.5 512C579.375 521.881 614.042 532.047 648.5 542.5Z" fill="#FECE14"/>
<path fill-rule="evenodd" clip-rule="evenodd" d="M638.5 572.5C639.22 575.067 638.886 577.734 637.5 580.5C638.025 581.192 638.692 581.692 639.5 582C638 582.833 636.833 584 636 585.5C632.653 594.706 629.819 604.04 627.5 613.5C626.833 613.5 626.167 613.5 625.5 613.5C630.03 599.91 634.363 586.244 638.5 572.5Z" fill="#1B68E4"/>
<path fill-rule="evenodd" clip-rule="evenodd" d="M856.5 636.5C866.864 635.272 870.698 639.605 868 649.5C813.64 683.523 767.973 726.857 731 779.5C718.332 797.494 706.665 816.161 696 835.5C694.644 836.38 693.144 836.714 691.5 836.5C691.48 831.866 692.646 827.533 695 823.5C726.214 754.55 772.047 697.384 832.5 652C840.735 647.058 848.735 641.892 856.5 636.5Z" fill="#0978CF"/>
<path fill-rule="evenodd" clip-rule="evenodd" d="M820.5 542.5C829.658 541.491 833.492 545.491 832 554.5C777.514 610.437 734.181 674.104 702 745.5C690.265 773.371 680.932 802.038 674 831.5C671.149 834.328 669.649 833.662 669.5 829.5C680.707 760.107 705.54 696.107 744 637.5C765.69 602.798 791.19 571.131 820.5 542.5Z" fill="#0878D0"/>
<path fill-rule="evenodd" clip-rule="evenodd" d="M559.501 659.5C562.426 659.46 565.092 660.293 567.501 662C606.995 713.504 632.495 771.337 644.001 835.5C640.842 838.341 638.509 837.674 637.001 833.5C619.214 773.584 591.214 719.251 553.001 670.5C552.613 665.27 554.78 661.604 559.501 659.5Z" fill="#0978D0"/>
<path fill-rule="evenodd" clip-rule="evenodd" d="M523.5 766.5C525.621 770.741 527.787 775.075 530 779.5C533.277 785.109 538.11 786.942 544.5 785C549.167 783.667 553.833 782.333 558.5 781C570.358 778.952 580.191 782.452 588 791.5C592.406 801.444 590.906 810.278 583.5 818C559.429 833.064 535.096 847.731 510.5 862C497.709 867.287 487.209 864.454 479 853.5C471.153 837.807 463.32 822.14 455.5 806.5C478.449 793.53 501.116 780.197 523.5 766.5Z" fill="#057BD1"/>
<path fill-rule="evenodd" clip-rule="evenodd" d="M903.5 922.5C735.998 922.166 568.664 921.166 401.5 919.5C445.055 897.706 491.055 883.206 539.5 876C606.675 867.558 674.008 866.224 741.5 872C799.949 877.443 855.282 893.443 907.5 920C907.957 920.414 908.291 920.914 908.5 921.5C906.955 922.452 905.288 922.785 903.5 922.5Z" fill="#047CD2"/>
<path fill-rule="evenodd" clip-rule="evenodd" d="M401.5 919.5C568.664 921.166 735.998 922.166 903.5 922.5C735.165 922.833 566.832 922.5 398.5 921.5C399.357 920.575 400.357 919.908 401.5 919.5Z" fill="#0047C5"/>
<path d="M667.82 286.751L672.388 269.706C673.228 266.567 676.454 264.705 679.592 265.546L781.867 292.95C785.005 293.791 786.867 297.017 786.026 300.155L781.459 317.2L818.391 327.096C819.96 327.517 820.891 329.13 820.471 330.698L818.948 336.38C818.528 337.949 816.915 338.88 815.346 338.46L627.843 288.219C626.273 287.798 625.343 286.185 625.763 284.617L627.286 278.935C627.706 277.366 629.319 276.435 630.888 276.855L667.82 286.751ZM695.931 227.295C702.658 202.189 728.459 187.292 753.566 194.019C778.672 200.746 793.569 226.547 786.842 251.654L778.468 282.905L687.557 258.546L695.931 227.295ZM770.557 244.246C774.341 230.125 765.961 215.61 751.84 211.826L748.999 211.065C747.43 210.644 745.817 211.575 745.397 213.144L743.874 218.826C743.454 220.395 744.385 222.008 745.954 222.428L748.795 223.19C756.64 225.292 761.295 233.355 759.193 241.2L758.432 244.041C758.012 245.61 758.943 247.223 760.512 247.643L766.194 249.166C767.763 249.586 769.375 248.655 769.796 247.086L770.557 244.246L770.557 244.246ZM674.726 215.523C677.864 216.364 679.726 219.589 678.885 222.728C678.044 225.866 674.819 227.728 671.681 226.887L648.953 220.797C645.815 219.956 643.953 216.731 644.794 213.593C645.635 210.455 648.86 208.592 651.998 209.433L674.726 215.523ZM833.819 258.152C836.958 258.993 838.82 262.218 837.979 265.357C837.138 268.495 833.913 270.357 830.775 269.516L808.047 263.426C804.909 262.585 803.047 259.36 803.887 256.222C804.728 253.084 807.954 251.221 811.092 252.062L833.819 258.152ZM700.998 181.285L689.233 160.908C685.312 154.115 695.5 148.233 699.422 155.025L711.187 175.403C715.108 182.195 704.92 188.077 700.998 181.285ZM799.576 199.086L819.954 187.321C826.746 183.4 832.628 193.588 825.836 197.51L805.459 209.274C798.666 213.196 792.784 203.008 799.576 199.086ZM753.974 169.769L760.064 147.041C762.094 139.465 773.458 142.51 771.428 150.086L765.338 172.814C763.308 180.39 751.944 177.345 753.974 169.769Z" fill="#FD4A2F"/>
</g>
<defs>
<clipPath id="clip0_339_4403">
<rect width="1024" height="1024" fill="white"/>
</clipPath>
</defs>
</svg>
