<svg width="1024" height="1024" viewBox="0 0 1024 1024" fill="none" xmlns="http://www.w3.org/2000/svg">
<path fill-rule="evenodd" clip-rule="evenodd" d="M364.301 382.249C364.912 380.902 365.616 380.902 366.418 382.249C371.644 391.536 379.054 398.416 388.645 402.889C410.826 404.415 433.053 404.945 455.329 404.477C455.329 414.003 455.329 423.529 455.329 433.055C434.475 433.237 413.658 433.237 392.879 433.055C383.325 416.054 373.798 399.119 364.301 382.249Z" fill="#FEC003"/>
<path d="M583.74 166.373H526.424C523.662 166.373 521.424 168.611 521.424 171.373V426.722M583.74 166.373V808.109M583.74 166.373H642.797M583.74 808.109H526.424C523.662 808.109 521.424 805.87 521.424 803.109V533.949M583.74 808.109H642.797M642.797 166.373V808.109M642.797 166.373H700.633M642.797 808.109H700.633M700.633 166.373V808.109M700.633 166.373H757.654M700.633 808.109H757.654M757.654 166.373H809.675C812.436 166.373 814.675 168.611 814.675 171.373V248.011M757.654 166.373V808.109M757.654 808.109H809.675C812.436 808.109 814.675 805.87 814.675 803.109V734.187M814.675 734.187H863.142M814.675 734.187V248.011M863.142 155V248.011M863.142 818.669V734.187M863.142 734.187V248.011M863.142 248.011H814.675M873.942 818.669V155" stroke="#4C4E4F" stroke-width="20"/>
<path d="M527.667 426.583C530.428 426.583 532.667 428.821 532.667 431.583V542.086C532.667 544.848 530.428 547.086 527.667 547.086H468.872C466.111 547.086 463.872 544.848 463.872 542.086V520.108C482.248 520.108 497.145 505.211 497.146 486.834C497.146 468.458 482.248 453.561 463.872 453.561V431.583C463.872 428.821 466.111 426.583 468.872 426.583H527.667Z" fill="#4C4E4F"/>
<path d="M919.514 223V299.521M969 223V299.521M969 299.521V667.884M969 299.521H919.514M919.514 299.521V667.884M919.514 299.521H874M969 759.5V667.884M919.514 759.5V667.884M919.514 667.884H874M919.514 667.884H969" stroke="#4C4E4F" stroke-width="20"/>
<path d="M218.21 757L218.21 702.182M218.21 200L218.21 252.298M168.577 757L168.577 702.182M168.577 200L168.577 252.298M123.837 757L123.837 702.182M123.837 200L123.837 252.298M77 757L77 702.182M77 200L77 252.297M77 252.297L123.837 252.298M77 252.297L77 702.182M123.837 252.298L123.837 702.182M123.837 252.298L168.577 252.298M168.577 252.298L218.21 252.298M168.577 252.298L168.577 702.182M218.21 252.298L218.21 702.182M218.21 252.298L283.5 252.298M77 702.182L123.837 702.182M123.837 702.182L168.577 702.182M168.577 702.182L218.21 702.182M218.21 702.182L283.5 702.182" stroke="#4C4E4F" stroke-width="20"/>
<path d="M282 155L282 814" stroke="#4C4E4F" stroke-width="35"/>
<path fill-rule="evenodd" clip-rule="evenodd" d="M364.399 203.313C398.401 201.536 422.647 215.903 437.136 246.416C445.18 268.671 443.025 289.864 430.671 309.994C414.373 329.802 393.36 338.243 367.632 335.318C337.596 330.814 318.019 314.112 308.903 285.21C302.089 240.516 320.588 213.217 364.399 203.313Z" fill="#FEC101"/>
<path fill-rule="evenodd" clip-rule="evenodd" d="M284.657 327.236C306.142 326.933 323.563 335.195 336.92 352.02C356.855 384.707 376.791 417.395 396.726 450.081C423.658 450.979 450.598 451.518 477.546 451.697C493.165 454.025 503.042 462.826 507.179 478.098C510.427 504.666 498.753 519.573 472.158 522.818C450.247 523.537 428.335 523.537 406.424 522.818C393.432 522.727 380.501 522.009 367.631 520.663C358.582 517.85 350.86 513 344.463 506.116C331.173 486.719 317.882 467.323 304.592 447.926C307.621 460.769 312.47 472.981 319.14 484.564C302.704 511.325 286.54 538.265 270.648 565.383C293.301 592.526 315.752 619.824 337.997 647.28C344.391 657.479 347.982 668.615 348.773 680.685C349.492 732.41 349.492 784.134 348.773 835.858C344.253 860.127 329.705 870.723 305.131 867.647C289.008 863.022 279.849 852.425 277.652 835.858C277.674 788.444 277.674 741.03 277.652 693.616C257.537 669.191 237.423 644.766 217.307 620.34C220.377 646.042 222.711 671.904 224.312 697.927C224.592 706.406 222.617 714.308 218.385 721.634C185.698 765.815 153.011 809.996 120.324 854.177C105.307 869.537 88.2453 872.231 69.1385 862.259C52.1557 846.777 49.4617 828.997 61.0566 808.919C88.4091 774.024 115.349 738.822 141.876 703.315C146.456 694.143 147.893 684.445 146.186 674.22C142.672 635.073 139.26 595.921 135.949 556.762C135.821 547.118 137.437 537.779 140.798 528.745C173.931 469.303 207.336 410.036 241.014 350.943C252.283 336.958 266.83 329.056 284.657 327.236Z" fill="#FEC102"/>
</svg>
