<svg width="1024" height="1024" viewBox="0 0 1024 1024" fill="none" xmlns="http://www.w3.org/2000/svg">
<g clip-path="url(#clip0_339_4402)">
<path fill-rule="evenodd" clip-rule="evenodd" d="M495.5 58.5C496.663 81.663 496.83 104.996 496 128.5C491 133.833 486 133.833 481 128.5C480.5 108.503 480.333 88.5028 480.5 68.5C480.286 66.8561 480.62 65.3561 481.5 64C485.832 61.3345 490.499 59.5012 495.5 58.5Z" fill="#FCFDFD"/>
<path fill-rule="evenodd" clip-rule="evenodd" d="M526.5 58.5C530.922 59.6965 535.256 61.1965 539.5 63C541.607 64.2635 542.607 66.0968 542.5 68.5C542.667 88.1695 542.5 107.836 542 127.5C539.337 131.725 535.504 133.225 530.5 132C529.333 130.833 528.167 129.667 527 128.5C526.5 105.169 526.333 81.8357 526.5 58.5Z" fill="#F9FBFC"/>
<path fill-rule="evenodd" clip-rule="evenodd" d="M526.5 58.5C526.333 81.8357 526.5 105.169 527 128.5C528.167 129.667 529.333 130.833 530.5 132C535.504 133.225 539.337 131.725 542 127.5C542.5 107.836 542.667 88.1695 542.5 68.5C575.689 78.1689 599.856 98.5022 615 129.5C619.312 141.42 623.312 153.42 627 165.5C631.029 168.906 634.863 172.406 638.5 176C635.77 181.875 631.104 185.042 624.5 185.5C549.167 185.5 473.833 185.5 398.5 185.5C392.158 184.336 387.158 181.169 383.5 176C387.903 172.604 392.07 168.771 396 164.5C399.206 154.156 402.539 143.822 406 133.5C420.84 100.337 445.673 78.6705 480.5 68.5C480.333 88.5028 480.5 108.503 481 128.5C486 133.833 491 133.833 496 128.5C496.83 104.996 496.663 81.663 495.5 58.5C505.703 55.8966 516.036 55.8966 526.5 58.5Z" fill="#0F78C6"/>
<path fill-rule="evenodd" clip-rule="evenodd" d="M398.822 186C474.155 186 549.489 186 624.822 186C633.44 215.591 632.607 244.925 622.322 274C612.172 295.979 596.672 312.979 575.822 325C600.99 332.125 626.324 338.625 651.822 344.5C670.869 352.214 684.702 365.381 693.322 384C715.768 442.675 738.601 501.175 761.822 559.5C760.751 560.352 759.751 561.185 758.822 562C732.71 572.893 707.043 584.56 681.822 597C679.991 597.552 678.325 597.552 676.822 597C666.762 575.81 657.096 554.477 647.822 533C647.762 532.457 647.429 532.124 646.822 532C645.822 551.655 645.489 571.322 645.822 591C645.547 597.992 643.38 604.326 639.322 610C639.155 612.667 638.989 615.333 638.822 618C642.761 700.325 646.428 782.658 649.822 865C608.325 865.999 566.659 866.332 524.822 866C520.633 807.354 516.633 748.687 512.822 690C513.135 687.253 512.802 684.586 511.822 682C510.848 684.243 510.514 686.576 510.822 689C507.067 748.33 503.4 807.663 499.822 867C496.155 867 492.489 867 488.822 867C452.822 867 416.822 867 380.822 867C378.489 867 376.155 867 373.822 867C377.14 782.651 380.807 698.318 384.822 614C381.634 606.617 379.301 598.95 377.822 591C378.155 570.989 377.822 550.989 376.822 531C376.215 531.124 375.882 531.457 375.822 532C366.878 554.549 356.878 576.549 345.822 598C344.247 597.044 342.58 596.377 340.822 596C315.339 584.094 289.672 572.428 263.822 561C262.097 560.657 261.597 559.657 262.322 558C284.989 500 307.655 442 330.322 384C338.957 364.255 353.457 350.755 373.822 343.5C397.997 337.9 421.997 331.733 445.822 325C415.259 306.232 398.092 278.898 394.322 243C392.581 223.697 394.081 204.697 398.822 186Z" fill="#FCFCFB"/>
<path fill-rule="evenodd" clip-rule="evenodd" d="M409.5 199.5C477.167 199.333 544.834 199.5 612.5 200C620.428 231.511 615.261 260.678 597 287.5C592.316 292.252 587.65 296.919 583 301.5C584.872 289.902 586.705 278.236 588.5 266.5C574.029 269.761 559.362 270.928 544.5 270C537.329 268.08 530.662 265.08 524.5 261C516.29 256.877 507.957 256.544 499.5 260C486.271 269.306 471.604 272.639 455.5 270C448.532 268.6 441.532 267.433 434.5 266.5C435.685 277.93 437.185 289.264 439 300.5C417.356 281.194 406.522 256.86 406.5 227.5C407.105 218.114 408.105 208.781 409.5 199.5Z" fill="#F9A836"/>
<path fill-rule="evenodd" clip-rule="evenodd" d="M431.5 206.5C451.169 206.333 470.836 206.5 490.5 207C494.637 208.637 497.637 211.47 499.5 215.5C507.5 216.833 515.5 216.833 523.5 215.5C526.074 211.758 529.407 208.925 533.5 207C552.167 206.333 570.833 206.333 589.5 207C594 208.833 597.167 212 599 216.5C603.672 241.83 593.172 255.664 567.5 258C559.167 258.667 550.833 258.667 542.5 258C526.24 255.239 519.574 245.739 522.5 229.5C515.167 229.5 507.833 229.5 500.5 229.5C502.16 245.337 495.16 254.837 479.5 258C467.037 259.146 454.704 258.479 442.5 256C424.488 248.809 417.988 235.642 423 216.5C424.951 212.385 427.784 209.052 431.5 206.5Z" fill="#FEFDFA"/>
<path fill-rule="evenodd" clip-rule="evenodd" d="M537.5 218.5C553.503 218.333 569.503 218.5 585.5 219C591.04 232.587 586.707 241.253 572.5 245C562.49 246.927 552.49 246.927 542.5 245C537.449 243.283 534.615 239.783 534 234.5C533.333 230.833 533.333 227.167 534 223.5C534.697 221.416 535.864 219.749 537.5 218.5Z" fill="#F9A735"/>
<path fill-rule="evenodd" clip-rule="evenodd" d="M436.5 218.5C452.837 218.333 469.17 218.5 485.5 219C486.333 219.833 487.167 220.667 488 221.5C488.851 227.253 488.517 232.92 487 238.5C484.148 242.353 480.314 244.853 475.5 246C465.709 246.919 456.043 246.253 446.5 244C434.434 238.932 431.101 230.432 436.5 218.5Z" fill="#F9A633"/>
<path fill-rule="evenodd" clip-rule="evenodd" d="M631.5 500.5C597.833 500.5 564.167 500.5 530.5 500.5C530.829 486.99 530.496 473.656 529.5 460.5C531.146 453.536 533.646 446.869 537 440.5C554.147 408.54 570.48 376.206 586 343.5C586.561 342.978 587.228 342.645 588 342.5C595.393 344.724 602.893 346.39 610.5 347.5C610.087 373.528 610.587 399.528 612 425.5C612.481 429.531 613.147 433.531 614 437.5C618.444 451.053 623.444 464.386 629 477.5C631.135 485.014 631.968 492.681 631.5 500.5Z" fill="#1078C7"/>
<path fill-rule="evenodd" clip-rule="evenodd" d="M393.5 351.5C394.833 351.5 396.167 351.5 397.5 351.5C397.667 374.169 397.5 396.836 397 419.5C396.147 423.469 395.481 427.469 395 431.5C390.986 445.21 385.986 458.543 380 471.5C377.8 480.033 376.467 488.699 376 497.5C363.483 524.531 350.983 551.531 338.5 578.5C319.371 569.267 300.038 560.6 280.5 552.5C301.5 497.006 323 441.672 345 386.5C352.006 373.161 362.506 363.661 376.5 358C382.279 355.763 387.946 353.596 393.5 351.5Z" fill="#F9A733"/>
<path fill-rule="evenodd" clip-rule="evenodd" d="M431.5 342.5C433.288 342.215 434.955 342.548 436.5 343.5C455.604 380.709 474.438 418.042 493 455.5C494.437 471.109 494.937 486.776 494.5 502.5C459.833 502.5 425.167 502.5 390.5 502.5C390.638 494.429 391.471 486.429 393 478.5C396.44 468.285 400.44 458.285 405 448.5C406.98 441.913 408.647 435.246 410 428.5C411.395 401.524 411.895 374.524 411.5 347.5C418.418 346.437 425.085 344.77 431.5 342.5Z" fill="#1178C7"/>
<path fill-rule="evenodd" clip-rule="evenodd" d="M627.501 352.5C648.194 355.92 664.361 366.253 676.001 383.5C698.559 439.174 720.726 495.008 742.501 551C723.712 560.81 704.545 569.977 685.001 578.5C672.017 551.197 659.017 523.864 646.001 496.5C645.897 488.709 644.897 481.042 643.001 473.5C638.334 461.5 633.668 449.5 629.001 437.5C626.992 430.289 625.825 422.956 625.501 415.5C624.846 394.14 625.512 373.14 627.501 352.5Z" fill="#F9A733"/>
<path fill-rule="evenodd" clip-rule="evenodd" d="M627.499 352.5C625.51 373.14 624.844 394.14 625.499 415.5C624.502 394.34 624.168 373.007 624.499 351.5C625.79 351.263 626.79 351.596 627.499 352.5Z" fill="#F5B457"/>
<path fill-rule="evenodd" clip-rule="evenodd" d="M529.5 460.5C530.496 473.656 530.829 486.99 530.5 500.5C564.167 500.5 597.833 500.5 631.5 500.5C631.5 500.833 631.5 501.167 631.5 501.5C597.5 501.5 563.5 501.5 529.5 501.5C529.5 487.833 529.5 474.167 529.5 460.5Z" fill="#026BC3"/>
<path fill-rule="evenodd" clip-rule="evenodd" d="M529.502 460.5C529.502 474.167 529.502 487.833 529.502 501.5C563.502 501.5 597.502 501.5 631.502 501.5C597.339 502.498 563.006 502.832 528.502 502.5C528.173 488.323 528.506 474.323 529.502 460.5Z" fill="#539ACF"/>
<path fill-rule="evenodd" clip-rule="evenodd" d="M390.5 516.5C425.167 516.5 459.833 516.5 494.5 516.5C494.5 527.5 494.5 538.5 494.5 549.5C459.833 549.5 425.167 549.5 390.5 549.5C390.5 538.5 390.5 527.5 390.5 516.5Z" fill="#F9A633"/>
<path fill-rule="evenodd" clip-rule="evenodd" d="M631.5 516.5C631.5 527.167 631.5 537.833 631.5 548.5C597.167 548.5 562.833 548.5 528.5 548.5C528.5 537.833 528.5 527.167 528.5 516.5C562.833 516.5 597.167 516.5 631.5 516.5Z" fill="#F9A632"/>
<path fill-rule="evenodd" clip-rule="evenodd" d="M647.5 532.5C646.833 551.833 646.167 571.167 645.5 590.5C645.167 570.822 645.5 551.155 646.5 531.5C647.107 531.624 647.44 531.957 647.5 532.5Z" fill="#ACACAB"/>
<path fill-rule="evenodd" clip-rule="evenodd" d="M631.5 516.5C632.495 527.321 632.828 538.321 632.5 549.5C597.663 549.832 562.996 549.498 528.5 548.5C562.833 548.5 597.167 548.5 631.5 548.5C631.5 537.833 631.5 527.167 631.5 516.5Z" fill="#F5B046"/>
<path fill-rule="evenodd" clip-rule="evenodd" d="M375.5 531.5C375.56 530.957 375.893 530.624 376.5 530.5C377.5 550.489 377.833 570.489 377.5 590.5C376.833 570.833 376.167 551.167 375.5 531.5Z" fill="#C1C1C0"/>
<path fill-rule="evenodd" clip-rule="evenodd" d="M494.5 563.5C460.167 563.5 425.833 563.5 391.5 563.5C391.5 571.5 391.5 579.5 391.5 587.5C390.507 579.35 390.174 571.017 390.5 562.5C425.337 562.168 460.004 562.502 494.5 563.5Z" fill="#4590CA"/>
<path fill-rule="evenodd" clip-rule="evenodd" d="M528.5 563.5C562.996 562.502 597.663 562.168 632.5 562.5C632.826 571.017 632.493 579.35 631.5 587.5C631.5 579.5 631.5 571.5 631.5 563.5C597.167 563.5 562.833 563.5 528.5 563.5Z" fill="#3D8CC9"/>
<path fill-rule="evenodd" clip-rule="evenodd" d="M263.5 560.5C289.35 571.928 315.017 583.594 340.5 595.5C338.374 601.045 336.541 606.712 335 612.5C334.234 627.182 334.4 641.849 335.5 656.5C335.109 668.084 329.443 672.584 318.5 670C317 668.5 315.5 667 314 665.5C312.921 655.257 310.921 645.257 308 635.5C298.333 652.833 288.667 670.167 279 687.5C275.692 691.327 271.526 692.494 266.5 691C261.845 688.103 260.345 683.937 262 678.5C283.828 631.811 282.161 630.811 257 675.5C252.994 680.166 248.494 680.666 243.5 677C241.556 675.278 240.556 673.111 240.5 670.5C245.519 657.148 251.019 644.148 257 631.5C250.591 639.314 244.925 647.647 240 656.5C231.797 661.488 226.297 659.321 223.5 650C233.488 627.523 244.655 605.69 257 584.5C259.171 576.481 261.338 568.481 263.5 560.5Z" fill="#1078C5"/>
<path fill-rule="evenodd" clip-rule="evenodd" d="M494.5 563.5C494.666 572.506 494.5 581.506 494 590.5C492.456 600.376 486.956 606.876 477.5 610C454.167 610.667 430.833 610.667 407.5 610C397.862 605.557 392.529 598.057 391.5 587.5C391.5 579.5 391.5 571.5 391.5 563.5C425.833 563.5 460.167 563.5 494.5 563.5Z" fill="#0F78C7"/>
<path fill-rule="evenodd" clip-rule="evenodd" d="M528.5 563.5C562.833 563.5 597.167 563.5 631.5 563.5C631.5 571.5 631.5 579.5 631.5 587.5C630.432 600.07 623.766 607.903 611.5 611C590.17 610.384 568.837 610.384 547.5 611C536.703 607.866 530.536 600.7 529 589.5C528.5 580.84 528.334 572.173 528.5 563.5Z" fill="#0F78C7"/>
<path fill-rule="evenodd" clip-rule="evenodd" d="M758.5 561.5C760.964 568.727 763.13 576.06 765 583.5C776.283 603.737 787.283 624.07 798 644.5C800.965 652.716 798.132 657.716 789.5 659.5C787.701 659.423 786.034 658.923 784.5 658C779.389 649.89 773.889 642.057 768 634.5C773.056 646.297 777.889 658.297 782.5 670.5C781.81 676.022 778.643 679.022 773 679.5C769.575 679.081 766.909 677.414 765 674.5C759.503 664.169 753.503 654.169 747 644.5C751.048 655.951 755.715 667.284 761 678.5C762.053 688.443 757.553 692.609 747.5 691C746.5 690.167 745.5 689.333 744.5 688.5C734.864 670.886 724.864 653.553 714.5 636.5C711.876 646.391 709.71 656.391 708 666.5C701.965 673.065 695.965 673.065 690 666.5C688.696 650.258 688.029 633.925 688 617.5C686.98 610.132 684.814 603.132 681.5 596.5C706.721 584.06 732.388 572.393 758.5 561.5Z" fill="#1078C5"/>
<path fill-rule="evenodd" clip-rule="evenodd" d="M486.5 845.5C485.539 847.265 485.205 849.265 485.5 851.5C453.167 851.5 420.833 851.5 388.5 851.5C388.5 848.833 388.5 846.167 388.5 843.5C391.654 769.505 394.654 695.505 397.5 621.5C400.843 622.224 404.176 623.057 407.5 624C427.011 624.236 446.511 624.736 466 625.5C488.712 626.108 502.712 615.441 508 593.5C508.667 547.167 508.667 500.833 508 454.5C506.864 450.757 505.53 447.09 504 443.5C485.761 408.854 467.927 374.021 450.5 339C450.905 338.055 451.572 337.388 452.5 337C455.264 336.468 457.93 335.634 460.5 334.5C494.536 355.781 528.536 355.781 562.5 334.5C565.759 336.031 569.093 337.364 572.5 338.5C553.379 376.408 534.546 414.408 516 452.5C514.364 498.468 514.031 544.468 515 590.5C516.774 606.239 524.941 617.072 539.5 623C560.289 624.226 581.122 625.06 602 625.5C609.461 625.618 616.628 624.285 623.5 621.5C628.014 698.473 632.014 775.473 635.5 852.5C602.833 852.5 570.167 852.5 537.5 852.5C533.846 794.829 530.013 737.162 526 679.5C524.628 664.906 517.128 660.073 503.5 665C500.246 667.342 498.412 670.509 498 674.5C493.735 731.479 489.901 788.479 486.5 845.5Z" fill="#F9A633"/>
<path fill-rule="evenodd" clip-rule="evenodd" d="M388.499 843.5C388.499 846.167 388.499 848.833 388.499 851.5C420.832 851.5 453.166 851.5 485.499 851.5C485.204 849.265 485.538 847.265 486.499 845.5C486.499 847.833 486.499 850.167 486.499 852.5C453.499 852.5 420.499 852.5 387.499 852.5C387.189 849.287 387.522 846.287 388.499 843.5Z" fill="#F6B350"/>
<path fill-rule="evenodd" clip-rule="evenodd" d="M649.5 864.5C650.043 864.56 650.376 864.893 650.5 865.5C648.257 866.474 645.924 866.808 643.5 866.5C606.833 866.5 570.167 866.5 533.5 866.5C530.287 866.81 527.287 866.477 524.5 865.5C566.337 865.832 608.003 865.499 649.5 864.5Z" fill="#CCDFE8"/>
<path fill-rule="evenodd" clip-rule="evenodd" d="M380.501 866.5C416.501 866.5 452.501 866.5 488.501 866.5C488.668 894.502 488.501 922.502 488.001 950.5C487.271 954.896 484.771 957.73 480.501 959C426.834 959.667 373.168 959.667 319.501 959C315.425 955.774 313.925 951.607 315.001 946.5C316.895 929.184 325.728 917.018 341.501 910C349.334 907.361 357.334 905.361 365.501 904C373.165 901.002 377.998 895.502 380.001 887.5C380.501 880.508 380.667 873.508 380.501 866.5Z" fill="#0F78C6"/>
<path fill-rule="evenodd" clip-rule="evenodd" d="M533.5 866.5C570.167 866.5 606.833 866.5 643.5 866.5C643.334 873.841 643.5 881.174 644 888.5C646.068 896.901 651.234 902.401 659.5 905C674.911 906.016 688.077 911.85 699 922.5C705.745 932.145 708.411 942.812 707 954.5C706.215 956.286 705.049 957.786 703.5 959C649.5 959.667 595.5 959.667 541.5 959C537.942 957.108 535.442 954.275 534 950.5C533.5 922.502 533.333 894.502 533.5 866.5Z" fill="#0F77C6"/>
</g>
<defs>
<clipPath id="clip0_339_4402">
<rect width="1024" height="1024" fill="white"/>
</clipPath>
</defs>
</svg>
