<svg width="1024" height="1024" viewBox="0 0 1024 1024" fill="none" xmlns="http://www.w3.org/2000/svg">
<path fill-rule="evenodd" clip-rule="evenodd" d="M422.5 199.5C422.5 198.167 422.5 196.833 422.5 195.5C371.045 198.134 320.045 194.468 269.5 184.5C261.244 182.92 253.077 180.587 245 177.5C243.877 174.044 244.71 171.21 247.5 169C251.756 167.193 256.089 165.693 260.5 164.5C264.57 122.85 286.904 97.0168 327.5 87C374.948 81.3069 407.115 100.807 424 145.5C426.939 153.257 428.939 161.257 430 169.5C436.806 171.992 443.639 174.492 450.5 177C455.416 178.848 456.583 182.014 454 186.5C451.592 188.956 448.759 190.789 445.5 192C438.32 194.141 430.986 195.308 423.5 195.5C423.768 197.099 423.434 198.432 422.5 199.5Z" fill="#0285D0"/>
<path fill-rule="evenodd" clip-rule="evenodd" d="M750.5 106.5C759.144 105.324 766.31 107.991 772 114.5C807.748 176.331 843.748 237.997 880 299.5C886.9 310.676 885.733 320.842 876.5 330C874.043 331.562 871.376 332.562 868.5 333C792.833 333.667 717.167 333.667 641.5 333C628.083 327.103 624.25 317.27 630 303.5C665.919 241.997 701.586 180.33 737 118.5C740.454 113.206 744.954 109.206 750.5 106.5Z" fill="#F6461D"/>
<path fill-rule="evenodd" clip-rule="evenodd" d="M750.5 106.5C759.144 105.324 766.31 107.991 772 114.5C807.748 176.331 843.748 237.997 880 299.5C886.9 310.676 885.733 320.842 876.5 330C874.043 331.562 871.376 332.562 868.5 333C792.833 333.667 717.167 333.667 641.5 333C628.083 327.103 624.25 317.27 630 303.5C665.919 241.997 701.586 180.33 737 118.5C740.454 113.206 744.954 109.206 750.5 106.5Z" fill="#F6461D"/>
<path fill-rule="evenodd" clip-rule="evenodd" d="M751.5 168.5C764.616 167.783 770.949 173.949 770.5 187C768.847 210.187 767.013 233.353 765 256.5C758.667 264.5 752.333 264.5 746 256.5C744.02 230.83 742.353 205.163 741 179.5C742.711 173.959 746.211 170.292 751.5 168.5Z" fill="#FEFDFC"/>
<path fill-rule="evenodd" clip-rule="evenodd" d="M269.5 184.5C320.045 194.468 371.045 198.134 422.5 195.5C422.5 196.833 422.5 198.167 422.5 199.5C419.479 227.721 406.146 249.555 382.5 265C341.488 282.955 306.988 274.455 279 239.5C268.256 224.121 264.256 207.121 267 188.5C267.122 186.563 267.955 185.23 269.5 184.5Z" fill="#FECE01"/>
<path fill-rule="evenodd" clip-rule="evenodd" d="M249.5 274.5C260.102 278.003 266.269 285.337 268 296.5C271.413 321.932 263.913 343.432 245.5 361C236.839 367.749 227.173 369.916 216.5 367.5C217.787 363.519 218.12 359.519 217.5 355.5C204.536 359.766 191.536 363.932 178.5 368C162.874 394.084 147.374 420.251 132 446.5C118.615 462.205 103.115 464.705 85.4995 454C73.8777 444.677 70.0444 432.843 73.9995 418.5C91.7465 386.671 109.747 355.004 128 323.5C132.714 317.44 138.548 312.94 145.5 310C180.09 297.859 214.757 286.026 249.5 274.5Z" fill="#FECF01"/>
<path fill-rule="evenodd" clip-rule="evenodd" d="M750.5 278.5C768.503 277.994 775.003 286.327 770 303.5C763.169 312.126 755.003 313.626 745.5 308C739.051 301.364 737.885 293.864 742 285.5C744.441 282.546 747.275 280.213 750.5 278.5Z" fill="#FEFCFB"/>
<path fill-rule="evenodd" clip-rule="evenodd" d="M300.5 273.5C321.7 283.382 344.034 288.382 367.5 288.5C359.711 311.547 350.378 333.881 339.5 355.5C338.21 356.058 337.377 357.058 337 358.5C323.54 330.297 311.373 301.964 300.5 273.5Z" fill="#FECF01"/>
<path fill-rule="evenodd" clip-rule="evenodd" d="M384.5 296.5C389.77 299.935 394.27 304.269 398 309.5C412.627 335.92 427.127 362.42 441.5 389C468.874 393.482 496.208 398.148 523.5 403C538.364 410.227 544.698 422.06 542.5 438.5C517.134 438.195 491.801 438.528 466.5 439.5C459.178 441.799 456.178 446.799 457.5 454.5C457.5 454.833 457.5 455.167 457.5 455.5C441.033 453.04 424.7 449.873 408.5 446C398.494 441.661 390.661 434.828 385 425.5C383.359 431.859 381.859 438.192 380.5 444.5C368.421 442.931 356.421 440.931 344.5 438.5C343.158 437.207 341.491 436.374 339.5 436C299.559 428.682 259.559 421.682 219.5 415C216.633 414.199 213.966 414.366 211.5 415.5C211.167 415.5 210.833 415.5 210.5 415.5C211.181 405.399 212.515 395.399 214.5 385.5C223.689 388.199 233.022 390.366 242.5 392C269.715 396.413 296.715 401.246 323.5 406.5C342.619 410.8 361.952 414.466 381.5 417.5C383.115 416.846 384.782 416.346 386.5 416C390.124 397.646 393.291 379.146 396 360.5C397.356 353.355 397.522 346.355 396.5 339.5C396.533 323.946 392.533 309.613 384.5 296.5Z" fill="#FECF01"/>
<path fill-rule="evenodd" clip-rule="evenodd" d="M298.5 273.5C299.167 273.5 299.833 273.5 300.5 273.5C311.373 301.964 323.54 330.297 337 358.5C337.377 357.058 338.21 356.058 339.5 355.5C338.97 357.924 338.136 360.257 337 362.5C323.488 333.132 310.655 303.465 298.5 273.5Z" fill="#F0D70A"/>
<path fill-rule="evenodd" clip-rule="evenodd" d="M298.5 273.5C310.655 303.465 323.488 333.132 337 362.5C338.136 360.257 338.97 357.924 339.5 355.5C350.378 333.881 359.711 311.547 367.5 288.5C373.81 289.822 379.476 292.488 384.5 296.5C392.533 309.613 396.533 323.946 396.5 339.5C393.57 364.608 389.903 389.608 385.5 414.5C382.216 415.657 378.882 415.824 375.5 415C358.192 411.932 340.859 409.099 323.5 406.5C296.715 401.246 269.715 396.413 242.5 392C233.022 390.366 223.689 388.199 214.5 385.5C215.385 379.526 216.051 373.526 216.5 367.5C227.173 369.916 236.839 367.749 245.5 361C263.913 343.432 271.413 321.932 268 296.5C266.269 285.337 260.102 278.003 249.5 274.5C263.334 268.317 277.668 267.151 292.5 271C294.811 271.236 296.811 272.069 298.5 273.5Z" fill="#41C150"/>
<path fill-rule="evenodd" clip-rule="evenodd" d="M912.5 438.5C900.5 438.5 888.5 438.5 876.5 438.5C876.334 429.827 876.5 421.16 877 412.5C878.5 411 880 409.5 881.5 408C890.167 407.333 898.833 407.333 907.5 408C908.931 408.465 910.097 409.299 911 410.5C912.445 419.726 912.945 429.06 912.5 438.5Z" fill="#FED005"/>
<path fill-rule="evenodd" clip-rule="evenodd" d="M396.5 339.5C397.522 346.355 397.356 353.355 396 360.5C393.291 379.146 390.124 397.646 386.5 416C384.782 416.346 383.115 416.846 381.5 417.5C361.952 414.466 342.619 410.8 323.5 406.5C340.859 409.099 358.192 411.932 375.5 415C378.882 415.824 382.216 415.657 385.5 414.5C389.903 389.608 393.57 364.608 396.5 339.5Z" fill="#F4D806"/>
<path fill-rule="evenodd" clip-rule="evenodd" d="M211.5 415.5C213.966 414.366 216.633 414.199 219.5 415C259.559 421.682 299.559 428.682 339.5 436C341.491 436.374 343.158 437.207 344.5 438.5C300.238 430.448 255.905 422.781 211.5 415.5Z" fill="#EFD709"/>
<path fill-rule="evenodd" clip-rule="evenodd" d="M457.5 455.5C457.333 509.834 457.5 564.168 458 618.5C458.377 619.942 459.21 620.942 460.5 621.5C462.12 623.984 464.453 625.484 467.5 626C477.244 626.806 486.911 626.639 496.5 625.5C496.5 625.833 496.5 626.167 496.5 626.5C496.5 633.5 496.5 640.5 496.5 647.5C486.828 647.334 477.161 647.5 467.5 648C462.772 649.396 460.272 652.562 460 657.5C459.333 666.167 459.333 674.833 460 683.5C460.889 687.112 463.055 689.612 466.5 691C476.494 691.5 486.494 691.666 496.5 691.5C496.5 699.167 496.5 706.833 496.5 714.5C475.546 704.357 454.88 693.69 434.5 682.5C434.667 662.497 434.5 642.497 434 622.5C431.393 610.953 426.393 600.62 419 591.5C400.86 567.209 383.36 542.542 366.5 517.5C367.965 513.976 368.965 510.309 369.5 506.5C371.677 497.281 373.343 487.948 374.5 478.5C377.118 467.396 379.118 456.062 380.5 444.5C381.859 438.192 383.359 431.859 385 425.5C390.661 434.828 398.494 441.661 408.5 446C424.7 449.873 441.033 453.04 457.5 455.5Z" fill="#FEFDFC"/>
<path fill-rule="evenodd" clip-rule="evenodd" d="M542.5 438.5C653.833 438.5 765.167 438.5 876.5 438.5C888.5 438.5 900.5 438.5 912.5 438.5C922.539 438.242 932.539 438.576 942.5 439.5C942.631 440.239 942.464 440.906 942 441.5C783.402 440.834 624.902 440.167 466.5 439.5C491.801 438.528 517.134 438.195 542.5 438.5Z" fill="#F73E1A"/>
<path fill-rule="evenodd" clip-rule="evenodd" d="M466.5 439.5C624.902 440.167 783.402 440.834 942 441.5C942.464 440.906 942.631 440.239 942.5 439.5C947.037 441.367 949.704 444.701 950.5 449.5C949.667 504.665 949.167 559.998 949 615.5C947.807 617.886 946.64 620.22 945.5 622.5C945.167 623.5 944.5 624.167 943.5 624.5C942.903 623.861 942.07 623.528 941 623.5C804.683 624.163 668.516 624.829 532.5 625.5C520.5 625.5 508.5 625.5 496.5 625.5C486.911 626.639 477.244 626.806 467.5 626C464.453 625.484 462.12 623.984 460.5 621.5C460.291 620.078 459.791 618.745 459 617.5C458.833 562.998 458.333 508.665 457.5 454.5C456.178 446.799 459.178 441.799 466.5 439.5Z" fill="#F6461D"/>
<path fill-rule="evenodd" clip-rule="evenodd" d="M210.5 415.5C210.833 415.5 211.167 415.5 211.5 415.5C255.905 422.781 300.238 430.448 344.5 438.5C356.421 440.931 368.421 442.931 380.5 444.5C379.118 456.062 377.118 467.396 374.5 478.5C317.842 469.263 261.175 459.929 204.5 450.5C206.101 438.645 208.101 426.978 210.5 415.5Z" fill="#41C150"/>
<path fill-rule="evenodd" clip-rule="evenodd" d="M204.5 450.5C261.175 459.929 317.842 469.263 374.5 478.5C373.343 487.948 371.677 497.281 369.5 506.5C313.153 496.942 256.82 487.275 200.5 477.5C201.725 468.481 203.059 459.481 204.5 450.5Z" fill="#FDD001"/>
<path fill-rule="evenodd" clip-rule="evenodd" d="M593.5 476.5C601.317 475.85 607.984 478.184 613.5 483.5C611.183 486.317 608.683 488.984 606 491.5C602.51 487.953 598.343 486.786 593.5 488C590.808 490.632 591.141 492.966 594.5 495C601.725 497.193 607.892 501.026 613 506.5C616.325 517.017 612.825 524.183 602.5 528C594.23 529.613 586.563 528.28 579.5 524C578.426 523.261 577.759 522.261 577.5 521C579.298 518.034 581.631 515.534 584.5 513.5C587.455 516.283 590.955 517.95 595 518.5C600.634 517.945 602.134 515.445 599.5 511C592.275 508.807 586.108 504.974 581 499.5C577.624 487.714 581.79 480.048 593.5 476.5Z" fill="#FEFAF8"/>
<path fill-rule="evenodd" clip-rule="evenodd" d="M656.5 488.5C656.5 485.167 656.5 481.833 656.5 478.5C643.5 478.5 630.5 478.5 617.5 478.5C617.5 481.833 617.5 485.167 617.5 488.5C616.518 485.038 616.185 481.371 616.5 477.5C630.167 477.5 643.833 477.5 657.5 477.5C657.815 481.371 657.482 485.038 656.5 488.5Z" fill="#FCBEA6"/>
<path fill-rule="evenodd" clip-rule="evenodd" d="M755.5 476.5C764.928 475.972 772.928 478.972 779.5 485.5C776.505 488.325 773.338 490.992 770 493.5C763.577 487.389 756.911 487.056 750 492.5C744.798 500.711 745.631 508.211 752.5 515C759.214 518.577 765.38 517.743 771 512.5C773.951 514.447 776.618 516.781 779 519.5C779.507 520.996 779.007 522.163 777.5 523C766.361 529.854 755.027 530.187 743.5 524C732.478 513.268 730.645 501.101 738 487.5C742.594 481.632 748.427 477.965 755.5 476.5Z" fill="#FEFBFA"/>
<path fill-rule="evenodd" clip-rule="evenodd" d="M532.5 526.5C528.366 527.485 524.032 527.818 519.5 527.5C516.108 522.395 512.941 517.062 510 511.5C508.89 509.963 507.39 509.297 505.5 509.5C505.5 515.833 505.5 522.167 505.5 528.5C501.5 528.5 497.5 528.5 493.5 528.5C493.5 511.5 493.5 494.5 493.5 477.5C501.174 477.334 508.841 477.5 516.5 478C529.149 482.128 532.982 490.294 528 502.5C525.984 504.684 523.817 506.684 521.5 508.5C525.178 514.528 528.844 520.528 532.5 526.5Z" fill="#FEFBF9"/>
<path fill-rule="evenodd" clip-rule="evenodd" d="M570.5 488.5C564.5 488.5 558.5 488.5 552.5 488.5C552.5 491.167 552.5 493.833 552.5 496.5C557.833 496.5 563.167 496.5 568.5 496.5C568.5 500.167 568.5 503.833 568.5 507.5C563.167 507.5 557.833 507.5 552.5 507.5C552.5 510.833 552.5 514.167 552.5 517.5C558.833 517.5 565.167 517.5 571.5 517.5C571.5 520.833 571.5 524.167 571.5 527.5C561.167 527.5 550.833 527.5 540.5 527.5C540.5 511.167 540.5 494.833 540.5 478.5C550.5 478.5 560.5 478.5 570.5 478.5C570.5 481.833 570.5 485.167 570.5 488.5Z" fill="#FEFDFC"/>
<path fill-rule="evenodd" clip-rule="evenodd" d="M656.5 488.5C652.167 488.5 647.833 488.5 643.5 488.5C643.5 501.5 643.5 514.5 643.5 527.5C639.5 527.5 635.5 527.5 631.5 527.5C631.829 514.323 631.495 501.323 630.5 488.5C626.167 488.5 621.833 488.5 617.5 488.5C617.5 485.167 617.5 481.833 617.5 478.5C630.5 478.5 643.5 478.5 656.5 478.5C656.5 481.833 656.5 485.167 656.5 488.5Z" fill="#FEFEFE"/>
<path fill-rule="evenodd" clip-rule="evenodd" d="M681.5 510.5C680.432 509.566 679.099 509.232 677.5 509.5C677.5 515.5 677.5 521.5 677.5 527.5C673.702 528.483 669.702 528.817 665.5 528.5C665.5 511.5 665.5 494.5 665.5 477.5C674.235 477.124 682.902 477.624 691.5 479C701.635 483.375 704.802 490.875 701 501.5C699.305 504.695 696.805 507.028 693.5 508.5C697.5 514.833 701.5 521.167 705.5 527.5C700.869 528.662 696.202 528.828 691.5 528C688.028 522.221 684.695 516.387 681.5 510.5Z" fill="#FEF9F7"/>
<path fill-rule="evenodd" clip-rule="evenodd" d="M725.5 477.5C725.5 478.167 725.5 478.833 725.5 479.5C724.504 495.325 724.17 511.325 724.5 527.5C720.5 527.5 716.5 527.5 712.5 527.5C712.5 510.833 712.5 494.167 712.5 477.5C716.833 477.5 721.167 477.5 725.5 477.5Z" fill="#FEFCFA"/>
<path fill-rule="evenodd" clip-rule="evenodd" d="M783.5 477.5C796.833 477.5 810.167 477.5 823.5 477.5C823.5 481.167 823.5 484.833 823.5 488.5C819.167 488.5 814.833 488.5 810.5 488.5C810.5 501.833 810.5 515.167 810.5 528.5C806.167 528.5 801.833 528.5 797.5 528.5C797.5 515.167 797.5 501.833 797.5 488.5C792.833 488.5 788.167 488.5 783.5 488.5C783.5 484.833 783.5 481.167 783.5 477.5Z" fill="#FFF9F7"/>
<path fill-rule="evenodd" clip-rule="evenodd" d="M830.5 477.5C840.833 477.5 851.167 477.5 861.5 477.5C861.5 481.167 861.5 484.833 861.5 488.5C855.5 488.5 849.5 488.5 843.5 488.5C843.5 491.167 843.5 493.833 843.5 496.5C848.833 496.5 854.167 496.5 859.5 496.5C859.5 500.167 859.5 503.833 859.5 507.5C854.167 507.5 848.833 507.5 843.5 507.5C843.5 510.833 843.5 514.167 843.5 517.5C849.833 517.5 856.167 517.5 862.5 517.5C862.5 521.167 862.5 524.833 862.5 528.5C851.833 528.5 841.167 528.5 830.5 528.5C830.5 511.5 830.5 494.5 830.5 477.5Z" fill="#FFF9F6"/>
<path fill-rule="evenodd" clip-rule="evenodd" d="M871.5 477.5C879.174 477.334 886.841 477.5 894.5 478C915.225 484.497 921.059 497.663 912 517.5C906.862 523.486 900.362 526.986 892.5 528C885.508 528.5 878.508 528.666 871.5 528.5C871.5 511.5 871.5 494.5 871.5 477.5Z" fill="#FFF9F7"/>
<path fill-rule="evenodd" clip-rule="evenodd" d="M505.5 488.5C509.584 488.043 513.417 488.71 517 490.5C517.978 493.669 517.478 496.503 515.5 499C512.312 500.316 508.978 500.816 505.5 500.5C505.5 496.5 505.5 492.5 505.5 488.5Z" fill="#F54119"/>
<path fill-rule="evenodd" clip-rule="evenodd" d="M677.5 488.5C681.584 488.043 685.417 488.71 689 490.5C691.385 494.457 690.552 497.624 686.5 500C683.518 500.498 680.518 500.665 677.5 500.5C677.5 496.5 677.5 492.5 677.5 488.5Z" fill="#F64821"/>
<path fill-rule="evenodd" clip-rule="evenodd" d="M884.5 488.5C899.321 488.147 905.155 495.147 902 509.5C897.959 515.82 892.126 518.486 884.5 517.5C884.5 507.833 884.5 498.167 884.5 488.5Z" fill="#F6421B"/>
<path fill-rule="evenodd" clip-rule="evenodd" d="M630.5 488.5C631.495 501.323 631.829 514.323 631.5 527.5C635.5 527.5 639.5 527.5 643.5 527.5C639.366 528.485 635.032 528.818 630.5 528.5C630.5 515.167 630.5 501.833 630.5 488.5Z" fill="#FDB296"/>
<path fill-rule="evenodd" clip-rule="evenodd" d="M570.5 488.5C570.5 485.167 570.5 481.833 570.5 478.5C560.5 478.5 550.5 478.5 540.5 478.5C540.5 494.833 540.5 511.167 540.5 527.5C550.833 527.5 561.167 527.5 571.5 527.5C561.013 528.494 550.346 528.828 539.5 528.5C539.5 511.5 539.5 494.5 539.5 477.5C550.167 477.5 560.833 477.5 571.5 477.5C571.815 481.371 571.482 485.038 570.5 488.5Z" fill="#FBAF94"/>
<path fill-rule="evenodd" clip-rule="evenodd" d="M201.5 497.5C202.167 497.5 202.5 497.833 202.5 498.5C203.626 500.453 205.292 501.953 207.5 503C250.51 510.557 293.51 518.224 336.5 526C343.459 527.331 350.459 527.664 357.5 527C359.996 525.669 361.996 523.836 363.5 521.5C363.738 519.596 364.738 518.262 366.5 517.5C383.36 542.542 400.86 567.209 419 591.5C426.393 600.62 431.393 610.953 434 622.5C434.5 642.497 434.667 662.497 434.5 682.5C433.753 720.159 433.253 757.826 433 795.5C432.59 796.901 432.09 798.234 431.5 799.5C424.441 805.858 416.108 809.191 406.5 809.5C393.988 808.777 381.322 808.11 368.5 807.5C367.274 807.52 366.274 807.853 365.5 808.5C363.597 808.204 361.93 807.537 360.5 806.5C356.47 803.823 351.97 800.823 347 797.5C346.667 745.5 346.333 693.5 346 641.5C345.75 638.246 344.75 635.246 343 632.5C342.31 631.262 341.81 631.262 341.5 632.5C340.833 632.167 340.167 631.833 339.5 631.5C322.35 609.894 305.184 588.227 288 566.5C277.35 596.757 266.85 627.09 256.5 657.5C254.945 660.94 253.112 664.273 251 667.5C220.857 700.132 191.69 733.466 163.5 767.5C158.806 771.527 154.473 775.86 150.5 780.5C142.16 778.998 134.493 775.831 127.5 771C117.029 764.008 107.195 756.175 97.9998 747.5C90.3317 738.161 87.3317 727.494 88.9998 715.5C90.1762 713.804 91.3428 712.138 92.4998 710.5C116.949 680.639 142.115 651.306 168 622.5C179.04 580.663 190.207 538.996 201.5 497.5Z" fill="#FECF00"/>
<path fill-rule="evenodd" clip-rule="evenodd" d="M725.5 477.5C721.167 477.5 716.833 477.5 712.5 477.5C712.5 494.167 712.5 510.833 712.5 527.5C711.503 510.675 711.17 493.675 711.5 476.5C716.363 476.181 721.03 476.514 725.5 477.5Z" fill="#F61000"/>
<path fill-rule="evenodd" clip-rule="evenodd" d="M200.5 477.5C256.82 487.275 313.153 496.942 369.5 506.5C368.965 510.309 367.965 513.976 366.5 517.5C364.738 518.262 363.738 519.596 363.5 521.5C360.832 523.501 357.832 525.001 354.5 526C352.167 526.667 349.833 526.667 347.5 526C303.146 518.441 258.813 510.774 214.5 503C210.17 502.333 206.17 500.833 202.5 498.5C202.5 497.833 202.167 497.5 201.5 497.5C198.024 491.016 197.691 484.349 200.5 477.5Z" fill="#41C150"/>
<path fill-rule="evenodd" clip-rule="evenodd" d="M202.5 498.5C206.17 500.833 210.17 502.333 214.5 503C258.813 510.774 303.146 518.441 347.5 526C349.833 526.667 352.167 526.667 354.5 526C357.832 525.001 360.832 523.501 363.5 521.5C361.996 523.836 359.996 525.669 357.5 527C350.459 527.664 343.459 527.331 336.5 526C293.51 518.224 250.51 510.557 207.5 503C205.292 501.953 203.626 500.453 202.5 498.5Z" fill="#F4D905"/>
<path fill-rule="evenodd" clip-rule="evenodd" d="M725.5 479.5C725.5 495.833 725.5 512.167 725.5 528.5C720.968 528.818 716.634 528.485 712.5 527.5C716.5 527.5 720.5 527.5 724.5 527.5C724.17 511.325 724.504 495.325 725.5 479.5Z" fill="#FDD1BE"/>
<path fill-rule="evenodd" clip-rule="evenodd" d="M681.5 510.5C680.5 510.5 679.5 510.5 678.5 510.5C678.822 516.358 678.489 522.025 677.5 527.5C677.5 521.5 677.5 515.5 677.5 509.5C679.099 509.232 680.432 509.566 681.5 510.5Z" fill="#F98463"/>
<path fill-rule="evenodd" clip-rule="evenodd" d="M532.5 526.5C533.043 526.56 533.376 526.893 533.5 527.5C528.682 528.812 524.015 528.812 519.5 527.5C524.032 527.818 528.366 527.485 532.5 526.5Z" fill="#FAAB90"/>
<path fill-rule="evenodd" clip-rule="evenodd" d="M712.5 543.5C722.653 542.506 732.986 542.172 743.5 542.5C743.815 546.371 743.482 550.038 742.5 553.5C742.5 550.167 742.5 546.833 742.5 543.5C732.5 543.5 722.5 543.5 712.5 543.5Z" fill="#FDD8C2"/>
<path fill-rule="evenodd" clip-rule="evenodd" d="M629.5 542.5C633.555 542.176 637.555 542.509 641.5 543.5C647.544 559.802 653.877 575.969 660.5 592C656.129 592.828 651.795 592.661 647.5 591.5C645.895 588.686 644.895 585.686 644.5 582.5C638.463 582.171 632.463 582.504 626.5 583.5C624.895 586.314 623.895 589.314 623.5 592.5C619.154 592.666 614.821 592.499 610.5 592C616.983 575.539 623.316 559.039 629.5 542.5Z" fill="#FEFCFA"/>
<path fill-rule="evenodd" clip-rule="evenodd" d="M665.5 542.5C673.174 542.334 680.841 542.5 688.5 543C700.123 546.415 704.289 553.915 701 565.5C698.994 568.672 696.494 571.338 693.5 573.5C697.167 579.5 700.833 585.5 704.5 591.5C699.833 592.833 695.167 592.833 690.5 591.5C687.5 586.167 684.5 580.833 681.5 575.5C680.311 574.571 678.978 574.238 677.5 574.5C677.5 580.5 677.5 586.5 677.5 592.5C673.5 592.5 669.5 592.5 665.5 592.5C665.5 575.833 665.5 559.167 665.5 542.5Z" fill="#FEFAF8"/>
<path fill-rule="evenodd" clip-rule="evenodd" d="M712.5 543.5C722.5 543.5 732.5 543.5 742.5 543.5C742.5 546.833 742.5 550.167 742.5 553.5C736.5 553.5 730.5 553.5 724.5 553.5C724.5 556.167 724.5 558.833 724.5 561.5C729.833 561.5 735.167 561.5 740.5 561.5C740.5 564.833 740.5 568.167 740.5 571.5C735.167 571.5 729.833 571.5 724.5 571.5C724.5 574.833 724.5 578.167 724.5 581.5C730.833 581.5 737.167 581.5 743.5 581.5C743.211 585.106 743.544 588.606 744.5 592C733.839 592.5 723.172 592.667 712.5 592.5C712.5 576.167 712.5 559.833 712.5 543.5Z" fill="#FEFCFB"/>
<path fill-rule="evenodd" clip-rule="evenodd" d="M767.5 542.5C771.437 542.207 775.27 542.54 779 543.5C784.975 559.762 791.142 575.928 797.5 592C793.179 592.499 788.846 592.666 784.5 592.5C783.801 589.427 782.801 586.427 781.5 583.5C775.537 582.504 769.537 582.171 763.5 582.5C762.672 591.867 757.672 594.867 748.5 591.5C755.038 575.217 761.371 558.883 767.5 542.5Z" fill="#FEFCFA"/>
<path fill-rule="evenodd" clip-rule="evenodd" d="M677.5 553.5C680.85 553.335 684.183 553.502 687.5 554C691.5 557.333 691.5 560.667 687.5 564C684.312 565.316 680.978 565.816 677.5 565.5C677.5 561.5 677.5 557.5 677.5 553.5Z" fill="#F74A24"/>
<path fill-rule="evenodd" clip-rule="evenodd" d="M457.5 454.5C458.333 508.665 458.833 562.998 459 617.5C459.791 618.745 460.291 620.078 460.5 621.5C459.21 620.942 458.377 619.942 458 618.5C457.5 564.168 457.333 509.834 457.5 455.5C457.5 455.167 457.5 454.833 457.5 454.5Z" fill="#F50D00"/>
<path fill-rule="evenodd" clip-rule="evenodd" d="M950.5 449.5C950.667 505.168 950.5 560.834 950 616.5C949.434 619.229 947.934 621.229 945.5 622.5C946.64 620.22 947.807 617.886 949 615.5C949.167 559.998 949.667 504.665 950.5 449.5Z" fill="#F61701"/>
<path fill-rule="evenodd" clip-rule="evenodd" d="M772.5 557.5C774.537 562.617 776.204 567.95 777.5 573.5C774.102 573.82 770.768 573.487 767.5 572.5C769.017 567.422 770.684 562.422 772.5 557.5Z" fill="#F84722"/>
<path fill-rule="evenodd" clip-rule="evenodd" d="M640.5 572.5C636.958 572.813 633.625 572.479 630.5 571.5C631.893 566.82 633.393 562.154 635 557.5C636.927 562.446 638.76 567.446 640.5 572.5Z" fill="#F5431C"/>
<path fill-rule="evenodd" clip-rule="evenodd" d="M339.5 631.5C311.913 640.138 284.246 648.805 256.5 657.5C266.85 627.09 277.35 596.757 288 566.5C305.184 588.227 322.35 609.894 339.5 631.5Z" fill="#FEFEFD"/>
<path fill-rule="evenodd" clip-rule="evenodd" d="M630.5 571.5C633.625 572.479 636.958 572.813 640.5 572.5C636.981 573.808 633.315 573.808 629.5 572.5C629.624 571.893 629.957 571.56 630.5 571.5Z" fill="#FC9977"/>
<path fill-rule="evenodd" clip-rule="evenodd" d="M943.5 624.5C933.218 625.452 922.885 625.786 912.5 625.5C900.5 625.5 888.5 625.5 876.5 625.5C761.833 625.5 647.167 625.5 532.5 625.5C668.516 624.829 804.683 624.163 941 623.5C942.07 623.528 942.903 623.861 943.5 624.5Z" fill="#F51002"/>
<path fill-rule="evenodd" clip-rule="evenodd" d="M496.5 626.5C496.5 626.167 496.5 625.833 496.5 625.5C508.5 625.5 520.5 625.5 532.5 625.5C532.5 632.833 532.5 640.167 532.5 647.5C531.509 640.687 531.175 633.687 531.5 626.5C519.833 626.5 508.167 626.5 496.5 626.5Z" fill="#F8DB42"/>
<path fill-rule="evenodd" clip-rule="evenodd" d="M532.5 625.5C647.167 625.5 761.833 625.5 876.5 625.5C876.5 632.833 876.5 640.167 876.5 647.5C761.833 647.5 647.167 647.5 532.5 647.5C532.5 640.167 532.5 632.833 532.5 625.5Z" fill="#FFFCFB"/>
<path fill-rule="evenodd" clip-rule="evenodd" d="M876.5 625.5C888.5 625.5 900.5 625.5 912.5 625.5C912.5 632.833 912.5 640.167 912.5 647.5C923.603 647.046 934.603 647.546 945.5 649C947.726 650.227 949.226 652.061 950 654.5C950.667 664.5 950.667 674.5 950 684.5C949.167 688 947 690.167 943.5 691C933.172 691.5 922.839 691.666 912.5 691.5C912.5 721.5 912.5 751.5 912.5 781.5C912.5 792.167 912.5 802.833 912.5 813.5C912.666 823.172 912.5 832.839 912 842.5C911.727 844.329 910.893 845.829 909.5 847C900.602 848.609 891.602 848.942 882.5 848C881.058 847.623 880.058 846.79 879.5 845.5C879.192 824.185 878.192 803.185 876.5 782.5C876.5 781.833 876.5 781.167 876.5 780.5C876.5 750.833 876.5 721.167 876.5 691.5C761.833 691.5 647.167 691.5 532.5 691.5C532.5 705.167 532.5 718.833 532.5 732.5C532.667 768.502 532.5 804.502 532 840.5C531.394 843.548 529.894 846.048 527.5 848C519.167 848.667 510.833 848.667 502.5 848C499.619 846.749 497.786 844.583 497 841.5C496.5 799.168 496.333 756.835 496.5 714.5C496.5 706.833 496.5 699.167 496.5 691.5C486.494 691.666 476.494 691.5 466.5 691C463.055 689.612 460.889 687.112 460 683.5C459.333 674.833 459.333 666.167 460 657.5C460.272 652.562 462.772 649.396 467.5 648C477.161 647.5 486.828 647.334 496.5 647.5C496.5 640.5 496.5 633.5 496.5 626.5C508.167 626.5 519.833 626.5 531.5 626.5C531.175 633.687 531.509 640.687 532.5 647.5C647.167 647.5 761.833 647.5 876.5 647.5C876.5 640.167 876.5 632.833 876.5 625.5Z" fill="#FECF04"/>
<path fill-rule="evenodd" clip-rule="evenodd" d="M339.5 631.5C340.167 631.833 340.833 632.167 341.5 632.5C342.594 634.359 343.427 636.359 344 638.5C344.171 691.904 344.671 745.237 345.5 798.5C344.67 808.325 344.17 818.325 344 828.5C342.708 827.209 341.542 827.209 340.5 828.5C281.595 807.881 222.595 787.547 163.5 767.5C191.69 733.466 220.857 700.132 251 667.5C253.112 664.273 254.945 660.94 256.5 657.5C284.246 648.805 311.913 640.138 339.5 631.5Z" fill="#E06E24"/>
<path fill-rule="evenodd" clip-rule="evenodd" d="M360.5 806.5C355.051 804.61 350.051 801.943 345.5 798.5C344.671 745.237 344.171 691.904 344 638.5C343.427 636.359 342.594 634.359 341.5 632.5C341.81 631.262 342.31 631.262 343 632.5C344.75 635.246 345.75 638.246 346 641.5C346.333 693.5 346.667 745.5 347 797.5C351.97 800.823 356.47 803.823 360.5 806.5Z" fill="#FDDE01"/>
<path fill-rule="evenodd" clip-rule="evenodd" d="M876.5 780.5C789.493 779.077 702.493 777.244 615.5 775C587.567 761.367 559.9 747.2 532.5 732.5C532.5 718.833 532.5 705.167 532.5 691.5C647.167 691.5 761.833 691.5 876.5 691.5C876.5 721.167 876.5 750.833 876.5 780.5Z" fill="#FEFEFE"/>
<path fill-rule="evenodd" clip-rule="evenodd" d="M92.5 710.5C91.343 712.138 90.1764 713.804 89 715.5C87.3319 727.494 90.3319 738.161 98 747.5C107.195 756.175 117.029 764.008 127.5 771C134.493 775.831 142.16 778.998 150.5 780.5C149.697 781.423 149.53 782.423 150 783.5C165.59 796.384 167.423 810.884 155.5 827C146.11 835.427 136.11 836.427 125.5 830C106 811.167 86.5 792.333 67 773.5C60.1893 764.956 58.5226 755.622 62 745.5C64.9798 741.686 68.1465 738.019 71.5 734.5C61.828 731.443 52.1613 728.276 42.5 725C59.1617 720.056 75.8284 715.223 92.5 710.5Z" fill="#057BD1"/>
<path d="M92.5 710.5L42.4209 725L71.4209 734.5L89 715.5L92.5 710.5Z" fill="#E06E24"/>
<path fill-rule="evenodd" clip-rule="evenodd" d="M912.5 781.5C923.518 781.557 934.518 782.057 945.5 783C934.63 793.372 923.63 803.539 912.5 813.5C912.5 802.833 912.5 792.167 912.5 781.5Z" fill="#FD741B"/>
<path fill-rule="evenodd" clip-rule="evenodd" d="M876.5 782.5C878.192 803.185 879.192 824.185 879.5 845.5C879.167 845.5 878.833 845.5 878.5 845.5C878.013 844.527 877.513 843.527 877 842.5C876.5 822.503 876.333 802.503 876.5 782.5Z" fill="#FEE203"/>
<path fill-rule="evenodd" clip-rule="evenodd" d="M345.5 798.5C350.051 801.943 355.051 804.61 360.5 806.5C361.93 807.537 363.597 808.204 365.5 808.5C379.13 809.446 392.797 809.78 406.5 809.5C416.108 809.191 424.441 805.858 431.5 799.5C441.586 801.043 450.586 805.043 458.5 811.5C465.803 820.912 467.303 831.246 463 842.5C460.894 846.604 458.061 850.104 454.5 853C443.931 854.287 433.265 854.954 422.5 855C427.359 856.489 431.359 858.322 434.5 860.5C429.09 858.974 423.756 857.141 418.5 855C397.782 854.954 377.116 854.287 356.5 853C353.098 851.6 350.264 849.433 348 846.5C346.001 841.02 344.834 835.354 344.5 829.5C343.041 829.567 341.708 829.234 340.5 828.5C341.542 827.209 342.708 827.209 344 828.5C344.17 818.325 344.67 808.325 345.5 798.5Z" fill="#057BD1"/>
<path fill-rule="evenodd" clip-rule="evenodd" d="M365.5 808.5C366.274 807.853 367.274 807.52 368.5 807.5C381.322 808.11 393.988 808.777 406.5 809.5C392.797 809.78 379.13 809.446 365.5 808.5Z" fill="#FEF601"/>
<path fill-rule="evenodd" clip-rule="evenodd" d="M434.5 682.5C454.88 693.69 475.546 704.357 496.5 714.5C496.333 756.835 496.5 799.168 497 841.5C497.786 844.583 499.619 846.749 502.5 848C510.833 848.667 519.167 848.667 527.5 848C529.894 846.048 531.394 843.548 532 840.5C532.5 804.502 532.667 768.502 532.5 732.5C559.9 747.2 587.567 761.367 615.5 775C702.493 777.244 789.493 779.077 876.5 780.5C876.5 781.167 876.5 781.833 876.5 782.5C876.333 802.503 876.5 822.503 877 842.5C877.513 843.527 878.013 844.527 878.5 845.5C832.963 886.127 787.963 927.461 743.5 969.5C640.335 933.407 537.335 897.074 434.5 860.5C431.359 858.322 427.359 856.489 422.5 855C433.265 854.954 443.931 854.287 454.5 853C458.061 850.104 460.894 846.604 463 842.5C467.303 831.246 465.803 820.912 458.5 811.5C450.586 805.043 441.586 801.043 431.5 799.5C432.09 798.234 432.59 796.901 433 795.5C433.253 757.826 433.753 720.159 434.5 682.5Z" fill="#FD741B"/>
</svg>
