<svg width="1024" height="1024" viewBox="0 0 1024 1024" fill="none" xmlns="http://www.w3.org/2000/svg">
<path fill-rule="evenodd" clip-rule="evenodd" d="M337.03 66.3098C347.976 65.1023 358.112 67.4248 367.439 73.2786C370.741 75.7341 373.063 78.9017 374.408 82.7815C377.511 126.651 380.467 170.574 383.277 214.555C386.025 228.49 393.839 232.079 406.717 225.325C407.934 223.527 408.989 221.626 409.885 219.623C409.013 178.598 407.113 137.631 404.183 96.719C482.274 124.865 518.807 180.616 513.783 263.97C521.875 271.424 529.266 279.448 535.957 288.044C407.969 315.061 279.997 315.061 152.04 288.044C160.087 279.788 167.9 271.34 175.481 262.703C170.975 181.309 206.663 125.982 282.546 96.719C282.968 102.209 283.392 107.701 283.813 113.191C281.595 148.677 279.694 184.154 278.112 219.623C282.889 228.383 289.857 230.706 299.018 226.592C304.314 221.696 306.637 215.572 305.987 208.22C309.027 167.709 311.561 127.164 313.589 86.5826C317.53 75.2324 325.344 68.4752 337.03 66.3098Z" fill="#0285D0"/>
<path fill-rule="evenodd" clip-rule="evenodd" d="M191.319 323.521C242.169 330.477 293.273 333.433 344.632 332.39C395.94 332.861 447.044 329.905 497.945 323.521C502.17 398.489 473.027 456.14 410.519 496.473C370.401 518.999 329.434 520.688 287.615 501.541C234.64 473.016 203.174 428.881 193.219 369.134C191.562 353.979 190.928 338.775 191.319 323.521Z" fill="#FDC812"/>
<path fill-rule="evenodd" clip-rule="evenodd" d="M494.144 526.249C494.144 619.166 494.144 712.084 494.144 805.001C449.375 805.001 404.605 805.001 359.836 805.001C359.625 780.079 359.836 755.16 360.47 730.245C394.081 672.324 425.757 613.196 455.499 552.858C461.151 540.753 466.431 528.505 471.337 516.113C478.871 519.747 486.473 523.125 494.144 526.249Z" fill="#4EAD3F"/>
<path fill-rule="evenodd" clip-rule="evenodd" d="M243.268 507.243C268.953 524.721 297.25 535.913 328.16 540.82C355.768 542.986 382.376 538.763 407.984 528.15C420.882 521.286 433.552 514.529 445.996 507.877C415.483 574.607 381.484 639.439 343.998 702.369C313.666 649.737 284.946 596.099 257.839 541.454C252.85 530.072 247.994 518.668 243.268 507.243Z" fill="#FDCA15"/>
<path fill-rule="evenodd" clip-rule="evenodd" d="M188.785 528.783C190.896 620.637 192.163 712.71 192.586 805.001C238.2 805.001 283.814 805.001 329.427 805.001C329.427 824.428 329.427 843.857 329.427 863.285C228.063 863.285 126.699 863.285 25.335 863.285C27.3812 843.619 29.9154 824.19 32.9373 805.001C65.0355 805.001 97.135 805.001 129.233 805.001C127.549 818.724 133.463 825.27 146.972 824.64C150.562 822.739 153.307 819.994 155.208 816.404C155.419 725.174 156.053 633.946 157.108 542.721C167.545 537.711 178.105 533.066 188.785 528.783Z" fill="#FECF00"/>
<path fill-rule="evenodd" clip-rule="evenodd" d="M494.143 526.249C495.4 526.031 496.244 526.454 496.678 527.516C495.412 620.22 494.989 713.137 495.41 806.268C450.219 806.268 405.028 806.268 359.836 806.268C359.836 805.846 359.836 805.423 359.836 805.001C404.605 805.001 449.375 805.001 494.143 805.001C494.143 712.084 494.143 619.166 494.143 526.249Z" fill="#ABBD27"/>
<path fill-rule="evenodd" clip-rule="evenodd" d="M188.784 528.784C189.683 527.638 190.95 527.216 192.585 527.516C192.585 620.011 192.585 712.506 192.585 805.001C192.162 712.71 190.895 620.637 188.784 528.784Z" fill="#E9C819"/>
<path fill-rule="evenodd" clip-rule="evenodd" d="M129.232 805.001C97.1342 805.001 65.0348 805.001 32.9365 805.001C35.9736 766.895 39.9864 728.884 44.9735 690.966C50.2584 632.172 77.9219 587.825 127.965 557.925C129.232 640.28 129.654 722.638 129.232 805.001Z" fill="#4FAD3F"/>
<path fill-rule="evenodd" clip-rule="evenodd" d="M329.428 805.001C283.814 805.001 238.2 805.001 192.586 805.001C192.586 712.506 192.586 620.011 192.586 527.516C199.917 523.331 207.73 519.952 216.026 517.38C250.617 590.364 288.207 661.741 328.794 731.512C329.428 756.004 329.639 780.501 329.428 805.001Z" fill="#4EAD3F"/>
<path fill-rule="evenodd" clip-rule="evenodd" d="M496.678 527.516C509.501 532.132 521.96 537.622 534.056 543.988C534.478 635.216 534.901 726.444 535.323 817.671C540.032 825.358 546.579 827.259 554.962 823.373C560.466 818.462 562.578 812.338 561.297 805.001C593.395 805.001 625.495 805.001 657.593 805.001C660.009 824.398 662.122 843.826 663.928 863.285C562.564 863.285 461.2 863.285 359.836 863.285C359.836 844.279 359.836 825.274 359.836 806.268C405.028 806.268 450.219 806.268 495.41 806.268C494.989 713.137 495.412 620.22 496.678 527.516Z" fill="#FECF00"/>
<path fill-rule="evenodd" clip-rule="evenodd" d="M25.3346 863.284C126.699 863.284 228.063 863.284 329.427 863.284C329.427 894.539 329.427 925.792 329.427 957.046C241.965 957.651 154.538 957.017 67.1473 955.146C44.4278 948.054 29.8567 933.06 23.434 910.165C22.4736 894.468 23.1071 878.84 25.3346 863.284Z" fill="#4EAD3F"/>
<path fill-rule="evenodd" clip-rule="evenodd" d="M359.836 863.287C461.2 863.287 562.564 863.287 663.928 863.287C665.498 875.066 666.765 886.893 667.73 898.764C665.603 928.148 650.399 946.944 622.116 955.148C534.73 957.023 447.303 957.657 359.836 957.048C359.836 925.794 359.836 894.541 359.836 863.287Z" fill="#4EAD3F"/>
<path d="M981.636 438.574H969.554C968.194 438.574 966.945 439.315 966.293 440.506L959.914 452.157H985.355V442.29C985.356 440.24 983.69 438.574 981.636 438.574Z" fill="#90BED3"/>
<path d="M630.362 472.234C630.362 472.234 615.234 466.972 608.19 454.638C607.062 452.661 604.767 451.672 602.605 452.392L602.522 452.42C600.627 453.052 599.345 454.809 599.341 456.806C599.321 465.077 600.717 486.609 614.903 498.457L630.362 472.234Z" fill="#90BED3"/>
<path d="M658.544 452.157L659.66 447.372C660.419 444.124 662.903 441.557 666.125 440.692L686.108 435.33C689.577 434.399 692.986 437.013 692.986 440.606V452.156L658.544 452.157Z" fill="#90BED3"/>
<path d="M734.377 560.253C734.377 560.253 736.16 578.383 754.789 586.023C758.01 587.345 760.808 583.467 758.72 580.681C754.053 574.453 749.738 565.121 753.123 554.043H740.587C737.157 554.042 734.377 556.823 734.377 560.253Z" fill="#90BED3"/>
<path d="M986.312 448.945H649.456C641.326 448.945 633.873 453.469 630.119 460.678L603.944 510.953C599.946 518.631 602.532 528.092 609.876 532.669L617.769 537.588C630.741 545.673 636.351 561.688 631.256 576.1L595.525 677.179C593.523 682.842 592.785 688.875 593.364 694.854L594.812 709.813C595.62 718.155 602.63 724.52 611.011 724.52H686.844C699.522 724.52 696.602 713.815 693.703 707.385C692.166 703.972 691.921 700.124 692.924 696.519L706.937 646.163C712.045 627.803 728.681 614.787 747.737 614.876C747.933 614.877 748.131 614.879 748.327 614.882L789.596 614.878C804.122 614.876 816.581 604.519 819.234 590.237L823.538 567.074C823.967 564.77 824.644 562.516 825.569 560.38C828.265 554.164 834.355 550.091 841.106 549.513L987.578 536.968C995.261 536.31 1001.16 529.882 1001.16 522.172V463.797C1001.16 455.594 994.513 448.945 986.312 448.945ZM808.455 579.842C807.903 591.621 798.417 601.011 786.634 601.444L742.796 603.053C736.217 603.295 730.808 597.914 731.016 591.334L731.497 576.04C731.828 565.529 740.163 557.027 750.666 556.488L797.92 554.058C804.225 553.735 809.436 558.921 809.14 565.228L808.455 579.842Z" fill="#C8D2E1"/>
<path d="M670.278 557.669H707.906C713.376 557.669 717.225 563.044 715.465 568.223L673.938 690.337C671.611 697.177 665.189 701.777 657.964 701.777H625.958C617.869 701.777 611.033 695.782 609.978 687.762L609.917 687.298C609.574 684.699 609.871 682.053 610.784 679.595L651.004 571.08C653.994 563.019 661.681 557.669 670.278 557.669Z" fill="#517F93"/>
<path d="M602.489 514.968C601.548 519.143 602.264 523.49 604.415 527.099H1000.28C1000.83 525.549 1001.16 523.901 1001.16 522.172V514.968H602.489Z" fill="#517F93"/>
<path d="M653.154 502.039C650.529 502.039 648.82 499.279 649.99 496.93L667.402 461.977C668 460.777 669.226 460.019 670.566 460.019C673.189 460.019 674.899 462.779 673.728 465.127L656.316 500.08C655.719 501.28 654.493 502.039 653.154 502.039Z" fill="#90BED3"/>
<path d="M672.83 502.039C670.206 502.039 668.497 499.279 669.667 496.93L687.08 461.977C687.678 460.777 688.903 460.019 690.243 460.019C692.867 460.019 694.576 462.779 693.406 465.127L675.994 500.08C675.395 501.28 674.17 502.039 672.83 502.039Z" fill="#90BED3"/>
<path d="M692.002 502.039C689.379 502.039 687.67 499.279 688.84 496.93L706.252 461.977C706.851 460.777 708.075 460.019 709.415 460.019C712.039 460.019 713.749 462.779 712.579 465.127L695.166 500.08C694.568 501.28 693.343 502.039 692.002 502.039Z" fill="#90BED3"/>
<path d="M711.683 502.039C709.06 502.039 707.35 499.279 708.521 496.93L725.933 461.977C726.531 460.777 727.756 460.019 729.096 460.019C731.72 460.019 733.429 462.779 732.259 465.127L714.846 500.08C714.248 501.28 713.023 502.039 711.683 502.039Z" fill="#90BED3"/>
<path d="M561.932 559.192C580.324 569.903 595.677 582.705 607.992 597.599L578.397 681.322C575.876 688.455 574.946 696.055 575.676 703.586L577.499 722.43C578.516 732.939 587.348 740.957 597.905 740.957H649.89C652.367 762.318 654.935 783.666 657.594 805H561.298C561.086 723.062 561.298 641.127 561.932 559.192Z" fill="#4FAD3F"/>
<path d="M727.704 332.976V310.616C727.704 306.5 731.041 303.163 735.157 303.163H869.316C873.432 303.163 876.769 306.5 876.769 310.616V332.976H925.215C927.274 332.976 928.942 334.644 928.942 336.702V344.155C928.942 346.213 927.273 347.882 925.215 347.882H679.258C677.199 347.882 675.531 346.213 675.531 344.155V336.702C675.531 334.644 677.2 332.976 679.258 332.976H727.704ZM742.61 250.99C742.61 218.057 769.302 191.364 802.236 191.364C835.169 191.364 861.863 218.055 861.863 250.99V291.983H742.61V250.99ZM839.503 247.263C839.503 228.74 824.487 213.723 805.963 213.723H802.236C800.178 213.723 798.51 215.392 798.51 217.45V224.903C798.51 226.961 800.178 228.629 802.236 228.629H805.963C816.254 228.629 824.596 236.972 824.596 247.262V250.989C824.596 253.047 826.264 254.715 828.322 254.715H835.776C837.834 254.715 839.502 253.047 839.502 250.989V247.263H839.503ZM712.797 243.537C716.914 243.537 720.251 246.873 720.251 250.99C720.251 255.106 716.914 258.443 712.797 258.443H682.985C678.868 258.443 675.531 255.106 675.531 250.99C675.531 246.874 678.868 243.537 682.985 243.537H712.797ZM921.488 243.537C925.605 243.537 928.942 246.873 928.942 250.99C928.942 255.106 925.605 258.443 921.488 258.443H891.675C887.559 258.443 884.222 255.106 884.222 250.99C884.222 246.873 887.559 243.537 891.675 243.537H921.488ZM733.724 193.017L712.643 171.936C705.615 164.909 716.156 154.369 723.183 161.396L744.264 182.477C751.291 189.504 740.75 200.044 733.724 193.017ZM860.209 182.477L881.29 161.395C888.317 154.368 898.858 164.909 891.83 171.936L870.749 193.017C863.723 200.044 853.182 189.504 860.209 182.477ZM794.783 161.551V131.738C794.783 121.8 809.69 121.8 809.69 131.738V161.55C809.69 171.488 794.783 171.488 794.783 161.551Z" fill="#FD4A2F"/>
</svg>
