<svg width="1024" height="1024" viewBox="0 0 1024 1024" fill="none" xmlns="http://www.w3.org/2000/svg">
<g clip-path="url(#clip0_339_4406)">
<path fill-rule="evenodd" clip-rule="evenodd" d="M428.5 272.5C413.578 273.483 398.578 273.816 383.5 273.5C357.839 254.016 332.006 234.682 306 215.5C280.151 234.001 254.985 253.334 230.5 273.5C215.167 273.5 199.833 273.5 184.5 273.5C213.069 250.536 242.069 228.036 271.5 206C259.748 195.002 254.248 181.502 255 165.5C263.841 153.892 273.174 153.559 283 164.5C285.774 179.948 294.94 187.115 310.5 186C326.711 180.033 331.211 169.2 324 153.5C319.203 148.77 313.87 144.77 308 141.5C302.542 134.806 299.209 127.139 298 118.5C297.5 109.173 297.334 99.8393 297.5 90.5C289.493 90.6664 281.493 90.4997 273.5 90C268.901 88.4019 266.068 85.2353 265 80.5C254.501 38.6667 270.168 23.3334 312 34.5C325.167 34.6667 338.333 34.8333 351.5 35C355.641 36.4741 358.474 39.3074 360 43.5C360.667 55.8333 360.667 68.1667 360 80.5C358.932 85.2353 356.099 88.4019 351.5 90C344.508 90.4996 337.508 90.6663 330.5 90.5C330.169 99.1922 330.502 107.859 331.5 116.5C351.939 127.702 361.772 145.035 361 168.5C359.521 183.792 353.021 196.458 341.5 206.5C370.542 228.555 399.542 250.555 428.5 272.5Z" fill="#FECC04"/>
<path fill-rule="evenodd" clip-rule="evenodd" d="M383.5 273.5C332.5 273.5 281.5 273.5 230.5 273.5C254.985 253.334 280.151 234.001 306 215.5C332.006 234.682 357.839 254.016 383.5 273.5Z" fill="#FEFDFB"/>
<path fill-rule="evenodd" clip-rule="evenodd" d="M428.5 272.5C439.758 273.312 451.091 273.812 462.5 274C469.732 276.899 474.565 282.066 477 289.5C477.5 315.498 477.667 341.498 477.5 367.5C446.245 381.778 428.912 406.111 425.5 440.5C413.886 446.335 410.553 455.335 415.5 467.5C328.166 467.667 240.833 467.5 153.5 467C145.225 464.393 140.059 458.893 138 450.5C137.333 396.833 137.333 343.167 138 289.5C140.408 282.091 145.242 276.924 152.5 274C163.161 273.5 173.828 273.333 184.5 273.5C199.833 273.5 215.167 273.5 230.5 273.5C281.5 273.5 332.5 273.5 383.5 273.5C398.578 273.816 413.578 273.483 428.5 272.5Z" fill="#FE8A1E"/>
<path fill-rule="evenodd" clip-rule="evenodd" d="M270.5 318.5C274.639 317.704 277.805 319.037 280 322.5C280.667 354.833 280.667 387.167 280 419.5C277.487 423.212 273.987 424.378 269.5 423C267.951 421.786 266.785 420.286 266 418.5C265.333 386.833 265.333 355.167 266 323.5C267.025 321.313 268.525 319.646 270.5 318.5Z" fill="#F16E0B"/>
<path fill-rule="evenodd" clip-rule="evenodd" d="M409.5 318.5C413.594 317.705 416.761 319.038 419 322.5C419.667 354.5 419.667 386.5 419 418.5C414.833 424.759 410.167 425.092 405 419.5C404.333 387.5 404.333 355.5 405 323.5C406.025 321.313 407.525 319.646 409.5 318.5Z" fill="#F16E0B"/>
<path fill-rule="evenodd" clip-rule="evenodd" d="M339.5 318.5C343.684 317.704 346.85 319.037 349 322.5C349.667 354.833 349.667 387.167 349 419.5C346.487 423.212 342.987 424.378 338.5 423C336.951 421.786 335.785 420.286 335 418.5C334.333 386.833 334.333 355.167 335 323.5C336.025 321.313 337.525 319.646 339.5 318.5Z" fill="#F16F0B"/>
<path fill-rule="evenodd" clip-rule="evenodd" d="M199.5 318.5C204.28 317.641 207.78 319.308 210 323.5C210.667 354.833 210.667 386.167 210 417.5C206.632 424.175 201.965 425.175 196 420.5C195.333 387.833 195.333 355.167 196 322.5C197.102 321.051 198.269 319.718 199.5 318.5Z" fill="#F16E0B"/>
<path fill-rule="evenodd" clip-rule="evenodd" d="M454.756 366.048C493.664 365.045 522.173 379.781 540.282 410.254C546.116 421.131 548.875 432.593 548.559 444.637C553.934 445.336 557.875 447.792 560.383 452.005C559.997 453.396 559.209 454.565 558.018 455.513C543.725 461.326 528.748 465.069 513.087 466.74C473.167 471.799 433.492 470.629 394.059 463.232C385.774 461.631 377.891 459.058 370.412 455.513C367.235 452.737 367.497 450.164 371.2 447.795C373.936 446.341 376.826 445.288 379.871 444.637C381.063 409.183 399.981 384.507 436.626 370.609C442.666 368.741 448.709 367.221 454.756 366.048Z" fill="#0285D0"/>
<path fill-rule="evenodd" clip-rule="evenodd" d="M437.42 384.292C438.471 384.292 439.523 384.292 440.573 384.292C440.705 395.288 440.573 406.281 440.179 417.272C439.128 418.207 438.077 418.207 437.026 417.272C436.382 406.226 436.514 395.233 437.42 384.292Z" fill="#FDFDFE"/>
<path fill-rule="evenodd" clip-rule="evenodd" d="M487.869 384.292C488.92 384.292 489.972 384.292 491.022 384.292C491.154 395.288 491.022 406.281 490.628 417.272C489.578 418.207 488.526 418.207 487.475 417.272C486.831 406.226 486.963 395.233 487.869 384.292Z" fill="#FCFDFD"/>
<path fill-rule="evenodd" clip-rule="evenodd" d="M393.27 471.302C424.449 477.278 455.979 479.266 487.861 477.266C503.576 476.483 519.078 474.495 534.369 471.302C533.563 499.029 518.849 518.559 490.226 529.893C453.132 540.016 423.835 530.777 402.335 502.176C396.352 492.572 393.331 482.28 393.27 471.302Z" fill="#FECE14"/>
<path fill-rule="evenodd" clip-rule="evenodd" d="M501.259 544.977C476.297 544.042 451.336 544.042 426.374 544.977C425.946 544.935 425.684 544.702 425.586 544.276C451.073 543.34 476.561 543.34 502.048 544.276C501.95 544.702 501.687 544.935 501.259 544.977Z" fill="#8BE29C"/>
<path fill-rule="evenodd" clip-rule="evenodd" d="M392.48 543.574C399.248 543.351 405.948 543.586 412.581 544.275C427.558 567.431 442.535 590.587 457.512 613.743C457.906 624.265 458.038 634.791 457.906 645.319C436.097 645.319 414.289 645.319 392.48 645.319C392.48 611.404 392.48 577.488 392.48 543.574Z" fill="#FECE14"/>
<path fill-rule="evenodd" clip-rule="evenodd" d="M501.26 544.978C489.196 563.645 476.715 582.122 463.818 600.412C451.327 581.915 438.847 563.437 426.375 544.978C451.337 544.043 476.298 544.043 501.26 544.978Z" fill="#42D062"/>
<path fill-rule="evenodd" clip-rule="evenodd" d="M515.448 543.574C522.016 543.574 528.586 543.574 535.154 543.574C535.154 577.489 535.154 611.404 535.154 645.319C513.083 645.319 491.011 645.319 468.94 645.319C468.808 635.025 468.94 624.734 469.334 614.445C484.715 590.802 500.086 567.178 515.448 543.574Z" fill="#FECE14"/>
<path fill-rule="evenodd" clip-rule="evenodd" d="M381.448 545.681C381.968 605.239 381.442 664.649 379.871 723.91C361.021 720.578 348.803 710.754 343.217 694.439C341.924 658.207 341.662 621.953 342.429 585.677C346.925 565.659 359.931 552.327 381.448 545.681Z" fill="#43D064"/>
<path fill-rule="evenodd" clip-rule="evenodd" d="M546.981 544.979C571.03 552.007 584.562 566.742 587.577 589.186C588.334 623.586 588.072 657.969 586.789 692.334C584.507 700.674 579.909 707.808 572.994 713.736C571.492 714.733 569.916 715.552 568.264 716.192C561.807 719.296 554.975 721.635 547.769 723.209C546.981 663.801 546.719 604.391 546.981 544.979Z" fill="#43D064"/>
<path fill-rule="evenodd" clip-rule="evenodd" d="M381.448 545.681C382.498 605.091 382.498 664.5 381.448 723.91C380.922 723.91 380.397 723.91 379.871 723.91C381.442 664.649 381.968 605.239 381.448 545.681Z" fill="#02BE25"/>
<path fill-rule="evenodd" clip-rule="evenodd" d="M546.984 544.979C546.722 604.391 546.984 663.801 547.772 723.209C554.978 721.635 561.81 719.296 568.267 716.192C561.849 720.673 554.492 723.246 546.196 723.91C545.933 664.149 546.197 604.505 546.984 544.979Z" fill="#13C337"/>
<path fill-rule="evenodd" clip-rule="evenodd" d="M392.48 654.441C414.289 654.441 436.097 654.441 457.906 654.441C457.906 664.733 457.906 675.024 457.906 685.316C436.097 685.316 414.289 685.316 392.48 685.316C392.48 675.024 392.48 664.733 392.48 654.441Z" fill="#FECE14"/>
<path fill-rule="evenodd" clip-rule="evenodd" d="M468.945 654.441C491.017 654.441 513.088 654.441 535.159 654.441C535.159 664.733 535.159 675.024 535.159 685.316C513.088 685.316 491.017 685.316 468.945 685.316C468.945 675.024 468.945 664.733 468.945 654.441Z" fill="#FECE14"/>
<path fill-rule="evenodd" clip-rule="evenodd" d="M381.449 545.681C381.497 545.3 381.759 545.066 382.237 544.979C383.288 604.857 383.288 664.735 382.237 724.612C381.759 724.525 381.497 724.291 381.449 723.91C382.5 664.5 382.5 605.091 381.449 545.681Z" fill="#CCF1D2"/>
<path fill-rule="evenodd" clip-rule="evenodd" d="M535.156 844.602C513.085 844.602 491.013 844.602 468.942 844.602C469.074 803.435 468.942 762.269 468.548 721.104C464.788 717.387 461.372 717.62 458.301 721.806C457.906 762.737 457.775 803.669 457.906 844.602C436.097 844.602 414.289 844.602 392.48 844.602C392.48 794.782 392.48 744.962 392.48 695.142C440.039 695.142 487.598 695.142 535.156 695.142C535.156 744.962 535.156 794.782 535.156 844.602Z" fill="#FECE14"/>
<path fill-rule="evenodd" clip-rule="evenodd" d="M468.945 844.6C491.017 844.6 513.088 844.6 535.159 844.6C535.159 844.834 535.159 845.068 535.159 845.302C513.03 845.075 490.958 845.308 468.945 846.004C468.945 845.536 468.945 845.068 468.945 844.6Z" fill="#013ED9"/>
<path fill-rule="evenodd" clip-rule="evenodd" d="M392.484 844.6C414.292 844.6 436.101 844.6 457.909 844.6C457.909 854.658 457.909 864.716 457.909 874.773C457.124 865.307 456.862 855.718 457.121 846.004C435.838 846.004 414.555 846.004 393.272 846.004C393.485 847.323 392.96 848.258 391.695 848.81C392.208 847.453 392.47 846.049 392.484 844.6Z" fill="#0949B9"/>
<path fill-rule="evenodd" clip-rule="evenodd" d="M457.905 874.772C456.243 880.345 452.302 883.97 446.081 885.649C423.221 886.117 400.361 886.117 377.502 885.649C366.825 880.892 364.329 873.759 370.013 864.247C374.364 859.915 379.487 856.524 385.384 854.073C387.9 852.65 390.003 850.895 391.69 848.81C392.955 848.258 393.481 847.322 393.267 846.003C414.55 846.003 435.833 846.003 457.116 846.003C456.857 855.717 457.119 865.307 457.905 874.772Z" fill="#0162AB"/>
<path fill-rule="evenodd" clip-rule="evenodd" d="M535.154 845.303C535.658 848.646 537.497 851.335 540.672 853.372C549.032 856.138 555.47 860.933 559.984 867.757C561.913 872.811 561.125 877.489 557.62 881.791C556.976 882.719 556.057 883.187 554.861 883.194C552.848 883.97 550.745 884.555 548.555 884.948C526.483 885.416 504.412 885.416 482.34 884.948C477.78 884.207 474.102 882.22 471.305 878.984C470.471 878.212 469.813 877.276 469.334 876.177C468.94 866.123 468.808 856.065 468.94 846.005C490.953 845.309 513.024 845.076 535.154 845.303Z" fill="#0062AB"/>
<path fill-rule="evenodd" clip-rule="evenodd" d="M471.312 878.982C474.11 882.218 477.788 884.206 482.348 884.947C504.42 885.415 526.491 885.415 548.562 884.947C550.753 884.553 552.855 883.969 554.868 883.193C553.512 884.732 551.672 885.551 549.351 885.648C526.228 886.117 503.106 886.117 479.983 885.648C475.973 884.531 473.082 882.309 471.312 878.982Z" fill="#063094"/>
<path d="M678.177 275.706V258.059C678.177 254.81 680.81 252.177 684.059 252.177H789.941C793.19 252.177 795.824 254.81 795.824 258.059V275.706H834.059C835.684 275.706 837 277.023 837 278.647V284.529C837 286.154 835.683 287.471 834.059 287.471H639.941C638.316 287.471 637 286.154 637 284.529V278.647C637 277.023 638.317 275.706 639.941 275.706H678.177ZM689.941 211C689.941 185.009 711.007 163.941 737 163.941C762.991 163.941 784.059 185.007 784.059 211V243.353H689.941V211ZM766.412 208.059C766.412 193.44 754.561 181.588 739.941 181.588H737C735.375 181.588 734.059 182.905 734.059 184.529V190.412C734.059 192.036 735.376 193.353 737 193.353H739.941C748.063 193.353 754.647 199.937 754.647 208.058V210.999C754.647 212.624 755.964 213.94 757.588 213.94H763.47C765.095 213.94 766.411 212.624 766.411 210.999V208.059H766.412ZM666.412 205.118C669.661 205.118 672.294 207.751 672.294 211C672.294 214.249 669.661 216.883 666.412 216.883H642.882C639.634 216.882 637 214.249 637 211C637 207.752 639.634 205.118 642.882 205.118H666.412ZM831.118 205.118C834.366 205.118 837 207.751 837 211C837 214.249 834.366 216.883 831.118 216.883H807.588C804.339 216.883 801.706 214.249 801.706 211C801.706 207.751 804.339 205.118 807.588 205.118H831.118ZM682.927 165.246L666.289 148.608C660.743 143.062 669.062 134.744 674.608 140.29L691.246 156.928C696.792 162.473 688.473 170.792 682.927 165.246ZM782.754 156.927L799.392 140.289C804.938 134.743 813.257 143.062 807.711 148.608L791.073 165.246C785.527 170.792 777.208 162.473 782.754 156.927ZM731.118 140.412V116.882C731.118 109.039 742.882 109.039 742.882 116.882V140.412C742.882 148.255 731.118 148.255 731.118 140.412Z" fill="#FD4A2F"/>
</g>
<defs>
<clipPath id="clip0_339_4406">
<rect width="1024" height="1024" fill="white"/>
</clipPath>
</defs>
</svg>
