<svg width="1024" height="1024" viewBox="0 0 1024 1024" fill="none" xmlns="http://www.w3.org/2000/svg">
<g clip-path="url(#clip0_430_9080)">
<path fill-rule="evenodd" clip-rule="evenodd" d="M497.5 89.5C556.242 86.7359 607.575 104.569 651.5 143C662.732 153.563 673.232 164.73 683 176.5C699.511 200.188 716.511 223.521 734 246.5C754.497 269.653 778.664 287.819 806.5 301C855.338 329.508 891.171 369.674 914 421.5C934.611 473.807 934.611 526.14 914 578.5C899.618 613.523 879.618 644.856 854 672.5C829.753 697.594 803.586 720.261 775.5 740.5C778.447 770.391 781.613 800.391 785 830.5C786.277 843.146 786.61 855.813 786 868.5C777.463 899.365 757.296 917.198 725.5 922C582.5 922.667 439.5 922.667 296.5 922C256.724 914.222 236.557 890.055 236 849.5C240.437 812.787 244.271 776.12 247.5 739.5C202.133 707.966 163.633 669.633 132 624.5C73.9156 527.754 81.249 436.421 154 350.5C179.866 323.986 209.366 302.486 242.5 286C262.864 271.972 281.03 255.472 297 236.5C313.6 212.301 330.934 188.634 349 165.5C372.356 138.795 400.189 118.295 432.5 104C453.637 96.1286 475.304 91.2953 497.5 89.5Z" fill="#FCFCFB"/>
<path fill-rule="evenodd" clip-rule="evenodd" d="M748.5 622.5C764.284 605.632 777.117 586.632 787 565.5C812.608 498.774 799.775 440.607 748.5 391C724.496 369.874 697.163 354.374 666.5 344.5C667.683 288.686 644.683 246.186 597.5 217C584.056 208.853 569.722 202.853 554.5 199C536.677 178.614 515.01 172.948 489.5 182C481.139 186.01 474.139 191.677 468.5 199C436.049 207.309 408.883 224.142 387 249.5C364.935 277.199 354.768 308.866 356.5 344.5C309.538 358.211 272.371 385.211 245 425.5C215.073 477.781 215.073 530.114 245 582.5C252.805 595.644 262.138 607.644 273 618.5C273.791 619.745 274.291 621.078 274.5 622.5C264.118 640.814 257.618 660.48 255 681.5C253.521 692.815 252.187 704.149 251 715.5C215.413 689.913 184.413 659.58 158 624.5C97.4393 537.323 100.106 452.323 166 369.5C181.697 351.605 199.53 336.439 219.5 324C242.698 312.243 264.365 298.243 284.5 282C307.587 259.286 327.421 234.119 344 206.5C364.346 176.819 389.846 152.652 420.5 134C448.135 118.613 477.801 111.113 509.5 111.5C556.615 110.812 597.948 125.645 633.5 156C645.035 165.868 655.535 176.701 665 188.5C678.737 206.306 691.737 224.64 704 243.5C720.18 265.346 739.347 284.18 761.5 300C787.783 313.637 812.45 329.637 835.5 348C873.119 381.395 896.619 422.895 906 472.5C911.178 515.94 903.512 556.94 883 595.5C873.645 613.552 862.312 630.219 849 645.5C836.863 658.638 824.363 671.471 811.5 684C798.624 695.211 785.458 706.044 772 716.5C771.052 692.619 767.052 669.286 760 646.5C756.635 638.22 752.802 630.22 748.5 622.5Z" fill="#F64229"/>
<path fill-rule="evenodd" clip-rule="evenodd" d="M505.5 198.5C514.139 197.547 522.139 199.38 529.5 204C532.106 205.938 533.939 208.438 535 211.5C537.449 246.123 539.782 280.789 542 315.5C544.169 326.498 550.336 329.331 560.5 324C561.46 322.581 562.293 321.081 563 319.5C562.312 287.122 560.812 254.789 558.5 222.5C620.132 244.714 648.965 288.714 645 354.5C651.386 360.383 657.219 366.716 662.5 373.5C561.488 394.823 460.488 394.823 359.5 373.5C365.851 366.984 372.017 360.317 378 353.5C374.444 289.261 402.61 245.595 462.5 222.5C462.833 226.833 463.167 231.167 463.5 235.5C461.749 263.507 460.249 291.507 459 319.5C462.77 326.414 468.27 328.247 475.5 325C479.68 321.136 481.513 316.303 481 310.5C483.399 278.528 485.399 246.528 487 214.5C490.11 205.542 496.277 200.209 505.5 198.5Z" fill="#0285D0"/>
<path fill-rule="evenodd" clip-rule="evenodd" d="M356.5 344.5C354.371 349.15 351.205 353.15 347 356.5C338.291 367.182 337.458 378.349 344.5 390C351.991 394.04 359.991 396.206 368.5 396.5C368.5 405.5 368.5 414.5 368.5 423.5C344.079 438.304 327.245 459.304 318 486.5C311.764 515.357 316.264 542.357 331.5 567.5C307.599 580.734 288.599 599.068 274.5 622.5C274.291 621.078 273.791 619.745 273 618.5C262.138 607.644 252.805 595.644 245 582.5C215.073 530.114 215.073 477.781 245 425.5C272.371 385.211 309.538 358.211 356.5 344.5Z" fill="#FDC511"/>
<path fill-rule="evenodd" clip-rule="evenodd" d="M666.5 344.5C697.163 354.374 724.496 369.874 748.5 391C799.775 440.607 812.608 498.774 787 565.5C777.117 586.632 764.284 605.632 748.5 622.5C733.768 599.768 714.768 581.435 691.5 567.5C718.936 520.592 713.602 477.758 675.5 439C669.014 433.592 662.347 428.425 655.5 423.5C654.548 421.955 654.215 420.288 654.5 418.5C654.5 410.833 654.5 403.167 654.5 395.5C662.976 395.699 670.976 393.866 678.5 390C685.52 379.167 685.02 368.667 677 358.5C674.036 354.534 670.703 350.867 667 347.5C666.517 346.552 666.351 345.552 666.5 344.5Z" fill="#FDC511"/>
<path fill-rule="evenodd" clip-rule="evenodd" d="M368.5 423.5C371.471 464.09 386.471 499.423 413.5 529.5C385.639 541.098 358.305 553.765 331.5 567.5C316.264 542.357 311.764 515.357 318 486.5C327.245 459.304 344.079 438.304 368.5 423.5Z" fill="#FDDD11"/>
<path fill-rule="evenodd" clip-rule="evenodd" d="M654.5 418.5C654.215 420.288 654.548 421.955 655.5 423.5C662.347 428.425 669.014 433.592 675.5 439C713.602 477.758 718.936 520.592 691.5 567.5C664.459 554.314 637.126 541.648 609.5 529.5C637.214 497.698 652.214 460.698 654.5 418.5Z" fill="#FDDD11"/>
<path fill-rule="evenodd" clip-rule="evenodd" d="M390.5 401.5C430.633 406.99 470.966 409.323 511.5 408.5C551.994 408.872 592.327 406.539 632.5 401.5C635.834 460.668 612.834 506.168 563.5 538C531.838 555.778 499.505 557.111 466.5 542C424.691 519.487 399.857 484.654 392 437.5C390.692 425.539 390.192 413.539 390.5 401.5Z" fill="#FDC812"/>
<path fill-rule="evenodd" clip-rule="evenodd" d="M629.5 561.5C629.5 634.833 629.5 708.167 629.5 781.5C594.167 781.5 558.833 781.5 523.5 781.5C523.333 761.831 523.5 742.164 524 722.5C550.527 676.787 575.527 630.121 599 582.5C603.461 572.947 607.628 563.28 611.5 553.5C617.446 556.368 623.446 559.034 629.5 561.5Z" fill="#4EAD3F"/>
<path fill-rule="evenodd" clip-rule="evenodd" d="M431.5 546.5C451.772 560.294 474.105 569.127 498.5 573C520.289 574.709 541.289 571.376 561.5 563C571.679 557.583 581.679 552.25 591.5 547C567.418 599.666 540.585 650.833 511 700.5C487.061 658.961 464.394 616.628 443 573.5C439.063 564.517 435.23 555.517 431.5 546.5Z" fill="#FDCA15"/>
<path fill-rule="evenodd" clip-rule="evenodd" d="M388.5 563.5C390.166 635.994 391.166 708.661 391.5 781.5C427.5 781.5 463.5 781.5 499.5 781.5C499.5 796.833 499.5 812.167 499.5 827.5C419.5 827.5 339.5 827.5 259.5 827.5C261.115 811.979 263.115 796.645 265.5 781.5C290.833 781.5 316.167 781.5 341.5 781.5C340.171 792.331 344.838 797.497 355.5 797C358.333 795.5 360.5 793.333 362 790.5C362.167 718.498 362.667 646.498 363.5 574.5C371.737 570.546 380.071 566.88 388.5 563.5Z" fill="#FECF00"/>
<path fill-rule="evenodd" clip-rule="evenodd" d="M629.5 561.5C630.492 561.328 631.158 561.662 631.5 562.5C630.501 635.665 630.167 708.998 630.5 782.5C594.833 782.5 559.167 782.5 523.5 782.5C523.5 782.167 523.5 781.833 523.5 781.5C558.833 781.5 594.167 781.5 629.5 781.5C629.5 708.167 629.5 634.833 629.5 561.5Z" fill="#ABBD27"/>
<path fill-rule="evenodd" clip-rule="evenodd" d="M388.5 563.5C389.209 562.596 390.209 562.263 391.5 562.5C391.5 635.5 391.5 708.5 391.5 781.5C391.166 708.661 390.166 635.994 388.5 563.5Z" fill="#E9C819"/>
<path fill-rule="evenodd" clip-rule="evenodd" d="M758.5 781.5C733.167 781.5 707.833 781.5 682.5 781.5C682.333 716.832 682.5 652.166 683 587.5C719.479 608.743 740.812 640.41 747 682.5C750.559 715.541 754.392 748.541 758.5 781.5Z" fill="#4FAD3F"/>
<path fill-rule="evenodd" clip-rule="evenodd" d="M341.5 781.5C316.167 781.5 290.833 781.5 265.5 781.5C267.897 751.426 271.064 721.426 275 691.5C279.171 645.098 301.004 610.098 340.5 586.5C341.5 651.497 341.833 716.497 341.5 781.5Z" fill="#4FAD3F"/>
<path fill-rule="evenodd" clip-rule="evenodd" d="M499.5 781.5C463.5 781.5 427.5 781.5 391.5 781.5C391.5 708.5 391.5 635.5 391.5 562.5C397.286 559.197 403.452 556.53 410 554.5C437.3 612.102 466.967 668.435 499 723.5C499.5 742.83 499.667 762.164 499.5 781.5Z" fill="#4EAD3F"/>
<path fill-rule="evenodd" clip-rule="evenodd" d="M631.5 562.5C641.621 566.143 651.454 570.476 661 575.5C661.333 647.5 661.667 719.5 662 791.5C665.717 797.567 670.884 799.067 677.5 796C681.844 792.124 683.511 787.291 682.5 781.5C707.833 781.5 733.167 781.5 758.5 781.5C760.407 796.809 762.074 812.142 763.5 827.5C683.5 827.5 603.5 827.5 523.5 827.5C523.5 812.5 523.5 797.5 523.5 782.5C559.167 782.5 594.833 782.5 630.5 782.5C630.167 708.998 630.501 635.665 631.5 562.5Z" fill="#FECF00"/>
<path fill-rule="evenodd" clip-rule="evenodd" d="M259.5 827.5C339.5 827.5 419.5 827.5 499.5 827.5C499.5 852.167 499.5 876.833 499.5 901.5C430.472 901.977 361.472 901.477 292.5 900C274.569 894.403 263.069 882.569 258 864.5C257.242 852.111 257.742 839.777 259.5 827.5Z" fill="#4EAD3F"/>
<path fill-rule="evenodd" clip-rule="evenodd" d="M523.5 827.5C603.5 827.5 683.5 827.5 763.5 827.5C764.739 836.797 765.739 846.131 766.5 855.5C764.822 878.691 752.822 893.525 730.5 900C661.532 901.48 592.532 901.98 523.5 901.5C523.5 876.833 523.5 852.167 523.5 827.5Z" fill="#4EAD3F"/>
</g>
<defs>
<clipPath id="clip0_430_9080">
<rect width="1024" height="1024" fill="white"/>
</clipPath>
</defs>
</svg>
