<svg width="1024" height="1024" viewBox="0 0 1024 1024" fill="none" xmlns="http://www.w3.org/2000/svg">
<g clip-path="url(#clip0_339_4404)">
<path fill-rule="evenodd" clip-rule="evenodd" d="M484.5 188.5C485.209 187.596 486.209 187.263 487.5 187.5C529.501 187.333 571.501 187.5 613.5 188C614.485 197.417 614.818 206.917 614.5 216.5C614.5 217.5 614.5 218.5 614.5 219.5C613.728 220.694 612.728 221.694 611.5 222.5C611.312 220.897 611.812 219.563 613 218.5C613.818 208.589 613.651 198.756 612.5 189C569.835 188.5 527.168 188.333 484.5 188.5Z" fill="#FCFD07"/>
<path fill-rule="evenodd" clip-rule="evenodd" d="M484.5 188.5C527.168 188.333 569.835 188.5 612.5 189C613.651 198.756 613.818 208.589 613 218.5C611.812 219.563 611.312 220.897 611.5 222.5C610.4 223.558 609.066 224.392 607.5 225C576.331 225.168 545.331 225.668 514.5 226.5C510.16 228.674 506.994 232.007 505 236.5C500.533 248.425 496.367 260.425 492.5 272.5C488.399 281.128 485.066 290.128 482.5 299.5C474.702 318.117 467.702 337.117 461.5 356.5C457.304 366.42 453.304 376.42 449.5 386.5C446.017 393.467 442.517 401.134 439 409.5C437.039 412.135 434.539 413.969 431.5 415C363.501 415.5 295.501 415.667 227.5 415.5C221.965 412.233 216.298 409.233 210.5 406.5C185.338 390.415 159.671 375.082 133.5 360.5C125.003 354.414 116.003 349.081 106.5 344.5C96.0071 337.083 85.0071 330.416 73.5 324.5C71.2294 322.734 69.0627 320.734 67 318.5C66.3333 316.5 66.3333 314.5 67 312.5C68.122 310.593 68.9553 308.593 69.5 306.5C70.1667 306.5 70.5 306.167 70.5 305.5C75.4368 295.96 80.1034 286.293 84.5 276.5C90.817 264.535 97.1503 252.535 103.5 240.5C104.5 240.167 105.167 239.5 105.5 238.5C106.708 237.766 108.041 237.433 109.5 237.5C214.666 238.666 319.999 238.833 425.5 238C427.5 236.667 429.5 235.333 431.5 234C432.823 233.184 433.489 232.017 433.5 230.5C448.687 217.736 463.687 204.736 478.5 191.5C479.71 191.068 480.71 190.401 481.5 189.5C482.391 188.89 483.391 188.557 484.5 188.5Z" fill="#FED10F"/>
<path fill-rule="evenodd" clip-rule="evenodd" d="M614.5 219.5C614.5 218.5 614.5 217.5 614.5 216.5C615.33 207.676 615.83 198.676 616 189.5C616.667 198.833 616.667 208.167 616 217.5C615.722 218.416 615.222 219.082 614.5 219.5Z" fill="#0146EE"/>
<path fill-rule="evenodd" clip-rule="evenodd" d="M472.5 185.5C469.029 189.803 465.029 193.636 460.5 197C461.126 197.75 461.626 198.584 462 199.5C463.333 197.5 464.667 195.5 466 193.5C466.265 195.163 465.765 196.663 464.5 198C467.451 200.044 469.784 199.378 471.5 196C470.398 193.609 471.064 193.109 473.5 194.5C474.94 193.048 476.606 192.048 478.5 191.5C463.687 204.736 448.687 217.736 433.5 230.5C432.833 230.833 432.167 231.167 431.5 231.5C431.72 230.202 431.053 228.869 429.5 227.5C430.929 225.669 431.429 223.669 431 221.5C429.223 223.79 427.056 225.457 424.5 226.5C439.906 212.091 455.906 198.424 472.5 185.5Z" fill="#1368BD"/>
<path fill-rule="evenodd" clip-rule="evenodd" d="M424.5 226.5C423.942 227.79 422.942 228.623 421.5 229C316.167 229.333 210.833 229.667 105.5 230C102.064 231.274 99.3974 233.441 97.5 236.5C97.1667 236.5 96.8333 236.5 96.5 236.5C97.9894 232.847 100.656 230.347 104.5 229C209.833 228.667 315.167 228.333 420.5 228C421.745 227.209 423.078 226.709 424.5 226.5Z" fill="#003B9F"/>
<path fill-rule="evenodd" clip-rule="evenodd" d="M431.5 231.5C430.564 232.974 429.23 233.974 427.5 234.5C426.078 234.709 424.745 235.209 423.5 236C317.5 236.333 211.5 236.667 105.5 237C104.262 237.69 104.262 238.19 105.5 238.5C105.167 239.5 104.5 240.167 103.5 240.5C102.521 240.458 101.521 240.458 100.5 240.5C101.09 239.201 102.09 238.368 103.5 238C103.167 237.667 102.833 237.333 102.5 237C100.68 237.476 99.0133 237.309 97.5 236.5C99.3974 233.441 102.064 231.274 105.5 230C210.833 229.667 316.167 229.333 421.5 229C422.942 228.623 423.942 227.79 424.5 226.5C427.056 225.457 429.223 223.79 431 221.5C431.429 223.669 430.929 225.669 429.5 227.5C431.053 228.869 431.72 230.202 431.5 231.5Z" fill="#0173BB"/>
<path fill-rule="evenodd" clip-rule="evenodd" d="M501.5 272.5C498.399 278.943 495.566 285.61 493 292.5C492.667 291.833 492.333 291.167 492 290.5C489.929 295.844 488.429 295.511 487.5 289.5C489.371 283.886 491.038 278.22 492.5 272.5C497.933 259.719 503.1 246.719 508 233.5C510.205 230.96 512.705 228.793 515.5 227C515.272 226.601 514.938 226.435 514.5 226.5C545.331 225.668 576.331 225.168 607.5 225C609.066 224.392 610.4 223.558 611.5 222.5C612.728 221.694 613.728 220.694 614.5 219.5C615.222 219.082 615.722 218.416 616 217.5C616.667 208.167 616.667 198.833 616 189.5C615.83 198.676 615.33 207.676 614.5 216.5C614.818 206.917 614.485 197.417 613.5 188C571.501 187.5 529.501 187.333 487.5 187.5C528.998 186.667 570.665 186.167 612.5 186C570.167 185.333 527.833 185.333 485.5 186C484.167 186.667 482.833 187.333 481.5 188C480.262 188.69 480.262 189.19 481.5 189.5C480.71 190.401 479.71 191.068 478.5 191.5C476.606 192.048 474.94 193.048 473.5 194.5C471.064 193.109 470.398 193.609 471.5 196C469.784 199.378 467.451 200.044 464.5 198C465.765 196.663 466.265 195.163 466 193.5C464.667 195.5 463.333 197.5 462 199.5C461.626 198.584 461.126 197.75 460.5 197C465.029 193.636 469.029 189.803 472.5 185.5C474.724 182.376 477.724 180.209 481.5 179C527.167 178.333 572.833 178.333 618.5 179C620.939 179.774 622.773 181.274 624 183.5C624.667 196.167 624.667 208.833 624 221.5C621.833 227.667 617.667 231.833 611.5 234C581.5 234.333 551.5 234.667 521.5 235C517.114 236.93 513.948 240.097 512 244.5C508.766 254.048 505.266 263.382 501.5 272.5Z" fill="#116DB9"/>
<path fill-rule="evenodd" clip-rule="evenodd" d="M487.499 187.5C486.208 187.263 485.208 187.596 484.499 188.5C483.39 188.557 482.39 188.89 481.499 189.5C480.261 189.19 480.261 188.69 481.499 188C482.832 187.333 484.166 186.667 485.499 186C527.832 185.333 570.166 185.333 612.499 186C570.664 186.167 528.997 186.667 487.499 187.5Z" fill="#0346E0"/>
<path fill-rule="evenodd" clip-rule="evenodd" d="M427.499 234.5C426.941 235.79 425.941 236.623 424.499 237C319.5 237.5 214.5 237.667 109.499 237.5C108.04 237.433 106.707 237.766 105.499 238.5C104.261 238.19 104.261 237.69 105.499 237C211.499 236.667 317.499 236.333 423.499 236C424.744 235.209 426.077 234.709 427.499 234.5Z" fill="#0134EB"/>
<path fill-rule="evenodd" clip-rule="evenodd" d="M433.5 230.5C433.489 232.017 432.823 233.184 431.5 234C429.5 235.333 427.5 236.667 425.5 238C319.999 238.833 214.666 238.666 109.5 237.5C214.501 237.667 319.501 237.5 424.5 237C425.942 236.623 426.942 235.79 427.5 234.5C429.23 233.974 430.564 232.974 431.5 231.5C432.167 231.167 432.833 230.833 433.5 230.5Z" fill="#FDFD02"/>
<path fill-rule="evenodd" clip-rule="evenodd" d="M662.5 254.5C659.093 252.527 655.426 251.027 651.5 250C610.811 249.19 570.144 249.356 529.5 250.5C530.263 249.732 531.263 249.232 532.5 249C572.5 248.333 612.5 248.333 652.5 249C656.607 249.629 659.94 251.463 662.5 254.5Z" fill="#062994"/>
<path fill-rule="evenodd" clip-rule="evenodd" d="M514.5 226.5C514.938 226.435 515.272 226.601 515.5 227C512.705 228.793 510.205 230.96 508 233.5C503.1 246.719 497.933 259.719 492.5 272.5C496.367 260.425 500.533 248.425 505 236.5C506.994 232.007 510.16 228.674 514.5 226.5Z" fill="#1F52E0"/>
<path fill-rule="evenodd" clip-rule="evenodd" d="M813.498 455.5C804.597 464.978 795.93 474.645 787.498 484.5C777.675 470.196 767.841 455.862 757.998 441.5C751.998 420.833 745.998 400.167 739.998 379.5C739.204 363.629 746.704 356.796 762.498 359C765.9 360.4 768.734 362.567 770.998 365.5C777.264 384.634 782.931 403.968 787.998 423.5C795.951 434.618 804.451 445.285 813.498 455.5Z" fill="#FECF10"/>
<path fill-rule="evenodd" clip-rule="evenodd" d="M927.499 468.5C925.769 467.974 924.435 466.974 923.499 465.5C923.118 464.069 922.118 463.236 920.499 463C920.832 462.667 921.166 462.333 921.499 462C916.497 461.753 912.664 459.586 909.999 455.5C909.585 455.957 909.085 456.291 908.499 456.5C904.264 454.215 899.93 452.215 895.499 450.5C886.989 446.962 878.989 442.629 871.499 437.5C861.655 431.075 851.321 425.408 840.499 420.5C838.045 419.773 835.712 418.773 833.499 417.5C829.231 414.411 825.065 411.077 820.999 407.5C818.96 401.668 820.96 398.335 826.999 397.5C828.797 398.504 830.631 399.004 832.499 399C850.231 371.297 875.231 360.297 907.499 366C939.368 378.537 953.868 402.037 950.999 436.5C949.953 444.353 948.119 452.019 945.499 459.5C945.702 461.208 946.535 462.541 947.999 463.5C949.564 469.387 947.397 472.72 941.499 473.5C936.612 472.387 931.946 470.721 927.499 468.5Z" fill="#0372BB"/>
<path fill-rule="evenodd" clip-rule="evenodd" d="M833.5 417.5C835.713 418.773 838.046 419.773 840.5 420.5C850.344 426.925 860.678 432.592 871.5 437.5C878.99 442.629 886.99 446.962 895.5 450.5C904.508 456.005 913.841 461.005 923.5 465.5C924.436 466.974 925.77 467.974 927.5 468.5C915.294 487.937 897.627 496.77 874.5 495C853.257 490.43 838.757 477.93 831 457.5C827.186 443.862 828.019 430.529 833.5 417.5Z" fill="#FED011"/>
<path fill-rule="evenodd" clip-rule="evenodd" d="M840.5 420.5C851.322 425.408 861.656 431.075 871.5 437.5C860.678 432.592 850.344 426.925 840.5 420.5Z" fill="#1E4CE2"/>
<path fill-rule="evenodd" clip-rule="evenodd" d="M227.5 435.5C277.887 436.437 308.72 461.437 320 510.5C324.471 553.404 307.637 584.57 269.5 604C233.109 617.798 200.609 611.631 172 585.5C147.901 557.334 141.901 525.668 154 490.5C168.626 458.94 193.126 440.607 227.5 435.5Z" fill="#0272BB"/>
<path fill-rule="evenodd" clip-rule="evenodd" d="M96.5015 236.5C96.8348 236.5 97.1682 236.5 97.5015 236.5C99.0148 237.309 100.682 237.476 102.502 237C102.835 237.333 103.169 237.667 103.502 238C102.092 238.368 101.092 239.201 100.502 240.5C101.523 240.458 102.523 240.458 103.502 240.5C97.1518 252.535 90.8185 264.535 84.5015 276.5C79.0213 285.454 74.0213 294.787 69.5015 304.5C69.6251 305.107 69.9584 305.44 70.5015 305.5C70.5015 306.167 70.1682 306.5 69.5015 306.5C62.3209 314.305 63.6542 320.305 73.5015 324.5C85.0086 330.416 96.0086 337.083 106.502 344.5C114.999 350.586 123.999 355.919 133.502 360.5C159.673 375.082 185.34 390.415 210.502 406.5C216.599 411.884 223.599 415.717 231.502 418C298.337 418.832 365.003 418.665 431.502 417.5C433.676 417.25 435.343 416.25 436.502 414.5C438.718 413.797 440.551 412.464 442.002 410.5C445.216 402.754 448.382 395.088 451.502 387.5C452.263 388.391 453.263 389.058 454.502 389.5C455.771 387.305 455.771 385.139 454.502 383C455.669 381.167 457.169 379.667 459.002 378.5C459.872 379.108 460.372 379.941 460.502 381C456.284 392.837 452.284 404.337 448.502 415.5C470.996 416.497 493.663 416.831 516.502 416.5C517.752 416.423 518.585 415.756 519.002 414.5C519.834 363.665 519.667 312.998 518.502 262.5C520.1 256.57 523.767 252.57 529.502 250.5C570.146 249.356 610.812 249.19 651.502 250C655.428 251.027 659.095 252.527 662.502 254.5C664.453 255.716 665.953 257.382 667.002 259.5C684.986 296.136 702.986 332.802 721.002 369.5C721.169 399.839 721.669 430.172 722.502 460.5C725.942 462.768 728.442 465.768 730.002 469.5C730.669 485.167 730.669 500.833 730.002 516.5C728.747 521.249 725.914 524.582 721.502 526.5C697.695 527.137 674.028 527.804 650.502 528.5C650.186 542.934 646.519 556.434 639.502 569C624.335 578.833 609.169 588.667 594.002 598.5C580.567 588.383 566.733 587.883 552.502 597C546.103 601.962 543.103 608.462 543.502 616.5C503.45 608.281 478.616 584.281 469.002 544.5C467.907 539.22 467.407 533.887 467.502 528.5C422.672 527.501 377.672 527.168 332.502 527.5C332.668 521.824 332.501 516.157 332.002 510.5C331.923 508.264 331.423 506.93 330.502 506.5C319.679 461.845 291.679 435.012 246.502 426C188.362 423.98 152.196 451.147 138.002 507.5C137.224 513.842 136.39 520.175 135.502 526.5C133.391 525.395 132.057 523.729 131.502 521.5C131.335 496.831 131.502 472.164 132.002 447.5C132.923 444.664 134.09 441.998 135.502 439.5C136.977 437.59 138.977 436.424 141.502 436C145.823 435.501 150.156 435.334 154.502 435.5C157.519 419.788 160.352 404.121 163.002 388.5C129.752 368.459 96.5849 348.292 63.5015 328C56.9556 321.779 55.789 314.613 60.0015 306.5C71.9575 282.917 84.1242 259.583 96.5015 236.5Z" fill="#0571BC"/>
<path fill-rule="evenodd" clip-rule="evenodd" d="M525.5 420.5C525.141 422.371 524.141 423.871 522.5 425C519.931 425.898 517.598 427.065 515.5 428.5C509.726 430.221 504.06 432.221 498.5 434.5C499.987 433.196 501.654 432.03 503.5 431C511.56 428.801 518.894 425.301 525.5 420.5Z" fill="#2C50D9"/>
<path fill-rule="evenodd" clip-rule="evenodd" d="M210.5 406.5C216.298 409.233 221.965 412.233 227.5 415.5C236.652 416.494 245.985 416.827 255.5 416.5C313.998 417.499 372.664 417.832 431.5 417.5C365.001 418.665 298.335 418.832 231.5 418C223.597 415.717 216.597 411.884 210.5 406.5Z" fill="#075DD2"/>
<path fill-rule="evenodd" clip-rule="evenodd" d="M436.5 414.5C435.341 416.25 433.674 417.25 431.5 417.5C372.664 417.832 313.998 417.499 255.5 416.5C314.501 416.667 373.501 416.5 432.5 416C433.745 415.209 435.078 414.709 436.5 414.5Z" fill="#0948E0"/>
<path fill-rule="evenodd" clip-rule="evenodd" d="M449.5 386.5C447.637 392.922 445.47 399.255 443 405.5C441.389 408.938 439.223 411.938 436.5 414.5C435.078 414.709 433.745 415.209 432.5 416C373.501 416.5 314.501 416.667 255.5 416.5C245.985 416.827 236.652 416.494 227.5 415.5C295.501 415.667 363.501 415.5 431.5 415C434.539 413.969 437.039 412.135 439 409.5C442.517 401.134 446.017 393.467 449.5 386.5Z" fill="#FAFC05"/>
<path fill-rule="evenodd" clip-rule="evenodd" d="M711.5 369.5C712.966 370.347 713.8 371.68 714 373.5C714.333 403.833 714.667 434.167 715 464.5C717.422 466.75 719.589 469.083 721.5 471.5C717.88 469.715 715.047 467.048 713 463.5C712.5 433.168 712.333 402.835 712.5 372.5C711.89 371.609 711.557 370.609 711.5 369.5Z" fill="#2F59D0"/>
<path fill-rule="evenodd" clip-rule="evenodd" d="M712.499 372.5C712.332 402.835 712.499 433.168 712.999 463.5C715.046 467.048 717.879 469.715 721.499 471.5C721.499 472.5 721.499 473.5 721.499 474.5C721.813 487.913 721.48 501.246 720.499 514.5C720.6 500.719 720.434 486.719 719.999 472.5C716.666 470.5 713.999 467.833 711.999 464.5C711.168 433.664 711.335 402.997 712.499 372.5Z" fill="#FAFB08"/>
<path fill-rule="evenodd" clip-rule="evenodd" d="M461.5 356.5C458.45 366.931 455.117 377.264 451.5 387.5C448.38 395.088 445.214 402.754 442 410.5C440.549 412.464 438.716 413.797 436.5 414.5C439.223 411.938 441.389 408.938 443 405.5C445.47 399.255 447.637 392.922 449.5 386.5C453.304 376.42 457.304 366.42 461.5 356.5Z" fill="#1A50E2"/>
<path fill-rule="evenodd" clip-rule="evenodd" d="M518.5 262.5C519.665 312.998 519.832 363.665 519 414.5C518.583 415.756 517.75 416.423 516.5 416.5C517.167 365.167 517.833 313.833 518.5 262.5Z" fill="#1462B3"/>
<path fill-rule="evenodd" clip-rule="evenodd" d="M106.5 344.5C116.003 349.081 125.003 354.414 133.5 360.5C123.997 355.919 114.997 350.586 106.5 344.5Z" fill="#274EDF"/>
<path fill-rule="evenodd" clip-rule="evenodd" d="M529.5 261.5C529.013 262.473 528.513 263.473 528 264.5C527.667 315.833 527.333 367.167 527 418.5C526.722 419.416 526.222 420.082 525.5 420.5C526.311 368.185 526.811 315.851 527 263.5C527.419 262.328 528.085 261.328 529 260.5C529.399 260.728 529.565 261.062 529.5 261.5Z" fill="#0637ED"/>
<path fill-rule="evenodd" clip-rule="evenodd" d="M69.4991 306.5C68.9544 308.593 68.1211 310.593 66.9991 312.5C66.3324 314.5 66.3324 316.5 66.9991 318.5C69.0618 320.734 71.2285 322.734 73.4991 324.5C63.6518 320.305 62.3185 314.305 69.4991 306.5Z" fill="#1D4EE2"/>
<path fill-rule="evenodd" clip-rule="evenodd" d="M501.5 272.5C484.798 320.616 467.131 368.282 448.5 415.5C452.282 404.337 456.282 392.837 460.5 381C460.37 379.941 459.87 379.108 459 378.5C457.167 379.667 455.667 381.167 454.5 383C455.769 385.139 455.769 387.305 454.5 389.5C453.261 389.058 452.261 388.391 451.5 387.5C455.117 377.264 458.45 366.931 461.5 356.5C467.702 337.117 474.702 318.117 482.5 299.5C484.551 296.342 486.217 293.008 487.5 289.5C488.429 295.511 489.929 295.844 492 290.5C492.333 291.167 492.667 291.833 493 292.5C495.566 285.61 498.399 278.943 501.5 272.5Z" fill="#0F68BC"/>
<path fill-rule="evenodd" clip-rule="evenodd" d="M492.5 272.5C491.038 278.22 489.371 283.886 487.5 289.5C486.217 293.008 484.551 296.342 482.5 299.5C485.066 290.128 488.399 281.128 492.5 272.5Z" fill="#1851E2"/>
<path fill-rule="evenodd" clip-rule="evenodd" d="M84.5 276.5C80.1034 286.293 75.4368 295.96 70.5 305.5C69.9569 305.44 69.6236 305.107 69.5 304.5C74.0198 294.787 79.0198 285.454 84.5 276.5Z" fill="#164DDC"/>
<path fill-rule="evenodd" clip-rule="evenodd" d="M660.5 268.5C677.213 302.26 694.213 335.927 711.5 369.5C711.557 370.609 711.89 371.609 712.5 372.5C711.336 402.997 711.169 433.664 712 464.5C714 467.833 716.667 470.5 720 472.5C720.435 486.719 720.601 500.719 720.5 514.5C718.47 517.182 715.803 518.849 712.5 519.5C692.674 518.503 672.674 518.17 652.5 518.5C651.527 504.248 647.194 491.248 639.5 479.5C638.167 478.167 636.833 476.833 635.5 475.5C633.278 469.736 629.612 465.069 624.5 461.5C613.792 449.155 600.458 440.822 584.5 436.5C571.671 433.635 558.671 432.802 545.5 434C539.109 434.967 533.109 436.8 527.5 439.5C504.657 447.684 487.823 462.684 477 484.5C473.098 493.709 469.931 503.042 467.5 512.5C466.776 514.218 466.109 516.052 465.5 518C424.127 518.488 382.96 518.654 342 518.5C341.055 513.154 339.888 508.487 338.5 504.5C335.992 494.646 332.659 484.98 328.5 475.5C328.611 474.883 328.944 474.383 329.5 474C327.081 469.828 324.415 465.828 321.5 462C371.5 461.667 421.5 461.333 471.5 461C420.998 460.833 370.665 460.333 320.5 459.5C371.171 459.833 421.838 459.5 472.5 458.5C475.643 454.189 478.977 450.022 482.5 446C487.735 441.916 493.069 438.083 498.5 434.5C504.06 432.221 509.726 430.221 515.5 428.5C521.408 428.422 525.575 425.422 528 419.5C528.013 367.442 528.68 315.442 530 263.5C531.214 261.951 532.714 260.785 534.5 260C573.5 259.333 612.5 259.333 651.5 260C655.027 262.362 658.027 265.196 660.5 268.5Z" fill="#FED010"/>
<path fill-rule="evenodd" clip-rule="evenodd" d="M584.5 436.5C584.083 437.124 583.416 437.457 582.5 437.5C572.646 434.926 562.646 434.092 552.5 435C556.132 436.373 556.299 437.873 553 439.5C550.708 438.069 548.208 437.236 545.5 437C547.5 436.667 549.5 436.333 551.5 436C550.167 435.833 548.833 435.667 547.5 435.5C540.683 436.252 534.016 437.585 527.5 439.5C533.109 436.8 539.109 434.967 545.5 434C558.671 432.802 571.671 433.635 584.5 436.5Z" fill="#1B5DD1"/>
<path fill-rule="evenodd" clip-rule="evenodd" d="M552.499 288.5C552.332 313.169 552.499 337.836 552.999 362.5C553.659 364.324 554.826 365.657 556.499 366.5C557.057 367.79 558.057 368.623 559.499 369C595.832 369.667 632.166 369.667 668.499 369C669.415 368.722 670.081 368.222 670.499 367.5C673.114 366.55 675.114 364.883 676.499 362.5C676.329 363.822 676.662 364.989 677.499 366C674.832 367.333 672.166 368.667 669.499 370C632.499 370.667 595.499 370.667 558.499 370C554.402 368.078 552.069 364.912 551.499 360.5C551.168 336.328 551.501 312.328 552.499 288.5Z" fill="#DCE735"/>
<path fill-rule="evenodd" clip-rule="evenodd" d="M556.5 365.5C557.473 365.987 558.473 366.487 559.5 367C596.498 367.5 633.498 367.667 670.5 367.5C670.082 368.222 669.416 368.722 668.5 369C632.167 369.667 595.833 369.667 559.5 369C558.058 368.623 557.058 367.79 556.5 366.5C556.5 366.167 556.5 365.833 556.5 365.5Z" fill="#0855D6"/>
<path fill-rule="evenodd" clip-rule="evenodd" d="M637.498 281.5C639.101 282.596 640.601 283.93 641.998 285.5C644.62 291.085 647.454 296.418 650.498 301.5C653.498 306.833 656.498 312.167 659.498 317.5C660.887 321.944 662.554 326.277 664.498 330.5C668.714 340.496 672.714 350.496 676.498 360.5C676.498 361.167 676.498 361.833 676.498 362.5C675.113 364.883 673.113 366.55 670.498 367.5C633.496 367.667 596.496 367.5 559.498 367C558.471 366.487 557.471 365.987 556.498 365.5C555.494 364.317 554.66 362.984 553.998 361.5C553.017 336.079 553.351 310.746 554.998 285.5C556.212 283.951 557.712 282.785 559.498 282C585.496 281.5 611.496 281.333 637.498 281.5Z" fill="#066FB9"/>
<path fill-rule="evenodd" clip-rule="evenodd" d="M561.5 359.5C596.094 360.493 630.76 360.826 665.5 360.5C648.337 361.167 631.003 361.5 613.5 361.5C595.82 361.5 578.487 360.833 561.5 359.5Z" fill="#00359A"/>
<path fill-rule="evenodd" clip-rule="evenodd" d="M664.5 330.5C668.83 337.827 672.664 345.494 676 353.5C676.497 355.81 676.663 358.143 676.5 360.5C672.716 350.496 668.716 340.496 664.5 330.5Z" fill="#1648EB"/>
<path fill-rule="evenodd" clip-rule="evenodd" d="M559.5 280.5C585.672 280.169 611.672 280.502 637.5 281.5C611.498 281.333 585.498 281.5 559.5 282C557.714 282.785 556.214 283.951 555 285.5C553.353 310.746 553.019 336.079 554 361.5C554.662 362.984 555.496 364.317 556.5 365.5C556.5 365.833 556.5 366.167 556.5 366.5C554.827 365.657 553.66 364.324 553 362.5C552.5 337.836 552.333 313.169 552.5 288.5C552.833 287.167 553.167 285.833 553.5 284.5C555.228 282.774 557.228 281.441 559.5 280.5Z" fill="#0535FB"/>
<path fill-rule="evenodd" clip-rule="evenodd" d="M553.499 284.5C553.166 285.833 552.832 287.167 552.499 288.5C551.501 312.328 551.168 336.328 551.499 360.5C550.336 336.337 550.169 312.003 550.999 287.5C551.235 285.881 552.068 284.881 553.499 284.5Z" fill="#FCFD02"/>
<path fill-rule="evenodd" clip-rule="evenodd" d="M659.5 317.5C656.5 312.167 653.5 306.833 650.5 301.5C648.568 295.631 646.068 289.964 643 284.5C641.736 282.393 639.903 281.393 637.5 281.5C611.672 280.502 585.672 280.169 559.5 280.5C571.982 279.167 584.815 278.501 598 278.5C611.899 278.359 625.732 278.859 639.5 280C641.624 281.122 643.457 282.622 645 284.5C650.141 295.446 654.975 306.446 659.5 317.5Z" fill="#DAE533"/>
<path fill-rule="evenodd" clip-rule="evenodd" d="M637.5 281.5C639.903 281.393 641.736 282.393 643 284.5C646.068 289.964 648.568 295.631 650.5 301.5C647.456 296.418 644.622 291.085 642 285.5C640.603 283.93 639.103 282.596 637.5 281.5Z" fill="#244DE5"/>
<path fill-rule="evenodd" clip-rule="evenodd" d="M665.5 360.5C630.76 360.826 596.094 360.493 561.5 359.5C561.333 336.498 561.5 313.498 562 290.5C562.5 290 563 289.5 563.5 289C586.833 288.333 610.167 288.333 633.5 289C634.308 289.308 634.975 289.808 635.5 290.5C646.038 313.076 656.705 335.576 667.5 358C666.619 358.708 665.953 359.542 665.5 360.5Z" fill="#FDFDFE"/>
<path fill-rule="evenodd" clip-rule="evenodd" d="M652.5 258.5C656.269 260.937 658.936 264.271 660.5 268.5C658.027 265.196 655.027 262.362 651.5 260C612.5 259.333 573.5 259.333 534.5 260C532.714 260.785 531.214 261.951 530 263.5C528.68 315.442 528.013 367.442 528 419.5C525.575 425.422 521.408 428.422 515.5 428.5C517.598 427.065 519.931 425.898 522.5 425C524.141 423.871 525.141 422.371 525.5 420.5C526.222 420.082 526.722 419.416 527 418.5C527.333 367.167 527.667 315.833 528 264.5C528.513 263.473 529.013 262.473 529.5 261.5C530.5 261.167 531.167 260.5 531.5 259.5C532.473 259.013 533.473 258.513 534.5 258C573.862 257.184 613.196 257.351 652.5 258.5Z" fill="#F3EF13"/>
<path fill-rule="evenodd" clip-rule="evenodd" d="M652.5 258.5C613.196 257.351 573.862 257.184 534.5 258C533.473 258.513 532.473 259.013 531.5 259.5C531.062 259.565 530.728 259.399 530.5 259C531.328 258.085 532.328 257.419 533.5 257C572.5 256.333 611.5 256.333 650.5 257C651.416 257.278 652.082 257.778 652.5 258.5Z" fill="#0331FD"/>
<path fill-rule="evenodd" clip-rule="evenodd" d="M895.5 450.5C899.931 452.215 904.265 454.215 908.5 456.5C909.086 456.291 909.586 455.957 910 455.5C912.665 459.586 916.498 461.753 921.5 462C921.167 462.333 920.833 462.667 920.5 463C922.119 463.236 923.119 464.069 923.5 465.5C913.841 461.005 904.508 456.005 895.5 450.5Z" fill="#1751DF"/>
<path fill-rule="evenodd" clip-rule="evenodd" d="M320.5 459.5C370.665 460.333 420.998 460.833 471.5 461C421.5 461.333 371.5 461.667 321.5 462C324.415 465.828 327.081 469.828 329.5 474C328.944 474.383 328.611 474.883 328.5 475.5C325.777 470.398 322.777 465.398 319.5 460.5C319.624 459.893 319.957 459.56 320.5 459.5Z" fill="#FDFB07"/>
<path fill-rule="evenodd" clip-rule="evenodd" d="M135.499 439.5C134.087 441.998 132.92 444.664 131.999 447.5C131.499 472.164 131.332 496.831 131.499 521.5C130.336 496.337 130.169 471.003 130.999 445.5C131.791 442.894 133.291 440.894 135.499 439.5Z" fill="#012C94"/>
<path fill-rule="evenodd" clip-rule="evenodd" d="M624.5 461.5C629.612 465.069 633.278 469.736 635.5 475.5C631.836 470.842 628.169 466.175 624.5 461.5Z" fill="#214CE4"/>
<path fill-rule="evenodd" clip-rule="evenodd" d="M550.501 481.5C578.159 479.723 595.659 492.057 603.001 518.5C604.658 547.015 591.491 564.182 563.501 570C545.049 570.525 530.883 563.025 521.001 547.5C508.34 515.287 518.173 493.287 550.501 481.5Z" fill="#FDFEFE"/>
<path fill-rule="evenodd" clip-rule="evenodd" d="M225.499 482.5C250.842 479.701 267.342 490.368 274.999 514.5C278.353 540.653 267.52 557.487 242.499 565C219.268 567.641 203.435 558.141 194.999 536.5C189.4 509.345 199.567 491.345 225.499 482.5Z" fill="#FDFEFE"/>
<path fill-rule="evenodd" clip-rule="evenodd" d="M639.5 479.5C647.194 491.248 651.527 504.248 652.5 518.5C672.674 518.17 692.674 518.503 712.5 519.5C691.833 519.5 671.167 519.5 650.5 519.5C649.637 505.381 645.971 492.048 639.5 479.5Z" fill="#F5F014"/>
<path fill-rule="evenodd" clip-rule="evenodd" d="M721.5 471.5C722.117 471.611 722.617 471.944 723 472.5C723.667 485.5 723.667 498.5 723 511.5C722.831 498.993 722.331 486.66 721.5 474.5C721.5 473.5 721.5 472.5 721.5 471.5Z" fill="#014CE7"/>
<path fill-rule="evenodd" clip-rule="evenodd" d="M829.5 474.5C841.653 488.247 856.653 497.414 874.5 502C856.462 512.516 838.129 522.182 819.5 531C823.206 512.266 826.539 493.432 829.5 474.5Z" fill="#40C04D"/>
<path fill-rule="evenodd" clip-rule="evenodd" d="M813.5 455.5C817.221 456.891 819.554 459.558 820.5 463.5C815.569 488.422 811.069 513.422 807 538.5C803.38 543.789 799.38 548.789 795 553.5C782.769 543.636 770.269 534.136 757.5 525C767.742 511.604 777.742 498.104 787.5 484.5C795.932 474.645 804.599 464.978 813.5 455.5Z" fill="#41C14F"/>
<path fill-rule="evenodd" clip-rule="evenodd" d="M467.5 512.5C467.5 514.833 467.5 517.167 467.5 519.5C424.833 519.5 382.167 519.5 339.5 519.5C339.261 515.158 338.927 510.824 338.5 506.5C338.5 505.833 338.5 505.167 338.5 504.5C339.888 508.487 341.055 513.154 342 518.5C382.96 518.654 424.127 518.488 465.5 518C466.109 516.052 466.776 514.218 467.5 512.5Z" fill="#FAF503"/>
<path fill-rule="evenodd" clip-rule="evenodd" d="M338.502 506.5C338.929 510.824 339.263 515.158 339.502 519.5C382.169 519.5 424.835 519.5 467.502 519.5C424.667 520.831 381.667 520.831 338.502 519.5C337.203 515.036 337.203 510.702 338.502 506.5Z" fill="#0740EA"/>
<path fill-rule="evenodd" clip-rule="evenodd" d="M467.5 528.5C422.167 528.5 376.833 528.5 331.5 528.5C331.521 521.146 331.187 513.813 330.5 506.5C331.421 506.93 331.921 508.264 332 510.5C332.499 516.157 332.666 521.824 332.5 527.5C377.67 527.168 422.67 527.501 467.5 528.5Z" fill="#003699"/>
<path fill-rule="evenodd" clip-rule="evenodd" d="M721.5 526.5C721.082 527.222 720.416 527.722 719.5 528C696.502 528.5 673.502 528.667 650.5 528.5C674.026 527.804 697.693 527.137 721.5 526.5Z" fill="#02379B"/>
<path fill-rule="evenodd" clip-rule="evenodd" d="M930.5 549.5C920.345 557.41 910.012 565.077 899.5 572.5C893.571 565.397 887.404 558.397 881 551.5C869.992 565.337 858.826 579.003 847.5 592.5C833.025 581.859 818.692 571.025 804.5 560C808.167 555.667 811.833 551.333 815.5 547C839.602 533.617 863.935 520.784 888.5 508.5C893.212 509.459 897.545 511.292 901.5 514C910.816 526.14 920.483 537.973 930.5 549.5Z" fill="#41C150"/>
<path fill-rule="evenodd" clip-rule="evenodd" d="M750.5 534.5C763.383 542.868 775.883 551.868 788 561.5C786.291 565.924 783.624 569.924 780 573.5C767.976 563.975 755.809 554.642 743.5 545.5C746.094 541.974 748.427 538.308 750.5 534.5Z" fill="#3FBE4B"/>
<path fill-rule="evenodd" clip-rule="evenodd" d="M930.5 549.5C937.108 556.374 941.941 564.374 945 573.5C946.591 596.467 946.924 619.467 946 642.5C940.97 656.096 931.804 659.929 918.5 654C916.291 652.127 914.458 649.96 913 647.5C911.702 627.231 911.035 606.898 911 586.5C906.954 581.96 903.121 577.293 899.5 572.5C910.012 565.077 920.345 557.41 930.5 549.5Z" fill="#FECF14"/>
<path fill-rule="evenodd" clip-rule="evenodd" d="M703.5 750.5C698.543 749.011 693.543 747.678 688.5 746.5C684.207 745.344 679.874 744.344 675.5 743.5C670.167 741.833 664.833 740.167 659.5 738.5C669.561 708.385 680.727 678.719 693 649.5C709.395 637.052 726.229 625.218 743.5 614C720.5 613.333 697.5 613.333 674.5 614C655.946 626.105 637.279 637.938 618.5 649.5C616.565 645.293 613.898 641.627 610.5 638.5C604.859 629.851 599.193 621.184 593.5 612.5C615.263 597.775 637.263 583.275 659.5 569C663.749 567.874 668.082 567.208 672.5 567C691.5 566.667 710.5 566.333 729.5 566C731.623 562.049 734.289 558.549 737.5 555.5C766.692 577.859 796.025 600.025 825.5 622C815.305 632.2 803.972 640.867 791.5 648C771.224 658.054 751.058 668.221 731 678.5C721.92 702.579 712.753 726.579 703.5 750.5Z" fill="#FECF10"/>
<path fill-rule="evenodd" clip-rule="evenodd" d="M797.5 569.5C812.103 579.589 826.603 589.923 841 600.5C839.442 604.74 836.942 608.574 833.5 612C818.395 602.272 803.728 591.605 789.5 580C792.383 576.624 795.049 573.124 797.5 569.5Z" fill="#40C04E"/>
<path fill-rule="evenodd" clip-rule="evenodd" d="M584.498 605.5C593.899 615.994 602.565 626.994 610.498 638.5C613.896 641.627 616.563 645.293 618.498 649.5C612.582 656.918 605.582 663.084 597.498 668C592.759 668.865 588.592 667.698 584.998 664.5C575.331 651.167 565.665 637.833 555.998 624.5C551.533 614.894 554.033 607.727 563.498 603C568.744 601.494 574.077 601.161 579.498 602C581.582 602.697 583.249 603.864 584.498 605.5Z" fill="#0471BB"/>
<path fill-rule="evenodd" clip-rule="evenodd" d="M584.5 605.5C587.767 607.427 590.767 609.761 593.5 612.5C599.193 621.184 604.859 629.851 610.5 638.5C602.567 626.994 593.901 615.994 584.5 605.5Z" fill="#214FD6"/>
<path fill-rule="evenodd" clip-rule="evenodd" d="M659.498 738.5C664.831 740.167 670.165 741.833 675.498 743.5C679.556 746.267 683.89 747.267 688.498 746.5C693.541 747.678 698.541 749.011 703.498 750.5C702.912 758.186 702.079 765.853 700.998 773.5C697.595 779.618 692.428 782.118 685.498 781C668.989 777.632 652.655 773.632 636.498 769C628.887 758.819 630.22 749.819 640.498 742C646.444 738.918 652.777 737.751 659.498 738.5Z" fill="#0670BB"/>
<path fill-rule="evenodd" clip-rule="evenodd" d="M675.5 743.5C679.874 744.344 684.207 745.344 688.5 746.5C683.892 747.267 679.558 746.267 675.5 743.5Z" fill="#0F4AE4"/>
<path fill-rule="evenodd" clip-rule="evenodd" d="M811 790.063C811.617 790.174 812.117 790.507 812.5 791.063C813.167 813.73 813.167 836.396 812.5 859.063C812.117 859.619 811.617 859.952 811 860.063C649.999 860.396 488.999 860.063 328 859.063C327.344 847.607 327.01 836.107 327 824.563C327.005 813.156 327.339 801.822 328 790.563C489 790.063 650 789.896 811 790.063Z" fill="#C8C8C8"/>
<path fill-rule="evenodd" clip-rule="evenodd" d="M434.5 635.156C441.764 634.256 446.598 637.256 449 644.156C458.803 671.233 468.803 698.233 479 725.156C496.833 701.323 514.667 677.489 532.5 653.656C545.473 650.053 550.973 654.887 549 668.156C544.836 691.799 541.669 715.466 539.5 739.156C550.57 735.188 561.737 731.522 573 728.156C581.507 729.669 584.84 734.669 583 743.156C577.307 756.051 570.473 768.218 562.5 779.656C555.427 782.693 549.593 781.193 545 775.156C544.833 773.656 544.667 772.156 544.5 770.656C544.699 767.16 545.532 763.994 547 761.156C539.244 764.262 531.244 766.596 523 768.156C515.697 767.186 511.864 763.02 511.5 755.656C513.94 742.135 516.107 728.635 518 715.156C506.861 729.929 495.361 744.429 483.5 758.656C473.917 763.613 467.084 761.113 463 751.156C456.458 733.694 449.625 716.361 442.5 699.156C439 714.824 435.5 730.491 432 746.156C428.155 750.659 423.322 752.159 417.5 750.656C407.339 745.41 397.339 739.91 387.5 734.156C387.167 734.489 386.833 734.823 386.5 735.156C391.794 746.876 395.961 758.876 399 771.156C396.421 779.364 390.921 782.197 382.5 779.656C380.376 778.534 378.543 777.034 377 775.156C367.77 751.362 359.103 727.362 351 703.156C351.025 693.537 355.858 689.704 365.5 691.656C381.167 700.823 396.833 709.989 412.5 719.156C417.865 693.976 422.698 668.642 427 643.156C428.353 639.306 430.853 636.639 434.5 635.156Z" fill="#FE761E"/>
<path fill-rule="evenodd" clip-rule="evenodd" d="M889.543 383.488C890.706 384.642 891.061 385.985 890.608 387.517C885.096 395.239 879.586 402.962 874.074 410.684C871.848 413.611 870.007 413.386 868.551 410.009C873.543 401.02 879.265 392.424 885.716 384.22C886.932 383.576 888.207 383.332 889.543 383.488Z" fill="#F7FBFC"/>
<path fill-rule="evenodd" clip-rule="evenodd" d="M914.926 401.857C916.088 403.011 916.444 404.353 915.991 405.885C910.226 413.977 904.463 422.068 898.699 430.159C898.091 430.461 897.453 430.584 896.785 430.525C895.285 429.766 894.497 428.57 894.421 426.938C899.82 418.732 905.38 410.616 911.099 402.589C912.315 401.945 913.589 401.701 914.926 401.857Z" fill="#F6FAFC"/>
<path d="M770.82 152.751L775.388 135.706C776.228 132.567 779.454 130.705 782.592 131.546L884.867 158.95C888.005 159.791 889.867 163.017 889.026 166.155L884.459 183.2L921.391 193.096C922.96 193.517 923.891 195.13 923.471 196.698L921.948 202.38C921.528 203.949 919.915 204.88 918.346 204.46L730.843 154.219C729.273 153.798 728.343 152.185 728.763 150.617L730.286 144.935C730.706 143.366 732.319 142.435 733.888 142.855L770.82 152.751ZM798.931 93.2949C805.658 68.1892 831.459 53.2916 856.566 60.0192C881.672 66.7463 896.569 92.5468 889.842 117.654L881.468 148.905L790.557 124.546L798.931 93.2949ZM873.557 110.246C877.341 96.1248 868.961 81.6098 854.84 77.826L851.999 77.0648C850.43 76.6443 848.817 77.5755 848.397 79.1444L846.874 84.8264C846.454 86.3952 847.385 88.008 848.954 88.4283L851.795 89.1895C859.64 91.2916 864.295 99.3553 862.193 107.2L861.432 110.041C861.012 111.61 861.943 113.223 863.512 113.643L869.194 115.166C870.763 115.586 872.375 114.655 872.796 113.086L873.557 110.246L873.557 110.246ZM777.726 81.5231C780.864 82.364 782.726 85.5894 781.885 88.7276C781.044 91.8657 777.819 93.7279 774.681 92.8871L751.953 86.7972C748.815 85.956 746.953 82.7305 747.794 79.5928C748.635 76.455 751.86 74.5924 754.998 75.4333L777.726 81.5231ZM936.819 124.152C939.958 124.993 941.82 128.218 940.979 131.357C940.138 134.495 936.913 136.357 933.775 135.516L911.047 129.426C907.909 128.585 906.047 125.36 906.887 122.222C907.728 119.084 910.954 117.221 914.092 118.062L936.819 124.152ZM803.998 47.2848L792.233 26.9076C788.312 20.115 798.5 14.2329 802.422 21.0253L814.187 41.4025C818.108 48.1947 807.92 54.0768 803.998 47.2848ZM902.576 65.0861L922.954 53.3213C929.746 49.3997 935.628 59.5884 928.836 63.5097L908.459 75.2745C901.666 79.1962 895.784 69.0078 902.576 65.0861ZM856.974 35.7691L863.064 13.0412C865.094 5.46549 876.458 8.51045 874.428 16.0862L868.338 38.8137C866.308 46.3898 854.944 43.3449 856.974 35.7691Z" fill="#FD4A2F"/>
</g>
<defs>
<clipPath id="clip0_339_4404">
<rect width="1024" height="1024" fill="white"/>
</clipPath>
</defs>
</svg>
