<svg width="1024" height="1024" viewBox="0 0 1024 1024" fill="none" xmlns="http://www.w3.org/2000/svg">
<g clip-path="url(#clip0_339_4401)">
<path fill-rule="evenodd" clip-rule="evenodd" d="M249.501 271.5C249.084 270.876 248.417 270.543 247.501 270.5C231.818 275.271 215.818 277.771 199.501 278C195.256 272.197 196.089 267.031 202.001 262.5C205.264 257.096 205.098 251.763 201.501 246.5C202.026 245.808 202.693 245.308 203.501 245C201.278 244.348 200.111 242.848 200.001 240.5C199.602 240.728 199.436 241.062 199.501 241.5C193.463 209.064 203.13 182.23 228.501 161C256.989 141.936 286.323 140.603 316.501 157C323.65 161.669 330.15 167.169 336.001 173.5C340.626 180.582 345.126 187.749 349.501 195C353.798 196.081 358.131 197.081 362.501 198C367.34 201.194 368.507 205.361 366.001 210.5C347.988 227.099 327.821 240.599 305.501 251C287.346 259.245 268.679 266.078 249.501 271.5Z" fill="#0673C6"/>
<path fill-rule="evenodd" clip-rule="evenodd" d="M280.5 162.5C282.017 162.511 283.184 163.177 284 164.5C288.333 173.167 292.667 181.833 297 190.5C298.167 194.667 296.667 196.167 292.5 195C288.127 186.421 283.627 177.921 279 169.5C278.167 166.829 278.667 164.496 280.5 162.5Z" fill="#F4F9FC"/>
<path fill-rule="evenodd" clip-rule="evenodd" d="M241.499 178.5C243.389 178.297 244.889 178.963 245.999 180.5C250.332 189.167 254.666 197.833 258.999 206.5C260.166 210.667 258.666 212.167 254.499 211C249.283 202.07 244.45 192.904 239.999 183.5C239.386 181.505 239.886 179.838 241.499 178.5Z" fill="#EEF5FA"/>
<path fill-rule="evenodd" clip-rule="evenodd" d="M352.5 235.5C353.75 235.577 354.583 236.244 355 237.5C366.265 273.032 357.098 301.866 327.5 324C308.357 334.254 288.357 336.254 267.5 330C248.61 321.944 235.277 308.444 227.5 289.5C262.012 281.605 295.012 269.439 326.5 253C335.75 247.887 344.417 242.053 352.5 235.5Z" fill="#FDCD1C"/>
<path fill-rule="evenodd" clip-rule="evenodd" d="M249.499 271.5C236.003 275.033 222.336 277.866 208.499 280C198.835 282 194.668 278.167 195.999 268.5C196.929 265.638 198.596 263.305 200.999 261.5C201.905 259.256 202.405 256.923 202.499 254.5C201.296 250.221 200.296 245.888 199.499 241.5C199.434 241.062 199.6 240.728 199.999 240.5C200.109 242.848 201.276 244.348 203.499 245C202.691 245.308 202.024 245.808 201.499 246.5C205.096 251.763 205.262 257.096 201.999 262.5C196.087 267.031 195.254 272.197 199.499 278C215.816 277.771 231.816 275.271 247.499 270.5C248.415 270.543 249.082 270.876 249.499 271.5Z" fill="#1252B7"/>
<path fill-rule="evenodd" clip-rule="evenodd" d="M449.499 354.5C446.638 354.487 445.638 353.321 446.499 351C445.841 349.095 444.674 347.595 442.999 346.5C444.515 342.428 443.349 339.594 439.499 338C439.956 337.586 440.29 337.086 440.499 336.5C437.982 329.262 434.649 322.429 430.499 316C430.832 315.667 431.166 315.333 431.499 315C428.92 312.297 427.92 309.297 428.499 306C426.38 305.658 426.046 304.825 427.499 303.5C447.159 289.314 466.159 274.148 484.499 258C499.715 248.336 511.882 251.17 520.999 266.5C523.844 275.212 522.511 283.212 516.999 290.5C497.166 310.333 477.332 330.167 457.499 350C454.94 351.777 452.273 353.277 449.499 354.5Z" fill="#62C244"/>
<path fill-rule="evenodd" clip-rule="evenodd" d="M412.5 310.5C415.226 314.923 417.893 319.923 420.5 325.5C420.069 326.293 419.735 327.127 419.5 328C421.547 336.93 425.547 344.763 431.5 351.5C431.291 352.086 430.957 352.586 430.5 353C432.636 356.11 434.636 359.277 436.5 362.5C430.049 366.444 423.716 370.611 417.5 375C415.443 376.719 413.776 378.719 412.5 381C417.382 395.7 421.716 410.534 425.5 425.5C420.5 426.833 415.5 428.167 410.5 429.5C398.528 394.75 385.861 360.25 372.5 326C385.706 320.542 399.039 315.375 412.5 310.5Z" fill="#66C344"/>
<path fill-rule="evenodd" clip-rule="evenodd" d="M427.501 303.5C426.048 304.825 426.382 305.658 428.501 306C427.922 309.297 428.922 312.297 431.501 315C431.168 315.333 430.834 315.667 430.501 316C434.651 322.429 437.984 329.262 440.501 336.5C440.292 337.086 439.958 337.586 439.501 338C443.351 339.594 444.517 342.428 443.001 346.5C444.676 347.595 445.843 349.095 446.501 351C445.64 353.321 446.64 354.487 449.501 354.5C447.538 355.82 445.538 357.154 443.501 358.5C440.891 353.45 437.891 348.617 434.501 344C432.844 338.515 430.51 333.349 427.501 328.5C428.041 327.252 428.708 326.085 429.501 325C427.766 322.808 426.599 320.308 426.001 317.5C425.251 316.874 424.417 316.374 423.501 316C422.395 312.799 422.395 309.299 423.501 305.5C424.515 304.326 425.848 303.66 427.501 303.5Z" fill="#62C244"/>
<path fill-rule="evenodd" clip-rule="evenodd" d="M344.5 334.5C345.5 334.5 346.5 334.5 347.5 334.5C344.58 356.858 341.413 379.191 338 401.5C319.686 386.02 301.519 370.354 283.5 354.5C303.686 347.045 324.02 340.378 344.5 334.5Z" fill="#62C244"/>
<path fill-rule="evenodd" clip-rule="evenodd" d="M423.5 305.5C422.394 309.299 422.394 312.799 423.5 316C424.416 316.374 425.25 316.874 426 317.5C426.598 320.308 427.765 322.808 429.5 325C428.707 326.085 428.04 327.252 427.5 328.5C430.509 333.349 432.843 338.515 434.5 344C437.89 348.617 440.89 353.45 443.5 358.5C441.167 359.833 438.833 361.167 436.5 362.5C434.636 359.277 432.636 356.11 430.5 353C430.957 352.586 431.291 352.086 431.5 351.5C425.547 344.763 421.547 336.93 419.5 328C419.735 327.127 420.069 326.293 420.5 325.5C417.893 319.923 415.226 314.923 412.5 310.5C415.979 308.597 419.646 306.93 423.5 305.5Z" fill="#62C244"/>
<path fill-rule="evenodd" clip-rule="evenodd" d="M361.5 330.5C374.593 364.538 387.593 398.705 400.5 433C386.254 438.138 371.92 442.971 357.5 447.5C354.479 436.268 351.146 425.102 347.5 414C352.654 386.242 357.321 358.409 361.5 330.5Z" fill="#FDCC1C"/>
<path fill-rule="evenodd" clip-rule="evenodd" d="M268.5 361.5C290.167 380.331 312 398.998 334 417.5C337.863 427.423 341.53 437.423 345 447.5C345.781 448.944 345.614 450.277 344.5 451.5C329.167 456.167 313.833 460.833 298.5 465.5C288.807 430.725 278.807 396.058 268.5 361.5Z" fill="#FDCC1C"/>
<path fill-rule="evenodd" clip-rule="evenodd" d="M214.5 449.5C214.565 449.062 214.399 448.728 214 448.5C213 449.167 212 449.833 211 450.5C210.383 449.551 210.549 448.718 211.5 448C207.5 447.333 207.5 446.667 211.5 446C210.167 445.667 208.833 445.333 207.5 445C208.167 444.667 208.833 444.333 209.5 444C207.285 443.612 205.952 442.612 205.5 441C206.167 440.667 206.833 440.333 207.5 440C206.286 436.788 204.786 433.288 203 429.5C201.173 430.659 199.507 431.992 198 433.5C196.733 432.09 196.733 430.424 198 428.5C198.691 430.891 199.691 430.891 201 428.5C200.029 426.345 199.529 424.178 199.5 422C200.167 420.667 201.167 419.667 202.5 419C201.333 418.5 200.5 417.667 200 416.5C198.927 417.28 197.76 417.113 196.5 416C197.167 415.667 197.833 415.333 198.5 415C197.376 414.751 196.376 414.251 195.5 413.5C196.167 413.167 196.833 412.833 197.5 412.5C196.975 411.808 196.308 411.308 195.5 411C195.833 410.667 196.167 410.333 196.5 410C193.965 407.742 193.632 405.575 195.5 403.5C191.736 402.326 188.402 399.826 185.5 396C186.823 395.184 187.489 394.017 187.5 392.5C191.49 387.696 196.49 384.196 202.5 382C219.995 375.248 237.662 369.081 255.5 363.5C265.295 398.885 275.295 434.219 285.5 469.5C278.792 471.291 272.125 473.291 265.5 475.5C264.833 475.167 264.167 474.833 263.5 474.5C259.75 458.741 255.75 443.074 251.5 427.5C242.602 430.966 233.602 434.133 224.5 437C220.923 441.066 217.589 445.232 214.5 449.5Z" fill="#61C345"/>
<path fill-rule="evenodd" clip-rule="evenodd" d="M427.5 437.5C428.497 437.47 429.164 437.97 429.5 439C433.069 448.539 436.735 458.039 440.5 467.5C417.747 475.64 394.747 482.973 371.5 489.5C368.489 479.485 365.489 469.485 362.5 459.5C384.378 452.541 406.044 445.208 427.5 437.5Z" fill="#FDCC1C"/>
<path fill-rule="evenodd" clip-rule="evenodd" d="M346.5 464.5C348.124 464.36 349.29 465.027 350 466.5C353.679 476.036 356.845 485.702 359.5 495.5C333.262 503.024 307.262 511.357 281.5 520.5C276.826 510.643 272.826 500.476 269.5 490C269.833 489.5 270.167 489 270.5 488.5C295.852 480.169 321.186 472.169 346.5 464.5Z" fill="#FDCC1C"/>
<path fill-rule="evenodd" clip-rule="evenodd" d="M187.5 392.5C187.489 394.017 186.823 395.184 185.5 396C188.402 399.826 191.736 402.326 195.5 403.5C193.632 405.575 193.965 407.742 196.5 410C196.167 410.333 195.833 410.667 195.5 411C196.308 411.308 196.975 411.808 197.5 412.5C196.833 412.833 196.167 413.167 195.5 413.5C196.376 414.251 197.376 414.751 198.5 415C197.833 415.333 197.167 415.667 196.5 416C197.76 417.113 198.927 417.28 200 416.5C200.5 417.667 201.333 418.5 202.5 419C201.167 419.667 200.167 420.667 199.5 422C199.529 424.178 200.029 426.345 201 428.5C199.691 430.891 198.691 430.891 198 428.5C196.733 430.424 196.733 432.09 198 433.5C199.507 431.992 201.173 430.659 203 429.5C204.786 433.288 206.286 436.788 207.5 440C206.833 440.333 206.167 440.667 205.5 441C205.952 442.612 207.285 443.612 209.5 444C208.833 444.333 208.167 444.667 207.5 445C208.833 445.333 210.167 445.667 211.5 446C207.5 446.667 207.5 447.333 211.5 448C210.549 448.718 210.383 449.551 211 450.5C212 449.833 213 449.167 214 448.5C214.399 448.728 214.565 449.062 214.5 449.5C203.191 466.798 191.524 483.798 179.5 500.5C168.51 493.002 157.176 486.002 145.5 479.5C156.75 451.243 169.25 423.577 183 396.5C184.371 394.959 185.871 393.625 187.5 392.5Z" fill="#56C047"/>
<path fill-rule="evenodd" clip-rule="evenodd" d="M564.5 597.5C562.115 599.884 560.115 602.55 558.5 605.5C550.826 613.174 543.493 621.174 536.5 629.5C532.833 632.5 529.5 635.833 526.5 639.5C485.755 602.588 441.755 570.088 394.5 542C388.651 538.502 383.151 539.002 378 543.5C376.299 545.9 375.466 548.567 375.5 551.5C377.387 571.815 379.053 592.148 380.5 612.5C380.63 621.911 378.13 630.578 373 638.5C359.27 659.902 345.937 681.569 333 703.5C331.924 706.079 330.091 707.746 327.5 708.5C310.231 702.299 292.897 696.299 275.5 690.5C285.988 667.522 296.488 644.522 307 621.5C308.573 618.523 309.406 615.357 309.5 612C301.933 585.133 294.266 558.3 286.5 531.5C338.617 514.406 390.784 497.406 443 480.5C485.205 517.534 525.705 556.534 564.5 597.5Z" fill="#FCCD1C"/>
<path fill-rule="evenodd" clip-rule="evenodd" d="M145.499 479.5C157.175 486.002 168.509 493.002 179.499 500.5C176.547 507.954 171.88 514.12 165.499 519C155.245 523.355 146.745 521.188 139.999 512.5C137.07 506.338 136.736 500.005 138.999 493.5C140.898 488.604 143.064 483.937 145.499 479.5Z" fill="#56C047"/>
<path fill-rule="evenodd" clip-rule="evenodd" d="M526.5 639.5C529.5 635.833 532.833 632.5 536.5 629.5C544.826 622.504 552.159 614.504 558.5 605.5C560.115 602.55 562.115 599.884 564.5 597.5C566.71 599.6 569.376 600.6 572.5 600.5C578.335 599.253 584.001 597.419 589.5 595C600.285 593.148 608.785 596.648 615 605.5C615.667 607.5 615.667 609.5 615 611.5C597.839 630.66 580.006 649.16 561.5 667C558.833 667.667 556.167 667.667 553.5 667C544.298 657.965 535.298 648.798 526.5 639.5Z" fill="#0972C5"/>
<path fill-rule="evenodd" clip-rule="evenodd" d="M558.5 605.5C552.159 614.504 544.826 622.504 536.5 629.5C543.493 621.174 550.826 613.174 558.5 605.5Z" fill="#1D5ADD"/>
<path fill-rule="evenodd" clip-rule="evenodd" d="M551.5 363.5C559.634 367.065 567.3 371.399 574.5 376.5C568.586 387.33 562.419 397.997 556 408.5C554.813 410.044 554.48 411.711 555 413.5C573.753 424.127 592.586 434.627 611.5 445C580.036 455.575 548.536 466.075 517 476.5C510.993 486.519 504.493 496.186 497.5 505.5C491.177 500.509 485.177 495.176 479.5 489.5C484.47 481.365 489.636 473.365 495 465.5C513.592 431.312 532.425 397.312 551.5 363.5Z" fill="#FE761E"/>
<path fill-rule="evenodd" clip-rule="evenodd" d="M633.5 458.5C657.432 470.8 681.099 483.633 704.5 497C671.863 508.435 639.029 519.268 606 529.5C582.821 517.159 559.988 504.159 537.5 490.5C569.581 479.82 601.581 469.153 633.5 458.5Z" fill="#FE761E"/>
<path fill-rule="evenodd" clip-rule="evenodd" d="M727.5 510.5C752.229 523.367 776.896 536.534 801.5 550C768.182 561.606 734.849 573.106 701.5 584.5C677.167 570.667 652.833 556.833 628.5 543C661.537 531.997 694.537 521.164 727.5 510.5Z" fill="#FE761E"/>
<path fill-rule="evenodd" clip-rule="evenodd" d="M863.5 539.5C870.473 543.321 877.473 547.154 884.5 551C885.517 552.049 885.684 553.216 885 554.5C843.5 626.167 802 697.833 760.5 769.5C753.5 765.667 746.5 761.833 739.5 758C761.25 720.58 782.583 682.913 803.5 645C777.691 628.59 751.358 612.923 724.5 598C757.309 586.341 790.309 575.175 823.5 564.5C830.057 567.695 836.557 571.029 843 574.5C850.337 563.163 857.171 551.496 863.5 539.5Z" fill="#FE761E"/>
<path fill-rule="evenodd" clip-rule="evenodd" d="M275.501 690.5C292.898 696.299 310.232 702.299 327.501 708.5C327.817 710.436 329.151 712.269 331.501 714C349.169 719.478 356.835 731.312 354.501 749.5C354.168 749.5 353.834 749.5 353.501 749.5C336.831 749.667 320.164 749.5 303.501 749C289.017 744.394 274.684 739.394 260.501 734C257.904 731.683 257.071 728.85 258.001 725.5C263.322 713.525 269.155 701.858 275.501 690.5Z" fill="#0872C6"/>
<path fill-rule="evenodd" clip-rule="evenodd" d="M353.5 749.5C353.833 749.5 354.167 749.5 354.5 749.5C417.833 749.5 481.167 749.5 544.5 749.5C544.333 772.169 544.5 794.836 545 817.5C546.833 824.667 551.333 829.167 558.5 831C671.501 831.424 784.501 831.257 897.5 830.5C897.5 841.833 897.5 853.167 897.5 864.5C640.167 863.869 382.834 863.536 125.5 863.5C125.5 825.833 125.5 788.167 125.5 750.5C201.666 749.579 277.666 749.246 353.5 749.5Z" fill="#C8C8C8"/>
<path d="M696.541 348.228L705.365 332.945C706.989 330.132 710.587 329.168 713.4 330.792L805.097 383.733C807.911 385.358 808.875 388.955 807.25 391.769L798.427 407.052L831.539 426.169C832.946 426.981 833.428 428.78 832.616 430.187L829.675 435.281C828.863 436.688 827.064 437.17 825.657 436.357L657.546 339.298C656.139 338.486 655.658 336.688 656.47 335.281L659.411 330.187C660.223 328.78 662.022 328.298 663.428 329.11L696.541 348.228ZM739.083 298.073C752.078 275.564 780.855 267.852 803.366 280.848C825.876 293.844 833.588 322.621 820.591 345.132L804.415 373.151L722.906 326.092L739.083 298.073ZM806.779 333.761C814.088 321.101 809.751 304.911 797.09 297.602L794.543 296.131C793.136 295.319 791.337 295.801 790.525 297.208L787.584 302.302C786.772 303.709 787.254 305.507 788.661 306.319L791.208 307.79C798.241 311.851 800.651 320.845 796.59 327.878L795.12 330.425C794.308 331.832 794.79 333.631 796.196 334.443L801.291 337.384C802.698 338.196 804.496 337.714 805.308 336.308L806.778 333.761L806.779 333.761ZM721.647 281.214C724.46 282.839 725.424 286.436 723.8 289.25C722.175 292.063 718.578 293.027 715.764 291.403L695.387 279.638C692.574 278.013 691.61 274.416 693.234 271.603C694.858 268.789 698.456 267.825 701.27 269.45L721.647 281.214ZM864.286 363.567C867.1 365.192 868.064 368.789 866.439 371.603C864.815 374.416 861.217 375.38 858.404 373.756L838.027 361.991C835.213 360.367 834.249 356.769 835.874 353.956C837.498 351.142 841.096 350.178 843.909 351.803L864.286 363.567ZM755.885 254.942L749.796 232.215C747.766 224.638 759.13 221.594 761.159 229.17L767.249 251.897C769.279 259.473 757.915 262.518 755.885 254.942ZM846.497 297.651L869.225 291.561C876.801 289.531 879.846 300.895 872.27 302.925L849.542 309.015C841.966 311.045 838.921 299.681 846.497 297.651ZM810.037 257.53L821.801 237.153C825.723 230.361 835.912 236.243 831.99 243.035L820.225 263.412C816.304 270.205 806.115 264.322 810.037 257.53Z" fill="#FD4A2F"/>
</g>
<defs>
<clipPath id="clip0_339_4401">
<rect width="1024" height="1024" fill="white"/>
</clipPath>
</defs>
</svg>
